<svg width="16" height="16" viewBox="0 0 16 16" fill="none" xmlns="http://www.w3.org/2000/svg">
<path fill-rule="evenodd" clip-rule="evenodd" d="M8.80013 4.93104L11.244 7.3749C11.3611 7.49205 11.5511 7.49205 11.6683 7.3749L12.3754 6.66779C12.4925 6.55063 12.4925 6.36068 12.3754 6.24352L8.21227 2.08043C8.09511 1.96327 7.90516 1.96327 7.788 2.08043L3.62491 6.24353C3.50775 6.36068 3.50775 6.55063 3.62491 6.66779L4.33201 7.3749C4.44917 7.49205 4.63912 7.49205 4.75628 7.3749L7.20013 4.93104L7.20014 13.6997C7.20014 13.8654 7.33445 13.9997 7.50014 13.9997L8.50013 13.9997C8.66582 13.9997 8.80013 13.8654 8.80013 13.6997L8.80013 4.93104Z" fill="#28A879"/>
</svg>

