<svg width="24" height="24" viewBox="0 0 24 24" fill="none" xmlns="http://www.w3.org/2000/svg">
<path d="M19.9393 14.25L15.97 18.2194C15.8293 18.36 15.75 18.5511 15.75 18.75C15.75 18.762 15.7503 18.774 15.7509 18.786C15.7598 18.9723 15.8378 19.1485 15.9697 19.2803C16.1103 19.421 16.3011 19.5 16.5 19.5C16.6989 19.5 16.8897 19.421 17.0303 19.2803L21.5303 14.7803C21.671 14.6397 21.75 14.4489 21.75 14.25C21.75 14.0511 21.671 13.8603 21.5303 13.7197L17.0304 9.21976C16.8897 9.07902 16.6989 9 16.5 9C16.3011 9 16.1103 9.07902 15.9697 9.21967C15.829 9.36032 15.75 9.55109 15.75 9.75C15.75 9.94891 15.829 10.1397 15.9697 10.2803L19.9393 14.25Z" fill="#ADBFDF"/>
<path d="M3.75 5.25C3.75 6.89103 4.37799 8.40714 4.37799 8.40714C5.00599 9.92325 6.16637 11.0836 6.16637 11.0836C7.32675 12.244 8.84286 12.872 8.84286 12.872C10.359 13.5 12 13.5 12 13.5H21C21.4142 13.5 21.75 13.8358 21.75 14.25C21.75 14.6642 21.4142 15 21 15H12C10.0606 15 8.26884 14.2578 8.26884 14.2578C6.47707 13.5156 5.10571 12.1443 5.10571 12.1443C3.73435 10.7729 2.99217 8.98116 2.99217 8.98116C2.2501 7.18964 2.25 5.25054 2.25 5.25054C2.25 5.05163 2.32902 4.86032 2.46967 4.71967C2.61032 4.57902 2.80109 4.5 3 4.5C3.41421 4.5 3.75 4.83579 3.75 5.25Z" fill="#ADBFDF"/>
</svg>
