<svg width="16" height="16" viewBox="0 0 16 16" fill="none" xmlns="http://www.w3.org/2000/svg">
<path d="M5.35337 6.85374C5.44713 6.75997 5.5 6.63261 5.5 6.5C5.5 6.36739 5.44732 6.24021 5.35355 6.14645L5.34924 6.14218C5.25587 6.0512 5.13037 6 5 6C4.985 6 4.97001 6.00067 4.95507 6.00202C4.83846 6.01254 4.72924 6.06365 4.64645 6.14645L1.64645 9.14645C1.55268 9.24021 1.5 9.36739 1.5 9.5C1.5 9.63261 1.55268 9.75979 1.64645 9.85355L4.64645 12.8536C4.74021 12.9473 4.86739 13 5 13C5.13261 13 5.25979 12.9473 5.35355 12.8536C5.44732 12.7598 5.5 12.6326 5.5 12.5C5.5 12.3674 5.44732 12.2402 5.35355 12.1464L2.70711 9.5L5.35337 6.85374Z" fill="#F89500"/>
<path d="M8 9H2C1.72386 9 1.5 9.22386 1.5 9.5C1.5 9.77614 1.72386 10 2 10H8C9.29293 10 10.4874 9.50522 10.4874 9.50522C11.682 9.01044 12.5962 8.09619 12.5962 8.09619C13.5104 7.18196 14.0052 5.98744 14.0052 5.98744C14.5 4.79293 14.5 3.5 14.5 3.5C14.5 3.22386 14.2761 3 14 3C13.7239 3 13.5 3.22386 13.5 3.5C13.5 4.59402 13.0813 5.60476 13.0813 5.60476C12.6627 6.6155 11.8891 7.38909 11.8891 7.38909C11.1155 8.16268 10.1048 8.58134 10.1048 8.58134C9.09402 9 8 9 8 9Z" fill="#F89500"/>
</svg>
