<svg width="16" height="16" viewBox="0 0 16 16" fill="none" xmlns="http://www.w3.org/2000/svg">
<path d="M3.35355 10.6464L4.5 11.7929V3C4.5 2.72386 4.72386 2.5 5 2.5C5.27614 2.5 5.5 2.72386 5.5 3V11.7929L6.64645 10.6464C6.74021 10.5527 6.86739 10.5 7 10.5C7.13261 10.5 7.25979 10.5527 7.35355 10.6464C7.44732 10.7402 7.5 10.8674 7.5 11C7.5 11.1326 7.44713 11.26 7.35337 11.3537L5.35355 13.3536C5.25979 13.4473 5.13261 13.5 5 13.5C4.86739 13.5 4.74021 13.4473 4.64645 13.3536L2.64645 11.3536C2.55268 11.2598 2.5 11.1326 2.5 11C2.5 10.8674 2.55268 10.7402 2.64645 10.6464C2.74021 10.5527 2.86739 10.5 3 10.5C3.13261 10.5 3.25979 10.5527 3.35355 10.6464Z" fill="#ADBFDF"/>
<path d="M12.6462 5.35329C12.74 5.44706 12.8674 5.5 13 5.5C13.1326 5.5 13.2598 5.44732 13.3536 5.35355C13.4473 5.25979 13.5 5.13261 13.5 5C13.5 4.86739 13.4473 4.74021 13.3536 4.64645L11.3536 2.64645L11.3481 2.64111C11.2581 2.55377 11.1353 2.5 11 2.5C10.8647 2.5 10.7419 2.55377 10.6519 2.64111L10.6464 2.64645L8.64645 4.64645C8.55268 4.74021 8.5 4.86739 8.5 5C8.5 5.001 8.5 5.002 8.50001 5.003C8.50005 5.01001 8.50024 5.01702 8.50058 5.02402C8.50655 5.14818 8.55855 5.26566 8.64645 5.35355C8.74021 5.44732 8.86739 5.5 9 5.5C9.13261 5.5 9.25979 5.44732 9.35355 5.35355L10.5 4.20711V13C10.5 13.2761 10.7239 13.5 11 13.5C11.2761 13.5 11.5 13.2761 11.5 13V4.20711L12.6462 5.35329Z" fill="#ADBFDF"/>
</svg>
