<svg width="16" height="16" viewBox="0 0 16 16" fill="none" xmlns="http://www.w3.org/2000/svg">
<path fill-rule="evenodd" clip-rule="evenodd" d="M3.0613 1.77467C3.05561 1.76841 3.04977 1.76229 3.04379 1.75631C2.94998 1.66249 2.82456 1.60701 2.69204 1.6007L2.69045 1.60063C2.68252 1.60027 2.6746 1.6001 2.66667 1.6001C2.53399 1.6001 2.40608 1.64955 2.30791 1.7388C2.30165 1.74449 2.29553 1.75033 2.28955 1.75631C2.19573 1.85012 2.14025 1.97554 2.13394 2.10806L2.13387 2.10966C2.13351 2.11758 2.13334 2.1255 2.13334 2.13343C2.13334 2.26611 2.18279 2.39402 2.27203 2.49219L3.56449 3.91389C2.92105 4.3268 1.87342 5.1006 1.02323 6.21081C1.02323 6.21081 0.358079 7.0794 0.0457601 7.78394C-0.0153254 7.92173 -0.0152502 8.07894 0.0459672 8.21668C0.0459672 8.21668 0.194891 8.55176 0.498676 9.03424C0.498676 9.03424 1.09723 9.98489 1.88954 10.7772C1.88954 10.7772 4.44576 13.3334 7.99566 13.3334C7.99566 13.3334 9.76078 13.3478 11.4695 12.6094L12.9387 14.2255C13.0398 14.3367 13.1831 14.4001 13.3333 14.4001L13.3356 14.4001C13.4675 14.3996 13.5945 14.3501 13.6921 14.2614C13.8033 14.1603 13.8667 14.017 13.8667 13.8668L13.8667 13.8645C13.8661 13.7326 13.8167 13.6056 13.728 13.508L6.61551 5.6843C6.61465 5.68327 6.61378 5.68224 6.61291 5.68122C6.60913 5.67678 6.60528 5.67239 6.60135 5.66807C6.59648 5.66272 6.59152 5.65747 6.58646 5.65234L3.0613 1.77467ZM4.28776 4.70949C2.8782 5.54291 1.87011 6.85934 1.87011 6.85934C1.38833 7.48847 1.12605 7.99731 1.12605 7.99731C1.23445 8.20087 1.40133 8.46591 1.40133 8.46591C1.93611 9.31527 2.64379 10.023 2.64379 10.023C4.88759 12.2667 8.00435 12.2668 8.00435 12.2668C9.07266 12.2755 10.0722 11.9893 10.6978 11.7605L9.71803 10.6828C9.33303 10.9197 8.72143 11.2029 7.99996 11.2001C7.99996 11.2001 7.00843 11.2 6.19068 10.6393C6.19068 10.6393 5.37293 10.0786 5.01548 9.15375C5.01548 9.15375 4.65803 8.2289 4.88613 7.26396C4.88613 7.26396 5.03689 6.62618 5.48756 6.02927L4.28776 4.70949ZM5.92418 7.50935C5.98624 7.24684 6.10443 7.01741 6.22259 6.8378L8.99078 9.88281C8.48877 10.1353 8.00007 10.1335 8.00007 10.1335C7.33906 10.1334 6.79389 9.75958 6.79389 9.75958C6.24872 9.38578 6.01042 8.76921 6.01042 8.76921C5.77212 8.15264 5.92418 7.50935 5.92418 7.50935Z" fill="#71869D"/>
<path d="M6.53194 2.78743C6.39243 2.81079 6.26792 2.8886 6.18578 3.00376C6.12131 3.09416 6.08666 3.20242 6.08666 3.31345L6.08668 3.31786C6.08691 3.34589 6.08935 3.37386 6.09398 3.4015C6.11733 3.54101 6.19515 3.66553 6.31031 3.74766C6.4007 3.81213 6.50896 3.84678 6.61999 3.84678L6.62441 3.84676C6.65243 3.84653 6.6804 3.84409 6.70804 3.83946C7.34903 3.73217 7.99894 3.73345 7.99894 3.73345C11.1124 3.73345 13.3562 5.97724 13.3562 5.97724C14.0639 6.68493 14.5987 7.53429 14.5987 7.53429C14.7647 7.79791 14.8728 8.00069 14.8728 8.00069C14.7371 8.25661 14.5186 8.59073 14.5186 8.59073C13.8741 9.57644 13.0186 10.3418 13.0186 10.3418L13.0182 10.3423C12.905 10.4434 12.84 10.5884 12.84 10.7401C12.84 10.7465 12.8401 10.7529 12.8403 10.7592L12.8405 10.7624L12.8406 10.7656C12.8465 10.8879 12.8942 11.0044 12.9758 11.0957C13.077 11.2088 13.2216 11.2735 13.3733 11.2735C13.3818 11.2735 13.3903 11.2733 13.3988 11.2728C13.5211 11.267 13.6377 11.2193 13.7289 11.1376C14.6894 10.2784 15.4114 9.17451 15.4114 9.17451C15.7766 8.61601 15.954 8.21673 15.954 8.21673C16.0153 8.07882 16.0153 7.92141 15.954 7.78351C15.8051 7.44843 15.5013 6.96595 15.5013 6.96595C14.9028 6.01531 14.1105 5.22299 14.1105 5.22299C11.5542 2.66678 8.00105 2.66678 8.00105 2.66678C7.26156 2.66532 6.53194 2.78743 6.53194 2.78743Z" fill="#71869D"/>
<path d="M10.1223 7.79621C10.1223 7.79621 10.0563 7.08825 9.57782 6.56234C9.57782 6.56234 9.09931 6.03642 8.40072 5.90406C8.26174 5.87773 8.13892 5.79727 8.05927 5.68037C7.99968 5.59292 7.96745 5.48971 7.96669 5.38388L7.96667 5.38005C7.96667 5.34673 7.96979 5.31349 7.976 5.28076C8.02031 5.04689 8.21424 4.8707 8.45127 4.84895C8.46748 4.84746 8.48374 4.84671 8.50001 4.84671C8.53332 4.84671 8.56656 4.84984 8.59929 4.85604C8.59929 4.85604 9.64828 5.05479 10.3668 5.84449C10.3668 5.84449 11.0852 6.63438 11.1844 7.69723C11.1859 7.71316 11.1866 7.72914 11.1867 7.74514L11.1867 7.74672C11.1867 8.0221 10.977 8.2522 10.7028 8.27775C10.6869 8.27923 10.6709 8.28 10.6549 8.28005L10.6533 8.28005C10.378 8.28005 10.1479 8.0704 10.1223 7.79621Z" fill="#71869D"/>
</svg>
