<svg width="45" height="36" viewBox="0 0 45 36" fill="none" xmlns="http://www.w3.org/2000/svg">
<path fill-rule="evenodd" clip-rule="evenodd" d="M8.60991 0.490991C8.59391 0.473386 8.57748 0.456164 8.56066 0.43934C8.2968 0.175484 7.94408 0.0194467 7.57135 0.00169784L7.56687 0.00149131C7.54459 0.000497282 7.5223 0 7.5 0C7.12685 0 6.7671 0.139083 6.49099 0.39009C6.47339 0.406095 6.45616 0.422516 6.43934 0.43934C6.17548 0.703196 6.01945 1.05593 6.0017 1.42865L6.00149 1.43313C6.0005 1.45541 6 1.4777 6 1.5C6 1.87315 6.13908 2.2329 6.39009 2.50901L10.0251 6.50754C8.21545 7.66885 5.26898 9.84515 2.87783 12.9676C2.87783 12.9676 1.0071 15.4105 0.1287 17.392C-0.0431027 17.7796 -0.0428912 18.2217 0.129283 18.6091C0.129283 18.6091 0.548131 19.5515 1.40253 20.9085C1.40253 20.9085 3.08595 23.5822 5.31434 25.8106C5.31434 25.8106 12.5037 32.9999 22.4878 32.9999C22.4878 32.9999 27.4522 33.0403 32.2579 30.9636L36.3901 35.509C36.6744 35.8217 37.0774 36 37.5 36L37.5063 36C37.8773 35.9984 38.2345 35.8595 38.509 35.6099C38.8217 35.3256 39 34.9226 39 34.5L39 34.4937C38.9984 34.1227 38.8595 33.7655 38.6099 33.491L18.6061 11.4868C18.6037 11.4839 18.6012 11.481 18.5988 11.4781C18.5882 11.4657 18.5773 11.4533 18.5663 11.4412C18.5526 11.4261 18.5386 11.4114 18.5244 11.3969L8.60991 0.490991ZM12.0593 8.74517C8.09493 11.0892 5.25967 14.7916 5.25967 14.7916C3.90467 16.561 3.16703 17.9922 3.16703 17.9922C3.47188 18.5646 3.94122 19.3101 3.94122 19.3101C5.4453 21.6989 7.43566 23.6893 7.43566 23.6893C13.7463 29.9999 22.5122 30 22.5122 30C25.5168 30.0245 28.3279 29.2195 30.0874 28.576L27.3319 25.545C26.2491 26.2115 24.529 27.0078 22.4999 27.0001C22.4999 27.0001 19.7112 26.9998 17.4113 25.4228C17.4113 25.4228 15.1113 23.8458 14.106 21.2446C14.106 21.2446 13.1007 18.6435 13.7422 15.9296C13.7422 15.9296 14.1663 14.1358 15.4338 12.457L12.0593 8.74517ZM16.6618 16.6198C16.8363 15.8814 17.1687 15.2362 17.501 14.731L25.2865 23.2951C23.8746 24.0053 22.5002 24.0001 22.5002 24.0001C20.6411 23.9999 19.1078 22.9485 19.1078 22.9485C17.5745 21.8972 16.9043 20.1631 16.9043 20.1631C16.2341 18.429 16.6618 16.6198 16.6618 16.6198Z" fill="white"/>
<path d="M18.3711 3.33938C17.9787 3.40506 17.6285 3.62392 17.3975 3.9478C17.2162 4.20204 17.1187 4.50652 17.1187 4.8188L17.1188 4.83121C17.1194 4.91004 17.1263 4.98869 17.1393 5.06644C17.205 5.45881 17.4238 5.80901 17.7477 6.04001C18.002 6.22134 18.3064 6.3188 18.6187 6.3188L18.6311 6.31874C18.71 6.31809 18.7886 6.31123 18.8664 6.29821C20.6691 5.99644 22.497 6.00004 22.497 6.00004C31.2536 6.00005 37.5643 12.3107 37.5643 12.3107C39.5547 14.3011 41.0587 16.6899 41.0587 16.6899C41.5256 17.4313 41.8297 18.0017 41.8297 18.0017C41.4481 18.7214 40.8336 19.6611 40.8336 19.6611C39.0208 22.4334 36.6149 24.5861 36.6149 24.5861L36.6135 24.5873C36.2954 24.8719 36.1125 25.2795 36.1125 25.7063C36.1125 25.7242 36.1128 25.7422 36.1134 25.7601L36.1138 25.7691L36.1142 25.778C36.1306 26.1219 36.2649 26.4497 36.4945 26.7063C36.779 27.0245 37.1856 27.2063 37.6125 27.2063C37.6364 27.2063 37.6603 27.2057 37.6842 27.2046C38.0281 27.1881 38.3559 27.0538 38.6125 26.8243C41.314 24.4076 43.3444 21.303 43.3444 21.303C44.3716 19.7323 44.8707 18.6093 44.8707 18.6093C45.0431 18.2214 45.0431 17.7787 44.8707 17.3908C44.4518 16.4484 43.5974 15.0915 43.5974 15.0915C41.914 12.4178 39.6856 10.1894 39.6856 10.1894C32.4963 3.00005 22.5029 3.00005 22.5029 3.00005C20.4231 2.99594 18.3711 3.33938 18.3711 3.33938Z" fill="white"/>
<path d="M28.469 17.4265C28.469 17.4265 28.2834 15.4354 26.9376 13.9563C26.9376 13.9563 25.5918 12.4772 23.627 12.1049C23.2361 12.0308 22.8907 11.8045 22.6667 11.4758C22.4991 11.2298 22.4084 10.9395 22.4063 10.6419L22.4062 10.6311C22.4062 10.5374 22.415 10.4439 22.4325 10.3519C22.5571 9.6941 23.1025 9.19855 23.7692 9.13738C23.8148 9.1332 23.8605 9.1311 23.9062 9.1311C23.9999 9.1311 24.0934 9.13988 24.1855 9.15732C24.1855 9.15732 27.1358 9.71632 29.1566 11.9373C29.1566 11.9373 31.1772 14.1589 31.456 17.1482C31.4602 17.193 31.4624 17.2379 31.4625 17.2829L31.4625 17.2874C31.4625 18.0619 30.8728 18.709 30.1017 18.7809C30.0569 18.7851 30.0119 18.7872 29.9669 18.7873L29.9625 18.7874C29.188 18.7874 28.5408 18.1977 28.469 17.4265Z" fill="white"/>
</svg>
