<svg width="21" height="21" viewBox="0 0 21 21" fill="none" xmlns="http://www.w3.org/2000/svg">
<path fill-rule="evenodd" clip-rule="evenodd" d="M7.05091 18.8137C7.05091 18.8137 6.72483 18.6771 5.71043 18.6632C5.71043 18.6632 4.84312 18.6514 4.41651 18.5734C4.41651 18.5734 3.57812 18.42 3.07905 17.921C3.07905 17.921 2.57696 17.4189 2.42133 16.5661C2.42133 16.5661 2.34221 16.1326 2.32849 15.2524C2.32849 15.2524 2.31292 14.2534 2.18564 13.9474C2.18564 13.9474 2.0557 13.635 1.34774 12.8943C1.34774 12.8943 0.738935 12.2574 0.491026 11.8991C0.491026 11.8991 0 11.1896 0 10.5C0 10.5 0 9.81344 0.483129 9.11416C0.483129 9.11416 0.727334 8.7607 1.32932 8.13254C1.32932 8.13254 2.04698 7.38368 2.18634 7.0509C2.18634 7.0509 2.32291 6.72483 2.33677 5.71043C2.33677 5.71043 2.34863 4.84313 2.42665 4.41651C2.42665 4.41651 2.57997 3.57812 3.07905 3.07905C3.07905 3.07905 3.58113 2.57696 4.43386 2.42133C4.43386 2.42133 4.86737 2.34221 5.74756 2.32849C5.74756 2.32849 6.74659 2.31292 7.0526 2.18564C7.0526 2.18564 7.365 2.0557 8.10569 1.34774C8.10569 1.34774 8.74264 0.738937 9.10087 0.491026C9.10087 0.491026 9.81041 0 10.5 0C10.5 0 11.1866 0 11.8858 0.483129C11.8858 0.483129 12.2393 0.727334 12.8675 1.32932C12.8675 1.32932 13.6163 2.04698 13.9491 2.18634C13.9491 2.18634 14.2752 2.32291 15.2896 2.33677C15.2896 2.33677 16.1569 2.34863 16.5835 2.42665C16.5835 2.42665 17.4219 2.57997 17.921 3.07904C17.921 3.07904 18.423 3.58113 18.5787 4.43386C18.5787 4.43386 18.6578 4.86739 18.6715 5.74756C18.6715 5.74756 18.6871 6.74658 18.8144 7.0526C18.8144 7.0526 18.9443 7.365 19.6523 8.10569C19.6523 8.10569 20.2611 8.74264 20.509 9.10087C20.509 9.10087 21 9.81041 21 10.5C21 10.5 21 11.1866 20.5169 11.8858C20.5169 11.8858 20.2727 12.2393 19.6707 12.8675C19.6707 12.8675 18.953 13.6163 18.8137 13.9491C18.8137 13.9491 18.6771 14.2752 18.6632 15.2896C18.6632 15.2896 18.6514 16.1569 18.5734 16.5835C18.5734 16.5835 18.42 17.4219 17.921 17.921C17.921 17.921 17.4189 18.423 16.5661 18.5787C16.5661 18.5787 16.1326 18.6578 15.2524 18.6715C15.2524 18.6715 14.2534 18.6871 13.9474 18.8144C13.9474 18.8144 13.635 18.9443 12.8943 19.6523C12.8943 19.6523 12.2574 20.2611 11.8991 20.509C11.8991 20.509 11.1896 21 10.5 21C10.5 21 9.81344 21 9.11416 20.5169C9.11416 20.5169 8.7607 20.2727 8.13254 19.6707C8.13254 19.6707 7.38368 18.953 7.05091 18.8137ZM7.63035 17.4301C7.63035 17.4301 8.22025 17.6772 9.1704 18.5877C9.1704 18.5877 10.1224 19.5 10.5 19.5C10.5 19.5 10.8827 19.5 11.8579 18.5679C11.8579 18.5679 12.8007 17.6667 13.3713 17.4294C13.3713 17.4294 13.9427 17.1917 15.2291 17.1717C15.2291 17.1717 16.5698 17.1508 16.8603 16.8603C16.8603 16.8603 17.1455 16.5751 17.1634 15.2691C17.1634 15.2691 17.1812 13.9639 17.4301 13.3697C17.4301 13.3697 17.6771 12.7797 18.5877 11.8296C18.5877 11.8296 19.5 10.8776 19.5 10.5C19.5 10.5 19.5 10.1173 18.5679 9.14213C18.5679 9.14213 17.6667 8.19927 17.4294 7.62865C17.4294 7.62865 17.1917 7.0573 17.1717 5.77094C17.1717 5.77094 17.1508 4.43021 16.8603 4.1397C16.8603 4.1397 16.5751 3.85449 15.2691 3.83663C15.2691 3.83663 13.9639 3.81879 13.3697 3.56991C13.3697 3.56991 12.7797 3.32285 11.8296 2.4123C11.8296 2.4123 10.8776 1.5 10.5 1.5C10.5 1.5 10.1173 1.5 9.14213 2.43208C9.14213 2.43208 8.19927 3.33328 7.62865 3.57061C7.62865 3.57061 7.0573 3.80825 5.77094 3.82831C5.77094 3.82831 4.4302 3.84921 4.1397 4.13971C4.1397 4.13971 3.85449 4.42492 3.83663 5.73093C3.83663 5.73093 3.81879 7.03607 3.56991 7.63035C3.56991 7.63035 3.32285 8.22026 2.4123 9.1704C2.4123 9.1704 1.5 10.1224 1.5 10.5C1.5 10.5 1.5 10.8827 2.43208 11.8579C2.43208 11.8579 3.33328 12.8007 3.57061 13.3713C3.57061 13.3713 3.80825 13.9427 3.82831 15.2291C3.82831 15.2291 3.84921 16.5698 4.13971 16.8603C4.13971 16.8603 4.42493 17.1455 5.73093 17.1634C5.73093 17.1634 7.03608 17.1812 7.63035 17.4301Z" fill="#28A879"/>
<path d="M6.89316 10.3328C6.75362 10.1994 6.56802 10.125 6.375 10.125C6.37484 10.125 6.35799 10.1252 6.35799 10.1252C6.15913 10.1297 5.9702 10.213 5.83278 10.3568C5.69942 10.4964 5.625 10.682 5.625 10.875L5.62519 10.892C5.6297 11.0909 5.71303 11.2798 5.85684 11.4172L8.60371 14.0422C8.89343 14.3191 9.34962 14.3193 9.63958 14.0427L15.1425 8.79284C15.2864 8.65554 15.3701 8.46651 15.3748 8.26765C15.3751 8.25564 15.3751 8.24362 15.3748 8.23161C15.3702 8.04522 15.2964 7.86721 15.1677 7.7323C15.0261 7.58394 14.83 7.5 14.625 7.5L14.6038 7.5003C14.4184 7.50553 14.2415 7.5793 14.1073 7.70734L9.12232 12.463L6.89316 10.3328Z" fill="#28A879"/>
</svg>
