<svg width="16" height="16" viewBox="0 0 16 16" fill="none" xmlns="http://www.w3.org/2000/svg">
<path fill-rule="evenodd" clip-rule="evenodd" d="M3.0613 1.1773C3.05561 1.17094 3.04977 1.16473 3.04379 1.15865C2.94998 1.06337 2.82456 1.00702 2.69204 1.00061L2.69045 1.00054C2.68252 1.00018 2.6746 1 2.66667 1C2.53399 1 2.40608 1.05022 2.30791 1.14087C2.30165 1.14665 2.29553 1.15258 2.28955 1.15865C2.19573 1.25393 2.14025 1.38131 2.13394 1.5159L2.13387 1.51752C2.13351 1.52556 2.13334 1.53361 2.13334 1.54167C2.13334 1.67641 2.18279 1.80633 2.27203 1.90603L3.56449 3.34995C2.92105 3.76931 1.87342 4.55519 1.02323 5.68276C1.02323 5.68276 0.358079 6.56491 0.0457601 7.28046C-0.0153254 7.42041 -0.0152502 7.58007 0.0459672 7.71996C0.0459672 7.71996 0.194891 8.06028 0.498676 8.5503C0.498676 8.5503 1.09723 9.51579 1.88954 10.3205C1.88954 10.3205 4.44576 12.9166 7.99566 12.9166C7.99566 12.9166 9.76078 12.9312 11.4695 12.1813L12.9387 13.8227C13.0398 13.9356 13.1831 14 13.3333 14L13.3356 14C13.4675 13.9994 13.5945 13.9493 13.6921 13.8591C13.8033 13.7565 13.8667 13.611 13.8667 13.4583L13.8667 13.4561C13.8661 13.3221 13.8167 13.1931 13.728 13.094L6.61551 5.14801C6.61465 5.14697 6.61378 5.14592 6.61291 5.14488C6.60913 5.14037 6.60528 5.13592 6.60135 5.13153C6.59648 5.12609 6.59152 5.12077 6.58646 5.11555L3.0613 1.1773ZM4.28776 4.15798C2.8782 5.00442 1.87011 6.34141 1.87011 6.34141C1.38833 6.98037 1.12605 7.49717 1.12605 7.49717C1.23445 7.7039 1.40133 7.97308 1.40133 7.97308C1.93611 8.83572 2.64379 9.55446 2.64379 9.55446C4.88759 11.8333 8.00435 11.8333 8.00435 11.8333C9.07266 11.8422 10.0722 11.5515 10.6978 11.3191L9.71803 10.2246C9.33303 10.4652 8.72143 10.7528 7.99996 10.75C7.99996 10.75 7.00843 10.7499 6.19068 10.1804C6.19068 10.1804 5.37293 9.61097 5.01548 8.67167C5.01548 8.67167 4.65803 7.73237 4.88613 6.75236C4.88613 6.75236 5.03689 6.10461 5.48756 5.49838L4.28776 4.15798ZM5.92418 7.00158C5.98624 6.73496 6.10443 6.50195 6.22259 6.31954L8.99078 9.41212C8.48877 9.66858 8.00007 9.66669 8.00007 9.66669C7.33906 9.66662 6.79389 9.28697 6.79389 9.28697C6.24872 8.90732 6.01042 8.28112 6.01042 8.28112C5.77212 7.65492 5.92418 7.00158 5.92418 7.00158Z" fill="white"/>
<path d="M6.53194 2.20589C6.39243 2.2296 6.26792 2.30864 6.18578 2.4256C6.12131 2.5174 6.08666 2.62736 6.08666 2.74012L6.08668 2.7446C6.08691 2.77307 6.08935 2.80147 6.09398 2.82955C6.11733 2.97124 6.19515 3.0977 6.31031 3.18112C6.4007 3.24659 6.50896 3.28179 6.61999 3.28179L6.62441 3.28177C6.65243 3.28153 6.6804 3.27905 6.70804 3.27435C7.34903 3.16538 7.99894 3.16668 7.99894 3.16668C11.1124 3.16668 13.3562 5.44553 13.3562 5.44553C14.0639 6.16428 14.5987 7.02691 14.5987 7.02691C14.7647 7.29464 14.8728 7.5006 14.8728 7.5006C14.7371 7.76052 14.5186 8.09986 14.5186 8.09986C13.8741 9.10097 13.0186 9.87832 13.0186 9.87832L13.0182 9.87875C12.905 9.98151 12.84 10.1287 12.84 10.2828C12.84 10.2893 12.8401 10.2958 12.8403 10.3023L12.8405 10.3055L12.8406 10.3087C12.8465 10.4329 12.8942 10.5513 12.9758 10.644C13.077 10.7588 13.2216 10.8245 13.3733 10.8245C13.3818 10.8245 13.3903 10.8243 13.3988 10.8239C13.5211 10.8179 13.6377 10.7694 13.7289 10.6866C14.6894 9.81387 15.4114 8.69275 15.4114 8.69275C15.7766 8.12554 15.954 7.72001 15.954 7.72001C16.0153 7.57995 16.0153 7.42008 15.954 7.28003C15.8051 6.9397 15.5013 6.44969 15.5013 6.44969C14.9028 5.4842 14.1105 4.6795 14.1105 4.6795C11.5542 2.08335 8.00105 2.08335 8.00105 2.08335C7.26156 2.08187 6.53194 2.20589 6.53194 2.20589Z" fill="white"/>
<path d="M10.1223 7.29292C10.1223 7.29292 10.0563 6.5739 9.57782 6.03977C9.57782 6.03977 9.09931 5.50564 8.40072 5.37121C8.26174 5.34446 8.13892 5.26274 8.05927 5.14403C7.99968 5.0552 7.96745 4.95038 7.96669 4.8429L7.96667 4.83901C7.96667 4.80518 7.96979 4.77142 7.976 4.73817C8.02031 4.50065 8.21424 4.3217 8.45127 4.29961C8.46748 4.2981 8.48374 4.29734 8.50001 4.29734C8.53332 4.29734 8.56656 4.30051 8.59929 4.30681C8.59929 4.30681 9.64828 4.50867 10.3668 5.31071C10.3668 5.31071 11.0852 6.11294 11.1844 7.19239C11.1859 7.20857 11.1866 7.22481 11.1867 7.24106L11.1867 7.24266C11.1867 7.52234 10.977 7.75603 10.7028 7.78199C10.6869 7.78349 10.6709 7.78427 10.6549 7.78432L10.6533 7.78432C10.378 7.78432 10.1479 7.57139 10.1223 7.29292Z" fill="white"/>
</svg>
