<svg width="14" height="12" viewBox="0 0 14 12" fill="none" xmlns="http://www.w3.org/2000/svg">
<path fill-rule="evenodd" clip-rule="evenodd" d="M1.93482 5.83876C1.88957 5.89648 1.84835 5.95055 1.81126 6.00033C1.84835 6.0501 1.88957 6.10417 1.93482 6.16189C2.18592 6.48213 2.55748 6.90942 3.0367 7.33539C4.00226 8.19366 5.35058 9.00033 7.00004 9.00033C8.6495 9.00033 9.99782 8.19366 10.9634 7.33539C11.4426 6.90942 11.8142 6.48213 12.0653 6.16189C12.1105 6.10417 12.1517 6.0501 12.1888 6.00033C12.1517 5.95055 12.1105 5.89648 12.0653 5.83876C11.8142 5.51852 11.4426 5.09123 10.9634 4.66526C9.99782 3.80699 8.6495 3.00033 7.00004 3.00033C5.35058 3.00033 4.00226 3.80699 3.0367 4.66526C2.55748 5.09123 2.18592 5.51852 1.93482 5.83876ZM13.568 5.65119C13.5681 5.65143 13.5683 5.65165 13 6.00033C13.5683 6.349 13.5681 6.34922 13.568 6.34946L13.5676 6.35L13.5668 6.35133L13.5646 6.35499L13.5575 6.36626C13.5517 6.37548 13.5436 6.38812 13.5334 6.40393C13.5129 6.43556 13.4836 6.47994 13.4456 6.53526C13.3697 6.64582 13.2589 6.8005 13.1145 6.9846C12.8265 7.35185 12.4012 7.84123 11.8492 8.33193C10.7523 9.30699 9.10058 10.3337 7.00004 10.3337C4.8995 10.3337 3.24782 9.30699 2.15088 8.33193C1.59885 7.84123 1.17353 7.35185 0.885571 6.9846C0.741227 6.8005 0.630398 6.64582 0.554475 6.53526C0.516489 6.47994 0.487166 6.43556 0.466682 6.40393C0.456438 6.38812 0.448397 6.37548 0.442582 6.36626L0.435529 6.35499L0.433258 6.35133L0.432437 6.35L0.432105 6.34946C0.431961 6.34922 0.431826 6.349 1.00004 6.00033C0.431826 5.65165 0.431961 5.65143 0.432105 5.65119L0.432437 5.65065L0.433258 5.64932L0.435529 5.64566L0.442582 5.6344C0.448397 5.62517 0.456438 5.61253 0.466682 5.59672C0.487166 5.56509 0.516489 5.52071 0.554475 5.46539C0.630398 5.35483 0.741227 5.20015 0.885571 5.01605C1.17353 4.6488 1.59885 4.15942 2.15088 3.66872C3.24782 2.69366 4.8995 1.66699 7.00004 1.66699C9.10058 1.66699 10.7523 2.69366 11.8492 3.66872C12.4012 4.15942 12.8265 4.6488 13.1145 5.01605C13.2589 5.20015 13.3697 5.35483 13.4456 5.46539C13.4836 5.52071 13.5129 5.56509 13.5334 5.59672C13.5436 5.61253 13.5517 5.62517 13.5575 5.6344L13.5646 5.64566L13.5668 5.64932L13.5676 5.65065L13.568 5.65119ZM13 6.00033L13.5683 6.349C13.6995 6.13508 13.6995 5.86557 13.5683 5.65165L13 6.00033ZM1.00004 6.00033L0.431826 5.65165C0.300557 5.86557 0.300557 6.13508 0.431826 6.349L1.00004 6.00033ZM7.00004 8.00033C8.10461 8.00033 9.00004 7.1049 9.00004 6.00033C9.00004 4.89576 8.10461 4.00033 7.00004 4.00033C5.89547 4.00033 5.00004 4.89576 5.00004 6.00033C5.00004 7.1049 5.89547 8.00033 7.00004 8.00033Z" fill="#E10D0D"/>
<path d="M0.99939 1L12.9994 11" stroke="#E10D0D" stroke-width="1.5" stroke-linecap="round"/>
</svg>
