<svg width="16" height="16" viewBox="0 0 16 16" fill="none" xmlns="http://www.w3.org/2000/svg">
<path fill-rule="evenodd" clip-rule="evenodd" d="M5.25 1C3.59315 1 2.25 2.34315 2.25 4V12C2.25 13.6569 3.59315 15 5.25 15H10.75C12.4069 15 13.75 13.6569 13.75 12V5.9714C13.75 5.22907 13.4748 4.51309 12.9775 3.9619L11.1991 1.9905C10.7391 1.48064 10.1219 1.14772 9.45349 1.03894C9.29524 1.01319 9.13413 1 8.97156 1H5.25ZM8.25 2.5H5.25C4.42157 2.5 3.75 3.17157 3.75 4V12C3.75 12.8284 4.42157 13.5 5.25 13.5H10.75C11.5784 13.5 12.25 12.8284 12.25 12V6.75H11C9.48122 6.75 8.25 5.51878 8.25 4V2.5ZM12.0651 5.25H11C10.3096 5.25 9.75 4.69036 9.75 4V2.7178C9.87346 2.79274 9.98664 2.88585 10.0853 2.99525L11.8638 4.96665C11.9422 5.05362 12.0096 5.1488 12.0651 5.25ZM4.79082 8.89123C5.07682 8.59161 5.55157 8.58057 5.85119 8.86657L6.98781 9.95153L8.96967 7.96967C9.26256 7.67678 9.73744 7.67678 10.0303 7.96967C10.3232 8.26256 10.3232 8.73744 10.0303 9.03033L7.53033 11.5303C7.24224 11.8184 6.77685 11.8238 6.48214 11.5425L4.81548 9.95161C4.51585 9.6656 4.50481 9.19086 4.79082 8.89123Z" fill="#ADBFDF"/>
</svg>
