<svg width="16" height="16" viewBox="0 0 16 16" fill="none" xmlns="http://www.w3.org/2000/svg">
<path fill-rule="evenodd" clip-rule="evenodd" d="M7.77858 2.16682C7.67093 2.23851 7.6 2.36097 7.6 2.5C7.6 2.72091 7.77909 2.9 8 2.9C8.22091 2.9 8.4 2.72091 8.4 2.5C8.4 2.36097 8.32907 2.23851 8.22142 2.16682C8.15766 2.12454 8.0813 2.1 8 2.1C7.9187 2.1 7.84234 2.12454 7.77858 2.16682ZM4 3.6H3.5C3.00294 3.6 2.6 4.00294 2.6 4.5V12.5C2.6 12.9971 3.00294 13.4 3.5 13.4H12.5C12.9971 13.4 13.4 12.9971 13.4 12.5V4.5C13.4 4.00294 12.9971 3.6 12.5 3.6H12V3.69999C12 4.41796 11.418 4.99999 10.7 4.99999H5.3C4.58203 4.99999 4 4.41796 4 3.69999V3.6ZM8 0.5C8.93192 0.5 9.71497 1.13739 9.93699 2H12.5C13.8807 2 15 3.11929 15 4.5V12.5C15 13.8807 13.8807 15 12.5 15H3.5C2.11929 15 1 13.8807 1 12.5V4.5C1 3.11929 2.11929 2 3.5 2H6.06301C6.28503 1.13739 7.06808 0.5 8 0.5ZM8 9.2C8.82714 9.2 9.5 8.52714 9.5 7.7C9.5 6.87286 8.82714 6.2 8 6.2C7.17286 6.2 6.5 6.87286 6.5 7.7C6.5 8.52714 7.17286 9.2 8 9.2ZM8 9.59937C6.80057 9.59937 5 9.97089 5 10.8997V11.0854C5 11.701 5.36882 12.2 6 12.2H10C10.6312 12.2 11 11.701 11 11.0854V10.8997C11 9.97089 9.19943 9.59937 8 9.59937Z" fill="#121922"/>
</svg>
