<svg width="17" height="16" viewBox="0 0 17 16" fill="none" xmlns="http://www.w3.org/2000/svg">
<path fill-rule="evenodd" clip-rule="evenodd" d="M14.0282 1.75489C14.0282 1.75489 13.7668 1.68802 13.5078 1.76246L13.5058 1.76304L1.86148 5.0427C1.86148 5.0427 1.55672 5.12602 1.35516 5.36932C1.35516 5.36932 1.15359 5.61261 1.12839 5.92755C1.12839 5.92755 1.1032 6.24249 1.26352 6.51474C1.26352 6.51474 1.42385 6.78698 1.70451 6.91446L7.05407 9.44549L9.5819 14.7881C9.5819 14.7881 9.71261 15.0757 9.98485 15.2361C9.98485 15.2361 10.2571 15.3964 10.572 15.3712C10.572 15.3712 10.887 15.346 11.1303 15.1444C11.1303 15.1444 11.3736 14.9429 11.4559 14.6418L14.7357 2.9966C14.7357 2.9966 14.8122 2.73522 14.7447 2.47137C14.7447 2.47137 14.6772 2.20753 14.4846 2.01496C14.4846 2.01496 14.2921 1.82239 14.0282 1.75489ZM2.12521 6.0073L13.7729 2.72671L10.4933 14.3707L10.4923 14.3744L7.95781 9.01741C7.95781 9.01741 7.80728 8.69232 7.47846 8.54004L2.13219 6.01053L2.12521 6.0073Z" fill="white"/>
<path d="M10.6092 6.59752C10.703 6.50375 10.7558 6.37638 10.7558 6.24377C10.7558 6.11117 10.7032 5.98399 10.6094 5.89022L10.6051 5.88596C10.5117 5.79497 10.3862 5.74377 10.2558 5.74377C10.2408 5.74377 10.2259 5.74445 10.2109 5.7458C10.0943 5.75632 9.98509 5.80743 9.90229 5.89022L7.07748 8.71503C6.98371 8.8088 6.93085 8.93617 6.93085 9.06877C6.93085 9.07678 6.93104 9.08479 6.93142 9.09279C6.9374 9.21695 6.9894 9.33443 7.07729 9.42233C7.17106 9.5161 7.29824 9.56877 7.43085 9.56877C7.56346 9.56877 7.69063 9.5161 7.7844 9.42233L10.6092 6.59752Z" fill="white"/>
</svg>
