<svg width="16" height="16" viewBox="0 0 16 16" fill="none" xmlns="http://www.w3.org/2000/svg">
<g clip-path="url(#clip0_4378_5657)">
<path fill-rule="evenodd" clip-rule="evenodd" d="M8.00081 2.6937L2.03961 12.9H13.962L8.00081 2.6937ZM8.86251 0.996617C8.47577 0.334461 7.52586 0.334461 7.13911 0.996617L0.139817 12.9802C-0.252729 13.6523 0.227899 14.5 1.00152 14.5H15.0001C15.7737 14.5 16.2544 13.6523 15.8618 12.9802L8.86251 0.996617ZM9 11.5C9 12.0523 8.55228 12.5 8 12.5C7.44772 12.5 7 12.0523 7 11.5C7 10.9477 7.44772 10.5 8 10.5C8.55228 10.5 9 10.9477 9 11.5ZM8.00001 5.29999C7.55818 5.29999 7.20001 5.65816 7.20001 6.09999V8.99999C7.20001 9.44182 7.55818 9.79999 8.00001 9.79999C8.44184 9.79999 8.80001 9.44182 8.80001 8.99999V6.09999C8.80001 5.65816 8.44184 5.29999 8.00001 5.29999Z" fill="#E10D0D"/>
</g>
<defs>
<clipPath id="clip0_4378_5657">
<rect width="16" height="16" fill="white"/>
</clipPath>
</defs>
</svg>
