<svg width="16" height="16" viewBox="0 0 16 16" fill="none" xmlns="http://www.w3.org/2000/svg">
<path d="M8.20173 9.01684C7.78855 8.84524 7.47278 8.52829 7.47278 8.52829C7.37919 8.43435 7.25211 8.38143 7.1195 8.38118L7.11857 8.38118C7.11087 8.38118 7.10317 8.38136 7.09548 8.38171C6.97131 8.38745 6.85373 8.43924 6.76568 8.52697C6.6715 8.62079 6.61857 8.74825 6.61857 8.88118C6.61857 8.8895 6.61877 8.89781 6.61919 8.90612C6.62536 9.02963 6.67707 9.14647 6.76435 9.23407C7.22085 9.69228 7.81819 9.94036 7.81819 9.94036C8.41552 10.1884 9.06232 10.1884 9.06232 10.1884C9.70911 10.1884 10.3064 9.94036 10.3064 9.94036C10.9038 9.69228 11.3603 9.23407 11.3603 9.23407L13.1277 7.47286C13.1334 7.46721 13.139 7.46141 13.1444 7.45549C14.0233 6.49112 13.9931 5.18663 13.9931 5.18663C13.9629 3.88214 13.0403 2.95948 13.0403 2.95948C12.1176 2.03682 10.8131 2.00662 10.8131 2.00662C9.50863 1.97642 8.54425 2.85539 8.54425 2.85539C8.53855 2.86059 8.53297 2.86592 8.52751 2.87138L7.29001 4.10888C7.19625 4.20264 7.14357 4.32982 7.14357 4.46243C7.14357 4.47044 7.14376 4.47845 7.14415 4.48645C7.15012 4.61061 7.20212 4.72809 7.29001 4.81598C7.38378 4.90975 7.51096 4.96243 7.64357 4.96243C7.77618 4.96243 7.90335 4.90975 7.99712 4.81598L9.22608 3.58703C9.89163 2.98555 10.79 3.00635 10.79 3.00635C11.6938 3.02728 12.3332 3.66659 12.3332 3.66659C12.9725 4.3059 12.9934 5.20978 12.9934 5.20978C13.0142 6.10791 12.413 6.77336 12.413 6.77336L10.6519 8.52829C10.3361 8.84524 9.9229 9.01684 9.9229 9.01684C9.50972 9.18844 9.06232 9.18844 9.06232 9.18844C8.61492 9.18844 8.20173 9.01684 8.20173 9.01684Z" fill="#71869D"/>
<path d="M7.79787 6.983C8.21105 7.1546 8.52682 7.47155 8.52682 7.47155C8.62064 7.56573 8.7481 7.61866 8.88103 7.61866C8.88935 7.61866 8.89766 7.61845 8.90597 7.61804C9.02948 7.61187 9.14632 7.56016 9.23392 7.47288C9.32787 7.37928 9.38078 7.25221 9.38103 7.1196L9.38103 7.11866C9.38103 7.11096 9.38086 7.10327 9.3805 7.09558C9.37476 6.97141 9.32298 6.85383 9.23525 6.76577C8.77875 6.30756 8.18141 6.05948 8.18141 6.05948C7.58408 5.8114 6.93728 5.8114 6.93728 5.8114C6.29048 5.8114 5.69315 6.05948 5.69315 6.05948C5.09582 6.30756 4.63932 6.76577 4.63932 6.76577L2.87186 8.52698C2.86618 8.53264 2.86064 8.53843 2.85525 8.54435C1.97627 9.50872 2.00647 10.8132 2.00647 10.8132C2.03667 12.1177 2.95933 13.0404 2.95933 13.0404C3.88199 13.963 5.18648 13.9932 5.18648 13.9932C6.49097 14.0234 7.45535 13.1444 7.45535 13.1444C7.46105 13.1393 7.46663 13.1339 7.47209 13.1285L8.70933 11.8912C8.8031 11.7975 8.85603 11.67 8.85603 11.5374C8.85603 11.4048 8.80335 11.2776 8.70959 11.1839C8.61582 11.0901 8.48864 11.0374 8.35603 11.0374C8.22342 11.0374 8.09625 11.0901 8.00248 11.1839L6.77353 12.4128C6.10797 13.0143 5.20963 12.9935 5.20963 12.9935C4.30575 12.9726 3.66644 12.3333 3.66644 12.3333C3.02713 11.6939 3.0062 10.7901 3.0062 10.7901C2.98541 9.89194 3.58659 9.22649 3.58659 9.22649L5.34775 7.47155C5.66351 7.1546 6.0767 6.983 6.0767 6.983C6.48988 6.8114 6.93728 6.8114 6.93728 6.8114C7.38468 6.8114 7.79787 6.983 7.79787 6.983Z" fill="#71869D"/>
</svg>
