<svg width="16" height="16" viewBox="0 0 16 16" fill="none" xmlns="http://www.w3.org/2000/svg">
<path d="M12.5 5.70711V8C12.5 8.27614 12.7239 8.5 13 8.5C13.2761 8.5 13.5 8.27614 13.5 8V5.5C13.5 5.36739 13.4473 5.24021 13.3536 5.14645L9.85355 1.64645C9.75979 1.55268 9.63261 1.5 9.5 1.5L3.5 1.5C3.08579 1.5 2.79289 1.79289 2.79289 1.79289C2.5 2.08579 2.5 2.5 2.5 2.5V8C2.5 8.27614 2.72386 8.5 3 8.5C3.27614 8.5 3.5 8.27614 3.5 8V2.5H9.29289L12.5 5.70711Z" fill="#121922"/>
<path d="M9.5 6H13C13.2761 6 13.5 5.77614 13.5 5.5C13.5 5.22386 13.2761 5 13 5H10V2C10 1.72386 9.77614 1.5 9.5 1.5C9.22386 1.5 9 1.72386 9 2V5.5C9 5.77614 9.22386 6 9.5 6Z" fill="#121922"/>
<path fill-rule="evenodd" clip-rule="evenodd" d="M2.5 13.5V10.5C2.5 10.2239 2.72386 10 3 10H4C4 10 4.62132 10 5.06066 10.4393C5.06066 10.4393 5.5 10.8787 5.5 11.5C5.5 11.5 5.5 12.1213 5.06066 12.5607C5.06066 12.5607 4.62132 13 4 13H3.5V13.5C3.5 13.7761 3.27614 14 3 14C2.72386 14 2.5 13.7761 2.5 13.5ZM4 12H3.5V11H4C4 11 4.20711 11 4.35355 11.1464C4.35355 11.1464 4.5 11.2929 4.5 11.5C4.5 11.5 4.5 11.7071 4.35355 11.8536C4.35355 11.8536 4.20711 12 4 12Z" fill="#121922"/>
<path d="M11.25 10.5V13.5C11.25 13.7761 11.4739 14 11.75 14C12.0261 14 12.25 13.7761 12.25 13.5V11H13.5C13.7761 11 14 10.7761 14 10.5C14 10.2239 13.7761 10 13.5 10H11.75C11.4739 10 11.25 10.2239 11.25 10.5Z" fill="#121922"/>
<path d="M13.25 11.75H11.75C11.4739 11.75 11.25 11.9739 11.25 12.25C11.25 12.5261 11.4739 12.75 11.75 12.75H13.25C13.5261 12.75 13.75 12.5261 13.75 12.25C13.75 11.9739 13.5261 11.75 13.25 11.75Z" fill="#121922"/>
<path fill-rule="evenodd" clip-rule="evenodd" d="M7.125 14C6.84886 14 6.625 13.7761 6.625 13.5V10.5C6.625 10.2239 6.84886 10 7.125 10H8C8 10 8.82843 10 9.41421 10.5858C9.41421 10.5858 10 11.1716 10 12C10 12 10 12.8284 9.41421 13.4142C9.41421 13.4142 8.82843 14 8 14H7.125ZM8 13H7.625V11H8C8 11 8.41421 11 8.70711 11.2929C8.70711 11.2929 9 11.5858 9 12C9 12 9 12.4142 8.70711 12.7071C8.70711 12.7071 8.41421 13 8 13Z" fill="#121922"/>
</svg>
