<svg width="24" height="24" viewBox="0 0 24 24" fill="none" xmlns="http://www.w3.org/2000/svg">
<path fill-rule="evenodd" clip-rule="evenodd" d="M5 6H19C19.1195 6 19.234 6.02095 19.3402 6.05936L12.5433 10.4574C12.2127 10.6713 11.7873 10.6713 11.4567 10.4574L4.65978 6.05936C4.76598 6.02095 4.88055 6 5 6ZM4 8.01462V17C4 17.5523 4.44772 18 5 18H19C19.5523 18 20 17.5523 20 17V8.01462L13.6298 12.1365C12.638 12.7783 11.362 12.7783 10.3702 12.1365L4 8.01462ZM22 7C22 5.34315 20.6569 4 19 4H5C3.34315 4 2 5.34315 2 7V17C2 18.6569 3.34315 20 5 20H19C20.6569 20 22 18.6569 22 17V7Z" fill="#002CFB"/>
</svg>
