<svg width="16" height="16" viewBox="0 0 16 16" fill="none" xmlns="http://www.w3.org/2000/svg">
<path fill-rule="evenodd" clip-rule="evenodd" d="M7.99922 1.44922C8.44105 1.44922 8.79922 1.80739 8.79922 2.24922V8.70293L11.214 6.52958C11.5425 6.23402 12.0483 6.26064 12.3439 6.58905C12.6394 6.91746 12.6128 7.42329 12.2844 7.71885L8.53439 11.0939C8.23015 11.3677 7.76829 11.3677 7.46405 11.0939L3.71405 7.71885C3.38564 7.42329 3.35902 6.91746 3.65458 6.58905C3.95015 6.26064 4.45598 6.23402 4.78439 6.52958L7.19922 8.70293V2.24922C7.19922 1.80739 7.55739 1.44922 7.99922 1.44922ZM1.99922 10.5742C2.44105 10.5742 2.79922 10.9324 2.79922 11.3742V12.4992C2.79922 12.8858 3.11262 13.1992 3.49922 13.1992H12.4992C12.8858 13.1992 13.1992 12.8858 13.1992 12.4992V11.3742C13.1992 10.9324 13.5574 10.5742 13.9992 10.5742C14.441 10.5742 14.7992 10.9324 14.7992 11.3742V12.4992C14.7992 13.7695 13.7695 14.7992 12.4992 14.7992H3.49922C2.22896 14.7992 1.19922 13.7695 1.19922 12.4992V11.3742C1.19922 10.9324 1.55739 10.5742 1.99922 10.5742Z" fill="#121922"/>
</svg>
