<svg width="10" height="12" viewBox="0 0 10 12" fill="none" xmlns="http://www.w3.org/2000/svg">
<path d="M5.90909 6.90909H0V5.65909H5.90909C6.45455 5.65909 6.9053 5.56439 7.26136 5.375C7.61742 5.18182 7.88258 4.92045 8.05682 4.59091C8.23106 4.25758 8.31818 3.87879 8.31818 3.45455C8.31818 3.0303 8.23106 2.65341 8.05682 2.32386C7.88258 1.99053 7.61742 1.72917 7.26136 1.53977C6.9053 1.34659 6.45455 1.25 5.90909 1.25H3.25V11.6364H1.84091V0H5.90909C6.77273 0 7.48485 0.157197 8.04545 0.471591C8.60606 0.785985 9.02273 1.20455 9.29545 1.72727C9.56818 2.25 9.70455 2.82576 9.70455 3.45455C9.70455 4.08333 9.56818 4.65909 9.29545 5.18182C9.02273 5.70455 8.60606 6.12311 8.04545 6.4375C7.48485 6.75189 6.77273 6.90909 5.90909 6.90909ZM5.81818 8V9.25H0V8H5.81818Z" fill="#ADBFDF"/>
</svg>
