<svg width="16" height="16" viewBox="0 0 16 16" fill="none" xmlns="http://www.w3.org/2000/svg">
<path fill-rule="evenodd" clip-rule="evenodd" d="M6 2V1C6 0.447715 6.44772 0 7 0H9C9.55228 0 10 0.447715 10 1V2H11.5H11.6H13.5C13.7761 2 14 2.22386 14 2.5V3.29335C14 3.56949 13.7761 3.79335 13.5 3.79335H13V5.39335V11C13 12.6569 11.6569 14 10 14H6C4.34315 14 3 12.6569 3 11V5.39335V3.79335H2.5C2.22386 3.79335 2 3.56949 2 3.29335V2.5C2 2.22386 2.22386 2 2.5 2H4H4.4H6ZM4.6 3.60938V3.79335V11C4.6 11.7732 5.2268 12.4 6 12.4H10C10.7732 12.4 11.4 11.7732 11.4 11V3.79335V3.60938H4.6ZM8.4 2V1.6H7.6V2H8.4ZM6 6C6 5.72386 6.22386 5.5 6.5 5.5H7C7.27614 5.5 7.5 5.72386 7.5 6V10.5C7.5 10.7761 7.27614 11 7 11H6.5C6.22386 11 6 10.7761 6 10.5V6ZM9 5.5C8.72386 5.5 8.5 5.72386 8.5 6V10.5C8.5 10.7761 8.72386 11 9 11H9.5C9.77614 11 10 10.7761 10 10.5V6C10 5.72386 9.77614 5.5 9.5 5.5H9Z" fill="#121922"/>
</svg>
