<svg width="14" height="14" viewBox="0 0 14 14" fill="none" xmlns="http://www.w3.org/2000/svg">
<path fill-rule="evenodd" clip-rule="evenodd" d="M1.94826 13.4048L11.5864 3.76656L11.5864 10.6035C11.5864 10.783 11.7319 10.9285 11.9114 10.9285H13.1751C13.3545 10.9285 13.5 10.783 13.5 10.6035V0.824938C13.5 0.64548 13.3545 0.5 13.1751 0.5H3.39656C3.2171 0.5 3.07162 0.64548 3.07162 0.824938L3.07162 2.08863C3.07162 2.26809 3.2171 2.41357 3.39656 2.41357L10.2333 2.41357L0.595171 12.0517C0.468276 12.1786 0.468276 12.3844 0.595171 12.5113L1.48873 13.4048C1.61562 13.5317 1.82136 13.5317 1.94826 13.4048Z" fill="#002CFB"/>
</svg>
