<svg width="16" height="16" viewBox="0 0 16 16" fill="none" xmlns="http://www.w3.org/2000/svg">
<path fill-rule="evenodd" clip-rule="evenodd" d="M7 8.8C7.11046 8.8 7.2 8.88954 7.2 9L7.2 14.6C7.2 14.8209 7.37909 15 7.6 15H8.4C8.62091 15 8.8 14.8209 8.8 14.6V9C8.8 8.88954 8.88954 8.8 9 8.8H14.6C14.8209 8.8 15 8.62091 15 8.4V7.6C15 7.37909 14.8209 7.2 14.6 7.2H9C8.88954 7.2 8.8 7.11046 8.8 7V1.4C8.8 1.17909 8.62091 1 8.4 1H7.6C7.37909 1 7.2 1.17909 7.2 1.4L7.2 7C7.2 7.11046 7.11046 7.2 7 7.2H1.4C1.17909 7.2 1 7.37909 1 7.6V8.4C1 8.62091 1.17909 8.8 1.4 8.8H7Z" fill="#002CFB"/>
</svg>
