<svg width="16" height="16" viewBox="0 0 16 16" fill="none" xmlns="http://www.w3.org/2000/svg">
<g clip-path="url(#clip0_3311_131643)">
<path d="M3.05027 3.05025C0.318012 5.78251 0.318012 10.2175 3.05027 12.9497C5.78253 15.682 10.2175 15.682 12.9498 12.9497C15.682 10.2175 15.682 5.78251 12.9498 3.05025C10.2175 0.317992 5.78253 0.317992 3.05027 3.05025ZM11.1457 5.14574C11.3413 5.34128 11.341 5.6584 11.145 5.85355L8.98997 8L11.1378 10.1565C11.3324 10.3519 11.3321 10.6679 11.1371 10.8629L10.8543 11.1457C10.6587 11.3413 10.3416 11.341 10.1464 11.145L8.00002 8.98995L5.8435 11.1378C5.64813 11.3324 5.33209 11.3321 5.13711 11.1371L4.85426 10.8543C4.65872 10.6587 4.65904 10.3416 4.85498 10.1464L7.01007 8L4.86219 5.8435C4.66759 5.64813 4.66791 5.33209 4.8629 5.1371L5.14574 4.85426C5.34128 4.65872 5.65841 4.65904 5.85355 4.85497L8.00002 7.01005L10.1565 4.86219C10.3519 4.66759 10.6679 4.66791 10.8629 4.8629L11.1457 5.14574Z" fill="#E10D0D"/>
</g>
<defs>
<clipPath id="clip0_3311_131643">
<rect width="16" height="16" fill="white"/>
</clipPath>
</defs>
</svg>
