<svg width="24" height="24" viewBox="0 0 24 24" fill="none" xmlns="http://www.w3.org/2000/svg">
<path fill-rule="evenodd" clip-rule="evenodd" d="M13.1265 2C14.3136 2 15.4394 2.52729 16.1994 3.43926L19.0729 6.88746C19.6719 7.60632 20 8.51245 20 9.4482V18C20 20.2091 18.2091 22 16 22H8C5.79086 22 4 20.2091 4 18V6C4 3.79086 5.79086 2 8 2H13.1265ZM12 4H8C6.89543 4 6 4.89543 6 6V18C6 19.1046 6.89543 20 8 20H16C17.1046 20 18 19.1046 18 18V10H17C14.2386 10 12 7.76142 12 5V4ZM17.3966 8H17C15.3431 8 14 6.65685 14 5V4.20083C14.2523 4.32333 14.479 4.49896 14.6629 4.71963L17.3966 8ZM7.79289 13.7929C8.18342 13.4024 8.81658 13.4024 9.20711 13.7929L11 15.5858L14.2929 12.2929C14.6834 11.9024 15.3166 11.9024 15.7071 12.2929C16.0976 12.6834 16.0976 13.3166 15.7071 13.7071L11.7071 17.7071C11.3166 18.0976 10.6834 18.0976 10.2929 17.7071L7.79289 15.2071C7.40237 14.8166 7.40237 14.1834 7.79289 13.7929Z" fill="#002CFB"/>
</svg>
