<svg width="16" height="16" viewBox="0 0 16 16" fill="none" xmlns="http://www.w3.org/2000/svg">
<path fill-rule="evenodd" clip-rule="evenodd" d="M10 1C10 0.447715 9.55228 0 9 0H7C6.44772 0 6 0.447715 6 1V2H4H2.5C2.22386 2 2 2.22386 2 2.5V3.29297C2 3.56911 2.22386 3.79297 2.5 3.79297H3V11C3 12.6569 4.34315 14 6 14H10C11.6569 14 13 12.6569 13 11V3.79297H13.5C13.7761 3.79297 14 3.56911 14 3.29297V2.5C14 2.22386 13.7761 2 13.5 2H11.5H10V1ZM8.40039 2V1.59961H7.59961V2H8.40039ZM4.59961 3.60938V11C4.59961 11.7732 5.2268 12.4004 6 12.4004H10C10.7732 12.4004 11.4004 11.7732 11.4004 11V3.60938H4.59961ZM6 6C6 5.72386 6.22386 5.5 6.5 5.5H7C7.27614 5.5 7.5 5.72386 7.5 6V10.5C7.5 10.7761 7.27614 11 7 11H6.5C6.22386 11 6 10.7761 6 10.5V6ZM9 5.5C8.72386 5.5 8.5 5.72386 8.5 6V10.5C8.5 10.7761 8.72386 11 9 11H9.5C9.77614 11 10 10.7761 10 10.5V6C10 5.72386 9.77614 5.5 9.5 5.5H9Z" fill="white"/>
</svg>
