<svg width="200" height="140" viewBox="0 0 200 140" fill="none" xmlns="http://www.w3.org/2000/svg">
<path fill-rule="evenodd" clip-rule="evenodd" d="M4.76837 0.0251272C1.50603 0.0251272 0.00021012 0.79292 0.00021012 3.81505C-0.000431957 5.82824 0.000602345 62.7466 0.000602345 62.7466C0.0141527 118.323 0.0422589 120.017 0.979741 121.535C1.51071 122.395 2.61582 123.494 3.43586 123.978C4.83305 124.803 8.85799 124.859 67.5716 124.877L130.216 124.897L134.803 129.408C140.197 134.713 140.991 134.932 144.143 131.983L146.213 130.047L149.393 131.313L152.574 132.578V135.436C152.574 139.686 152.924 139.872 161.164 140C163.729 140 165.866 139.917 168.626 139.917C169.53 139.917 170.044 139.087 170.383 138.407C170.634 137.904 170.634 137.149 170.633 135.17L170.641 132.647L173.73 131.278L176.819 129.908L178.988 131.914C182.323 134.996 183.018 134.789 188.806 128.984C194.594 123.18 194.801 122.483 191.727 119.139L189.727 116.963L191.093 113.865L192.458 110.767H195.044C196.843 110.767 197.991 110.475 198.815 109.805C199.958 108.877 200 108.595 200 101.805C200 93.1907 199.719 92.6487 195.251 92.6487H192.414L191.163 89.4552L189.911 86.2618L191.819 84.1057C194.751 80.7924 194.539 80.1034 188.824 74.3945C183.006 68.5819 182.052 68.295 178.989 71.4406L177.097 73.3844L173.876 72.0698L170.657 70.7551L170.648 68.0902C170.638 64.6204 169.178 62.954 166.147 62.954H164.117L164.11 34.3918C164.106 18.6828 164.109 5.5298 164.109 4.82256C164.109 4.0199 164.109 4.31926 164.109 3.81596C164.109 3.31267 164.109 2.55772 164.109 2.30607C164.109 2.05442 164.173 1.42733 163.858 0.79617C163.543 0.165013 162.854 0.0412217 162.603 0.0416275C162.102 0.0424392 159.597 0.0416275 159.597 0.0416275C159.597 0.0416275 120.675 0.00404876 95.7362 0.000356653C69.7161 -0.00349548 29.1076 0.0251272 29.1076 0.0251272C29.1076 0.0251272 11.2849 0.0257373 4.76837 0.0251272ZM5.02577 5.57849C5.02577 5.57849 5.02577 9.47949 5.02577 12.917V19.167H82.0619H159.098V12.7248V5.57849C159.098 5.57849 82.8224 5.57849 81.9364 5.57849C81.0505 5.57849 5.02577 5.57849 5.02577 5.57849ZM15.0631 12.147V15.1393H18.0671H21.0783V12.147V9.09968L17.8484 9.10101H15.0631V12.147ZM30.1118 11.9699V15.1393H33.123H36.1342V12.147V9.10101H33.123H30.1118V11.9699ZM45.1678 12.1195V15.1393H48.1861H51.1901V12.1195V9.10101H48.1861H45.1678V12.1195ZM81.9364 24.0742L5.02577 24.203V71.2187C5.02577 97.0777 5.01864 119.322 5.01864 119.322L68.1613 119.827H130.688L132.049 118.519L133.411 117.211L132.207 114.618C131.545 113.192 131.001 111.743 130.999 111.397C130.995 110.969 130.1 110.767 128.211 110.767C125.925 110.767 125.207 110.546 124.196 109.532C123.011 108.344 122.964 108.041 122.964 101.574C122.964 95.5044 123.063 94.7449 123.987 93.7504C124.819 92.855 125.571 92.6487 128.002 92.6487C130.058 92.6487 130.995 92.4519 130.999 92.0195C131.001 91.6738 131.549 90.2152 132.216 88.7788C133.178 86.7072 133.297 86.0575 132.792 85.6377C132.442 85.3463 131.99 84.8059 131.99 84.8059L131.488 84.3026C131.488 84.3026 131.411 84.2939 130.729 83.4806C128.536 80.8669 128.956 79.8241 134.39 74.3945C140.217 68.5733 141.16 68.2925 144.246 71.4618L146.159 73.4261L148.739 72.2212C150.158 71.5589 151.602 71.0143 151.947 71.0118C152.376 71.0083 152.574 70.0837 152.574 68.0821C152.574 64.2505 153.657 62.954 156.859 62.954H159.098V43.3253C159.098 32.5296 159.041 23.7525 158.973 23.821C158.904 23.8894 124.238 24.0032 81.9364 24.0742ZM76.8646 39.463C76.1479 40.3292 75.2165 42.4466 65.6745 64.8998C58.011 82.932 57.7145 83.7554 58.4663 84.9059C59.3169 86.2079 61.2857 86.516 62.1168 85.4766C63.0357 84.3276 80.8072 42.0595 80.8072 41.0222C80.8072 39.0196 78.1132 37.9546 76.8646 39.463ZM48.3497 42.6393C47.1879 43.1149 30.119 61.5342 30.119 62.3128C30.119 63.2082 39.1435 72.5912 45.7872 78.6031C48.9549 81.4694 50.4098 82.4765 51.0567 82.251C52.1433 81.8715 53.2047 80.6163 53.2047 79.7113C53.2047 79.3449 49.3725 75.2823 44.6891 70.6832L36.1735 62.3208L43.8108 54.2902C48.3281 49.5401 51.5109 45.7824 51.6023 45.0924C51.7032 44.3299 51.3604 43.6474 50.6126 43.1225C49.4096 42.2775 49.2942 42.2528 48.3497 42.6393ZM88.4471 43.1024C86.0853 44.7607 86.3589 45.1599 98.4789 57.7318L102.905 62.3239L94.3656 70.6162C89.6686 75.1771 85.8259 79.2387 85.8259 79.6429C85.8259 80.6143 86.8587 81.8609 87.9919 82.2575C89.4072 82.7528 108.912 64.0542 108.912 62.2026C108.912 61.194 90.9901 42.3187 90.032 42.3187C89.7735 42.3187 89.0604 42.6716 88.4471 43.1024ZM157.592 70.6872C157.592 73.3778 156.248 75.2778 154.031 75.7222C153.16 75.8973 151.113 76.7197 149.484 77.5497C147.854 78.3801 146.185 79.0596 145.773 79.0596C145.361 79.0596 144.053 78.1622 142.867 77.066L140.71 75.0724L137.853 77.9674L134.996 80.8629L136.779 82.5957C139.231 84.9799 139.33 85.8858 137.534 89.5166C136.684 91.2339 135.852 93.3276 135.684 94.1691C135.235 96.4209 133.347 97.6816 130.424 97.6816H127.982V101.708V105.734H130.655C133.672 105.734 135.156 106.824 135.797 109.509C135.995 110.34 136.802 112.315 137.59 113.898C138.379 115.482 139.023 117.124 139.023 117.546C139.023 117.969 138.193 119.235 137.179 120.361L135.335 122.408L138.174 125.255L141.012 128.102L142.925 126.229C145.169 124.032 145.796 123.96 148.952 125.545C150.254 126.199 152.507 127.124 153.959 127.6C156.99 128.596 157.592 129.429 157.592 132.628V134.926H161.607H165.622V132.628C165.622 129.429 166.225 128.596 169.256 127.6C170.708 127.124 172.961 126.199 174.263 125.545C175.565 124.891 176.975 124.356 177.398 124.356C177.821 124.356 179.085 125.189 180.207 126.206L182.249 128.055L185.087 125.209L187.926 122.362L186.059 120.444C183.868 118.194 183.796 117.564 185.377 114.4C186.029 113.094 186.951 110.834 187.426 109.378C188.418 106.338 189.249 105.734 192.439 105.734H194.73V101.708V97.6816H192.439C189.249 97.6816 188.418 97.0777 187.426 94.0378C186.951 92.5817 186.029 90.3219 185.377 89.0163C184.725 87.7108 184.191 86.296 184.191 85.8722C184.191 85.4485 185.021 84.1806 186.036 83.0548L187.879 81.0078L185.064 78.1843L182.249 75.3608L180.207 77.21C179.085 78.2271 177.821 79.0596 177.398 79.0596C176.975 79.0596 175.565 78.5246 174.263 77.8708C172.961 77.217 170.708 76.2924 169.256 75.8158C166.225 74.8203 165.622 73.9873 165.622 70.7884V68.4903H161.607H157.592V70.6872ZM157.055 84.2456C151.83 85.7313 147.491 89.4975 145.125 94.6015C142.755 99.7104 143.19 107.822 146.795 111.984C146.985 112.203 147.548 112.991 147.548 112.991L148.552 113.997C148.552 113.997 148.601 114.103 149.716 115.061C162.301 125.864 181.375 115.515 179.152 99.0894C178.373 93.3311 174.212 87.7319 168.897 85.2919C165.578 83.7679 160.358 83.3064 157.055 84.2456ZM157.189 89.5473C146.602 93.3336 145.735 108.098 155.81 113.041C162.389 116.269 170.254 113.541 173.215 107.004C174.44 104.301 174.441 99.115 173.217 96.4234C170.373 90.1669 163.591 87.2573 157.189 89.5473Z" fill="#ECF2FC"/>
</svg>
