<svg width="17" height="16" viewBox="0 0 17 16" fill="none" xmlns="http://www.w3.org/2000/svg">
<path fill-rule="evenodd" clip-rule="evenodd" d="M8.49995 2.6H12.2922L13.9 4.36857V9.5C13.9 10.2732 13.2731 10.9 12.5 10.9H8.49995C7.72675 10.9 7.09995 10.2732 7.09995 9.5V4C7.09995 3.2268 7.72675 2.6 8.49995 2.6ZM8.49995 1H12.5576C12.8393 1 13.108 1.11885 13.2975 1.32733L15.2399 3.46393C15.4072 3.64801 15.5 3.88784 15.5 4.13661V9.5C15.5 11.1569 14.1568 12.5 12.5 12.5H11.793C11.6904 13.953 10.4791 15.1 9 15.1H4.3C2.7536 15.1 1.5 13.8464 1.5 12.3V6C1.5 4.4536 2.7536 3.2 4.3 3.2H5.6078C5.9579 1.93153 7.12014 1 8.49995 1ZM5.49995 4.8H4.3C3.63726 4.8 3.1 5.33726 3.1 6V12.3C3.1 12.9627 3.63726 13.5 4.3 13.5H9C9.59459 13.5 10.0882 13.0675 10.1834 12.5H8.49995C6.8431 12.5 5.49995 11.1569 5.49995 9.5V4.8Z" fill="white"/>
</svg>
