<svg width="16" height="16" viewBox="0 0 16 16" fill="none" xmlns="http://www.w3.org/2000/svg">
<path d="M8.92276 9.27237H3.01367V8.02237H8.92276C9.46822 8.02237 9.91898 7.92768 10.275 7.73828C10.6311 7.5451 10.8962 7.28374 11.0705 6.95419C11.2447 6.62086 11.3319 6.24207 11.3319 5.81783C11.3319 5.39358 11.2447 5.01669 11.0705 4.68715C10.8962 4.35381 10.6311 4.09245 10.275 3.90305C9.91898 3.70987 9.46822 3.61328 8.92276 3.61328H6.26367V13.9996H4.85458V2.36328H8.92276C9.7864 2.36328 10.4985 2.52048 11.0591 2.83487C11.6197 3.14927 12.0364 3.56783 12.3091 4.09055C12.5819 4.61328 12.7182 5.18904 12.7182 5.81783C12.7182 6.44661 12.5819 7.02237 12.3091 7.5451C12.0364 8.06783 11.6197 8.48639 11.0591 8.80078C10.4985 9.11518 9.7864 9.27237 8.92276 9.27237ZM8.83185 10.3633V11.6133H3.01367V10.3633H8.83185Z" fill="#121922"/>
</svg>
