<svg width="16" height="16" viewBox="0 0 16 16" fill="none" xmlns="http://www.w3.org/2000/svg">
<path fill-rule="evenodd" clip-rule="evenodd" d="M9.14452 3.4508C9.61484 2.99252 10.3662 2.99739 10.8305 3.46173L12.5385 5.16974C13.0029 5.63408 13.0077 6.3854 12.5495 6.85572L11.9928 7.42699L8.57326 4.00744L9.14452 3.4508ZM8.02791 2.30486L6.93531 3.36949L6.93451 3.36868L6.87248 3.43071L6.29576 3.99267L6.30314 4.00005L2.0203 8.2829C1.49519 8.808 1.2002 9.52019 1.2002 10.2628V13.0001C1.2002 13.9942 2.00608 14.8001 3.0002 14.8001H5.73745C6.48006 14.8001 7.19225 14.5051 7.71735 13.98L12.0002 9.69711L12.0076 9.70449L12.5695 9.12779L12.6316 9.06574L12.6308 9.06494L13.6954 7.97232C14.7647 6.87491 14.7533 5.12182 13.6699 4.03837L11.9619 2.33036C10.8784 1.2469 9.12533 1.23553 8.02791 2.30486ZM3.15167 9.41427L6.93451 5.63143L10.3688 9.06574L6.58598 12.8486C6.36094 13.0736 6.05571 13.2001 5.73745 13.2001H3.0002C2.88974 13.2001 2.8002 13.1105 2.8002 13.0001V10.2628C2.8002 9.94454 2.92662 9.63931 3.15167 9.41427ZM10.5002 14.8001C10.2241 14.8001 10.0002 14.5762 10.0002 14.3001V13.7001C10.0002 13.4239 10.2241 13.2001 10.5002 13.2001H14.5002C14.7763 13.2001 15.0002 13.4239 15.0002 13.7001V14.3001C15.0002 14.5762 14.7763 14.8001 14.5002 14.8001H10.5002Z" fill="#002CFB"/>
</svg>
