<svg width="16" height="16" viewBox="0 0 16 16" fill="none" xmlns="http://www.w3.org/2000/svg">
<g clip-path="url(#clip0_12901_20626)">
<path fill-rule="evenodd" clip-rule="evenodd" d="M13.0857 7.00008L9.14637 3.06074C8.95111 2.86547 8.95111 2.54889 9.14637 2.35363L9.85348 1.64652C10.0487 1.45126 10.3653 1.45126 10.5606 1.64652L16.5606 7.64652C16.7558 7.84178 16.7558 8.15837 16.5606 8.35363L10.5606 14.3536C10.3653 14.5489 10.0487 14.5489 9.85348 14.3536L9.14637 13.6465C8.95111 13.4513 8.95111 13.1347 9.14637 12.9394L13.0857 9.00008L-7.56167e-05 9.00008C-0.276218 9.00008 -0.500076 8.77622 -0.500076 8.50008L-0.500076 7.50008C-0.500076 7.22393 -0.276218 7.00008 -7.56588e-05 7.00008L13.0857 7.00008Z" fill="#121922"/>
</g>
<defs>
<clipPath id="clip0_12901_20626">
<rect width="16" height="16" fill="white"/>
</clipPath>
</defs>
</svg>
