<svg width="16" height="16" viewBox="0 0 16 16" fill="none" xmlns="http://www.w3.org/2000/svg">
<path fill-rule="evenodd" clip-rule="evenodd" d="M2 12.3334C2 13.4379 2.89543 14.3334 4 14.3334H12C13.1046 14.3334 14 13.4379 14 12.3334V11.3334C14 10.9652 13.7015 10.6667 13.3333 10.6667C12.9651 10.6667 12.6667 10.9652 12.6667 11.3334V12.3334C12.6667 12.7016 12.3682 13 12 13H4C3.63181 13 3.33333 12.7016 3.33333 12.3334V11.3334C3.33333 10.9652 3.03486 10.6667 2.66667 10.6667C2.29848 10.6667 2 10.9652 2 11.3334V12.3334ZM8 11C8.36819 11 8.66667 10.7016 8.66667 10.3334V4.49695L10.8874 6.49557C11.161 6.74188 11.5826 6.71969 11.8289 6.44602C12.0752 6.17234 12.053 5.75082 11.7793 5.50451L8.44598 2.50451C8.19244 2.27633 7.80756 2.27633 7.55402 2.50451L4.22069 5.50451C3.94702 5.75082 3.92483 6.17234 4.17114 6.44602C4.41744 6.71969 4.83897 6.74188 5.11264 6.49557L7.33333 4.49695V10.3334C7.33333 10.7016 7.63181 11 8 11Z" fill="#121922"/>
</svg>
