<svg width="15" height="14" viewBox="0 0 15 14" fill="none" xmlns="http://www.w3.org/2000/svg">
<path d="M10.3 4.9C10.6866 4.9 11 5.2134 11 5.6C11 5.9866 10.6866 6.3 10.3 6.3H4.7C4.3134 6.3 4 5.9866 4 5.6C4 5.2134 4.3134 4.9 4.7 4.9H10.3Z" fill="#002CFB"/>
<path fill-rule="evenodd" clip-rule="evenodd" d="M11 1.4C11 0.626801 10.3732 0 9.6 0H5.4C4.6268 0 4 0.626801 4 1.4V2.8H2.6C1.4402 2.8 0.5 3.7402 0.5 4.9V9.8C0.5 10.9598 1.4402 11.9 2.6 11.9H3.3V13.3C3.3 13.6866 3.6134 14 4 14H11C11.3866 14 11.7 13.6866 11.7 13.3V11.9H12.4C13.5598 11.9 14.5 10.9598 14.5 9.8V4.9C14.5 3.7402 13.5598 2.8 12.4 2.8H11V1.4ZM5.4 1.4V2.8H9.6V1.4H5.4ZM3.3 10.5H2.6C2.2134 10.5 1.9 10.1866 1.9 9.8V4.9C1.9 4.5134 2.2134 4.2 2.6 4.2H12.4C12.7866 4.2 13.1 4.5134 13.1 4.9V9.8C13.1 10.1866 12.7866 10.5 12.4 10.5H11.7V9.1C12.0866 9.1 12.4 8.7866 12.4 8.4C12.4 8.0134 12.0866 7.7 11.7 7.7H3.3C2.9134 7.7 2.6 8.0134 2.6 8.4C2.6 8.7866 2.9134 9.1 3.3 9.1V10.5ZM10.3 9.1H4.7V12.6H10.3V9.1Z" fill="#002CFB"/>
</svg>
