<svg width="13" height="15" viewBox="0 0 13 15" fill="none" xmlns="http://www.w3.org/2000/svg">
<path d="M6.94321 2.62909L7.74872 3.22167C7.92874 2.97696 7.98776 2.6637 7.90914 2.37027C7.83051 2.07684 7.62277 1.83505 7.34452 1.71314L6.94321 2.62909ZM11.6667 8.39379H10.6667C10.6667 10.787 8.72657 12.7271 6.33333 12.7271V13.7271V14.7271C9.83114 14.7271 12.6667 11.8916 12.6667 8.39379H11.6667ZM6.33333 13.7271V12.7271C3.9401 12.7271 2 10.787 2 8.39379H1H0C0 11.8916 2.83553 14.7271 6.33333 14.7271V13.7271ZM1 8.39379H2C2 6.00055 3.9401 4.06045 6.33333 4.06045V3.06045V2.06045C2.83553 2.06045 0 4.89598 0 8.39379H1ZM9.66667 4.2302L9.0412 5.01045C10.0339 5.80624 10.6667 7.02578 10.6667 8.39379H11.6667H12.6667C12.6667 6.39328 11.738 4.609 10.2921 3.44996L9.66667 4.2302ZM3.03327 0.916016L2.63197 1.83196L6.54191 3.54503L6.94321 2.62909L7.34452 1.71314L3.43458 7.12047e-05L3.03327 0.916016ZM6.94321 2.62909L6.1377 2.03651L3.60813 5.47504L4.41364 6.06762L5.21915 6.6602L7.74872 3.22167L6.94321 2.62909Z" fill="#002CFB"/>
</svg>
