<svg width="16" height="16" viewBox="0 0 16 16" fill="none" xmlns="http://www.w3.org/2000/svg">
<path fill-rule="evenodd" clip-rule="evenodd" d="M8.75108 1.33301C9.54249 1.33301 10.293 1.68454 10.7997 2.29252L12.7153 4.59132C13.1147 5.07056 13.3334 5.67464 13.3334 6.29847V11.9997C13.3334 13.4724 12.1395 14.6663 10.6667 14.6663H5.33341C3.86066 14.6663 2.66675 13.4724 2.66675 11.9997V3.99967C2.66675 2.52692 3.86066 1.33301 5.33341 1.33301H8.75108ZM8.00008 2.66634H5.33341C4.59703 2.66634 4.00008 3.26329 4.00008 3.99967V11.9997C4.00008 12.7361 4.59703 13.333 5.33341 13.333H10.6667C11.4031 13.333 12.0001 12.7361 12.0001 11.9997V6.66634H11.3334C9.49247 6.66634 8.00008 5.17396 8.00008 3.33301V2.66634ZM11.5978 5.33301H11.3334C10.2288 5.33301 9.33341 4.43758 9.33341 3.33301V2.80023C9.50162 2.88189 9.65278 2.99898 9.77538 3.14609L11.5978 5.33301ZM5.00008 11.333C5.00008 10.9648 5.29856 10.6663 5.66675 10.6663H10.0001C10.3683 10.6663 10.6667 10.9648 10.6667 11.333C10.6667 11.7012 10.3683 11.9997 10.0001 11.9997H5.66675C5.29856 11.9997 5.00008 11.7012 5.00008 11.333ZM5.00008 8.99967C5.00008 8.63148 5.29856 8.33301 5.66675 8.33301H10.0001C10.3683 8.33301 10.6667 8.63148 10.6667 8.99967C10.6667 9.36786 10.3683 9.66634 10.0001 9.66634H5.66675C5.29856 9.66634 5.00008 9.36786 5.00008 8.99967Z" fill="white"/>
</svg>
