<svg width="17" height="16" viewBox="0 0 17 16" fill="none" xmlns="http://www.w3.org/2000/svg">
<path fill-rule="evenodd" clip-rule="evenodd" d="M11.5687 7.19999L9.12486 4.75613C9.0077 4.63897 9.0077 4.44902 9.12486 4.33187L9.83197 3.62476C9.94912 3.5076 10.1391 3.5076 10.2562 3.62476L14.4193 7.78785C14.5365 7.90501 14.5365 8.09496 14.4193 8.21212L10.2562 12.3752C10.1391 12.4924 9.94912 12.4924 9.83197 12.3752L9.12486 11.6681C9.0077 11.551 9.0077 11.361 9.12486 11.2438L11.5687 8.79999L2.80009 8.79999C2.6344 8.79999 2.50009 8.66567 2.50009 8.49999L2.50009 7.49999C2.50009 7.3343 2.6344 7.19999 2.80009 7.19999L11.5687 7.19999Z" fill="white"/>
</svg>
