<svg width="17" height="16" viewBox="0 0 17 16" fill="none" xmlns="http://www.w3.org/2000/svg">
<path fill-rule="evenodd" clip-rule="evenodd" d="M3.55996 7.84192C3.51968 7.89797 3.48262 7.95084 3.44886 8.00001C3.48262 8.04918 3.51968 8.10205 3.55996 8.1581C3.80923 8.50491 4.17728 8.96646 4.65086 9.42569C5.61033 10.3561 6.92054 11.2 8.5002 11.2C10.0799 11.2 11.3901 10.3561 12.3495 9.42569C12.8231 8.96646 13.1912 8.50491 13.4404 8.1581C13.4807 8.10205 13.5178 8.04918 13.5515 8.00002C13.5178 7.95085 13.4807 7.89797 13.4404 7.84192C13.1912 7.49511 12.8231 7.03356 12.3495 6.57433C11.3901 5.64394 10.0799 4.80001 8.5002 4.80001C6.92054 4.80001 5.61033 5.64394 4.65086 6.57433C4.17728 7.03356 3.80923 7.49511 3.55996 7.84192ZM15.1972 7.60727C15.1973 7.60755 15.1975 7.6078 14.5002 8.00001C15.1975 8.39222 15.1973 8.39248 15.1972 8.39275L15.1968 8.39338L15.1959 8.3949L15.1936 8.39904L15.1864 8.41163C15.1804 8.4219 15.1723 8.43589 15.1619 8.45337C15.1412 8.4883 15.1115 8.5372 15.0732 8.59806C14.9967 8.71968 14.885 8.88967 14.7397 9.09192C14.4499 9.49511 14.021 10.0336 13.4634 10.5743C12.3603 11.6439 10.6705 12.8 8.5002 12.8C6.32985 12.8 4.64006 11.6439 3.53703 10.5743C2.97936 10.0336 2.55053 9.49511 2.26074 9.09192C2.11537 8.88967 2.00372 8.71968 1.92716 8.59806C1.88885 8.5372 1.85924 8.4883 1.8385 8.45337C1.82812 8.43589 1.81996 8.4219 1.81403 8.41163L1.8068 8.39904L1.80445 8.3949L1.80359 8.39338L1.80323 8.39275C1.80308 8.39248 1.80293 8.39222 2.5002 8.00001C1.80293 7.6078 1.80308 7.60755 1.80323 7.60727L1.80359 7.60665L1.80445 7.60512L1.8068 7.60098L1.81403 7.5884C1.81996 7.57813 1.82812 7.56413 1.8385 7.54666C1.85924 7.51172 1.88885 7.46283 1.92716 7.40197C2.00372 7.28034 2.11537 7.11036 2.26074 6.9081C2.55053 6.50491 2.97936 5.96646 3.53703 5.42569C4.64006 4.35608 6.32985 3.20001 8.5002 3.20001C10.6705 3.20001 12.3603 4.35608 13.4634 5.42569C14.021 5.96646 14.4499 6.50491 14.7397 6.9081C14.885 7.11036 14.9967 7.28034 15.0732 7.40197C15.1115 7.46283 15.1412 7.51172 15.1619 7.54666C15.1723 7.56413 15.1804 7.57813 15.1864 7.5884L15.1936 7.60098L15.1959 7.60512L15.1968 7.60665L15.1972 7.60727ZM14.5002 8.00001L15.1975 8.39222C15.3344 8.14869 15.3344 7.85133 15.1975 7.6078L14.5002 8.00001ZM2.5002 8.00001L1.80293 7.6078C1.66595 7.85133 1.66595 8.14869 1.80293 8.39222L2.5002 8.00001ZM3.19677 7.60658C3.19667 7.60642 3.19671 7.60648 3.19686 7.60675L3.19677 7.60658ZM3.19688 8.39324C3.19671 8.39355 3.19667 8.39361 3.19677 8.39344L3.19688 8.39324ZM8.5002 10C9.60476 10 10.5002 9.10458 10.5002 8.00001C10.5002 6.89544 9.60476 6.00001 8.5002 6.00001C7.39563 6.00001 6.5002 6.89544 6.5002 8.00001C6.5002 9.10458 7.39563 10 8.5002 10Z" fill="white"/>
</svg>
