<svg width="16" height="16" viewBox="0 0 16 16" fill="none" xmlns="http://www.w3.org/2000/svg">
<path d="M10.4 6.2C10.7314 6.2 11 6.46863 11 6.8C11 7.13137 10.7314 7.4 10.4 7.4H5.6C5.26863 7.4 5 7.13137 5 6.8C5 6.46863 5.26863 6.2 5.6 6.2H10.4Z" fill="#121922"/>
<path fill-rule="evenodd" clip-rule="evenodd" d="M11 3.2C11 2.53726 10.4627 2 9.8 2H6.2C5.53726 2 5 2.53726 5 3.2V4.4H3.8C2.80589 4.4 2 5.20589 2 6.2V10.4C2 11.3941 2.80589 12.2 3.8 12.2H4.4V13.4C4.4 13.7314 4.66863 14 5 14H11C11.3314 14 11.6 13.7314 11.6 13.4V12.2H12.2C13.1941 12.2 14 11.3941 14 10.4V6.2C14 5.20589 13.1941 4.4 12.2 4.4H11V3.2ZM6.2 3.2V4.4H9.8V3.2H6.2ZM4.4 11H3.8C3.46863 11 3.2 10.7314 3.2 10.4V6.2C3.2 5.86863 3.46863 5.6 3.8 5.6H12.2C12.5314 5.6 12.8 5.86863 12.8 6.2V10.4C12.8 10.7314 12.5314 11 12.2 11H11.6V9.8C11.9314 9.8 12.2 9.53137 12.2 9.2C12.2 8.86863 11.9314 8.6 11.6 8.6H4.4C4.06863 8.6 3.8 8.86863 3.8 9.2C3.8 9.53137 4.06863 9.8 4.4 9.8V11ZM10.4 9.8H5.6V12.8H10.4V9.8Z" fill="#121922"/>
</svg>
