<svg width="24" height="24" viewBox="0 0 24 24" fill="none" xmlns="http://www.w3.org/2000/svg">
<path d="M14 3V5H20V5.28125H18V17C18 18.6569 16.6569 20 15 20H9C7.34315 20 6 18.6569 6 17V5.28125H4V5H10V3H14Z" stroke="#ADBFDF" stroke-width="2"/>
<path fill-rule="evenodd" clip-rule="evenodd" d="M9.5 17C9.22386 17 9 16.7761 9 16.5V9.5C9 9.22386 9.22386 9 9.5 9H10.5C10.7761 9 11 9.22386 11 9.5V16.5C11 16.7761 10.7761 17 10.5 17H9.5Z" fill="#ADBFDF"/>
<path fill-rule="evenodd" clip-rule="evenodd" d="M13.5 17C13.2239 17 13 16.7761 13 16.5V9.5C13 9.22386 13.2239 9 13.5 9H14.5C14.7761 9 15 9.22386 15 9.5V16.5C15 16.7761 14.7761 17 14.5 17H13.5Z" fill="#ADBFDF"/>
</svg>
