<svg width="16" height="16" viewBox="0 0 16 16" fill="none" xmlns="http://www.w3.org/2000/svg">
<path fill-rule="evenodd" clip-rule="evenodd" d="M2.75 14C2.47386 14 2.25 13.7761 2.25 13.5V10.5C2.25 10.2239 2.47386 10 2.75 10H3.625C3.625 10 4.45343 10 5.03921 10.5858C5.03921 10.5858 5.625 11.1716 5.625 12C5.625 12 5.625 12.8284 5.03921 13.4142C5.03921 13.4142 4.45343 14 3.625 14H2.75ZM3.625 13H3.25V11H3.625C3.625 11 4.03921 11 4.33211 11.2929C4.33211 11.2929 4.625 11.5858 4.625 12C4.625 12 4.625 12.4142 4.33211 12.7071C4.33211 12.7071 4.03921 13 3.625 13Z" fill="#121922"/>
<path fill-rule="evenodd" clip-rule="evenodd" d="M8.125 10C8.125 10 8.91449 10 9.46585 10.6015C9.46585 10.6015 10 11.1842 10 12C10 12 10 12.8158 9.46585 13.3985C9.46585 13.3985 8.91449 14 8.125 14C8.125 14 7.33551 14 6.78415 13.3985C6.78415 13.3985 6.25 12.8158 6.25 12C6.25 12 6.25 11.1842 6.78415 10.6015C6.78415 10.6015 7.33551 10 8.125 10ZM8.125 11C8.125 11 7.77541 11 7.52131 11.2772C7.52131 11.2772 7.25 11.5732 7.25 12C7.25 12 7.25 12.4268 7.52131 12.7228C7.52131 12.7228 7.77541 13 8.125 13C8.125 13 8.47459 13 8.72869 12.7228C8.72869 12.7228 9 12.4268 9 12C9 12 9 11.5732 8.72869 11.2772C8.72869 11.2772 8.47459 11 8.125 11Z" fill="#121922"/>
<path d="M12.371 11C12.6826 11.0025 12.9126 11.2128 12.9126 11.2128C13.0048 11.297 13.1251 11.3437 13.25 11.3437C13.2575 11.3437 13.2649 11.3436 13.2724 11.3432C13.4049 11.3373 13.5296 11.279 13.619 11.1811C13.7033 11.0889 13.75 10.9686 13.75 10.8437L13.75 10.8423C13.75 10.8353 13.7498 10.8283 13.7495 10.8213C13.7436 10.6889 13.6852 10.5642 13.5874 10.4747C13.0742 10.0056 12.379 10 12.379 10C11.5832 9.99998 11.0329 10.6005 11.0329 10.6005C10.5 11.182 10.5 12 10.5 12C10.5 12.818 11.0329 13.3995 11.0329 13.3995C11.5832 14 12.375 14 12.375 14C13.0742 13.9944 13.5874 13.5253 13.5874 13.5253C13.691 13.4305 13.75 13.2966 13.75 13.1562L13.75 13.1528C13.7491 13.0291 13.7025 12.9101 13.619 12.8189C13.5243 12.7153 13.3904 12.6562 13.25 12.6562L13.2465 12.6562C13.1229 12.6571 13.0039 12.7038 12.9126 12.7872C12.6826 12.9975 12.375 13 12.375 13C12.0232 13 11.7702 12.7239 11.7702 12.7239C11.5 12.4291 11.5 12 11.5 12C11.5 11.5709 11.7702 11.2761 11.7702 11.2761C12.0232 11 12.371 11 12.371 11Z" fill="#121922"/>
<path d="M12.5 5.70711V8C12.5 8.27614 12.7239 8.5 13 8.5C13.2761 8.5 13.5 8.27614 13.5 8V5.5C13.5 5.36739 13.4473 5.24021 13.3536 5.14645L9.85355 1.64645C9.75979 1.55268 9.63261 1.5 9.5 1.5L3.5 1.5C3.08579 1.5 2.79289 1.79289 2.79289 1.79289C2.5 2.08579 2.5 2.5 2.5 2.5V8C2.5 8.27614 2.72386 8.5 3 8.5C3.27614 8.5 3.5 8.27614 3.5 8V2.5H9.29289L12.5 5.70711Z" fill="#121922"/>
<path d="M9.5 6H13C13.2761 6 13.5 5.77614 13.5 5.5C13.5 5.22386 13.2761 5 13 5H10V2C10 1.72386 9.77614 1.5 9.5 1.5C9.22386 1.5 9 1.72386 9 2V5.5C9 5.77614 9.22386 6 9.5 6Z" fill="#121922"/>
</svg>
