<svg width="16" height="16" viewBox="0 0 16 16" fill="none" xmlns="http://www.w3.org/2000/svg">
<path fill-rule="evenodd" clip-rule="evenodd" d="M4.0002 3.8002C3.33745 3.8002 2.8002 4.33745 2.8002 5.0002V11.0002C2.8002 11.6629 3.33745 12.2002 4.0002 12.2002H11.6431C12.3058 12.2002 12.8431 11.6629 12.8431 11.0002V10.4669H10.2145C8.84728 10.4669 7.7002 9.38359 7.7002 8.00019C7.7002 6.6168 8.84727 5.53353 10.2145 5.53353H12.8431V5.0002C12.8431 4.33745 12.3058 3.8002 11.6431 3.8002H4.0002ZM14.4431 5.53353V5.0002C14.4431 3.4538 13.1894 2.2002 11.6431 2.2002H4.0002C2.4538 2.2002 1.2002 3.4538 1.2002 5.0002V11.0002C1.2002 12.5466 2.4538 13.8002 4.0002 13.8002H11.6431C13.1895 13.8002 14.4431 12.5466 14.4431 11.0002V10.4669C14.8954 10.4657 15.3002 10.1031 15.3002 9.60911V6.39128C15.3002 5.89728 14.8954 5.53474 14.4431 5.53353ZM13.7002 7.13353H10.2145C9.68814 7.13353 9.3002 7.54264 9.3002 8.00019C9.3002 8.45775 9.68814 8.86686 10.2145 8.86686H13.7002V7.13353Z" fill="#ADBFDF"/>
</svg>
