<svg width="16" height="16" viewBox="0 0 16 16" fill="none" xmlns="http://www.w3.org/2000/svg">
<path fill-rule="evenodd" clip-rule="evenodd" d="M1.2 12.4998C1.2 13.7701 2.22974 14.7998 3.5 14.7998H12.5C13.7703 14.7998 14.8 13.7701 14.8 12.4998V11.4544C14.8 11.0125 14.4418 10.6544 14 10.6544C13.5582 10.6544 13.2 11.0125 13.2 11.4544V12.4998C13.2 12.8864 12.8866 13.1998 12.5 13.1998H3.5C3.1134 13.1998 2.8 12.8864 2.8 12.4998V11.4544C2.8 11.0125 2.44182 10.6544 2 10.6544C1.55817 10.6544 1.2 11.0125 1.2 11.4544V12.4998ZM8 11.2998C8.44182 11.2998 8.8 10.9416 8.8 10.4998V4.2598L11.224 6.37527C11.5569 6.66579 12.0622 6.63144 12.3527 6.29856C12.6433 5.96568 12.6089 5.46031 12.276 5.16979L8.52602 1.89707C8.22465 1.63405 7.77534 1.63405 7.47397 1.89707L3.72397 5.16979C3.39109 5.46031 3.35674 5.96568 3.64726 6.29856C3.93777 6.63144 4.44314 6.66579 4.77602 6.37527L7.2 4.2598V10.4998C7.2 10.9416 7.55817 11.2998 8 11.2998Z" fill="#002CFB"/>
</svg>
