<svg width="20" height="21" viewBox="0 0 20 21" fill="none" xmlns="http://www.w3.org/2000/svg">
<path fill-rule="evenodd" clip-rule="evenodd" d="M2.51926 20.0176L5.62796 17.419L5.6323 17.4154H18.4615C18.4615 17.4154 19.0988 17.4154 19.5494 16.9648C19.5494 16.9648 20 16.5142 20 15.8769V3.56922C20 3.56922 20 2.93197 19.5494 2.48137C19.5494 2.48137 19.0988 2.03076 18.4615 2.03076H1.53846C1.53846 2.03076 0.90121 2.03076 0.450605 2.48137C0.450605 2.48137 0 2.93197 0 3.56922V18.8385C0 18.8385 0.00355317 19.2899 0.244422 19.6645C0.244422 19.6645 0.48529 20.039 0.889009 20.227C0.889009 20.227 1.29273 20.415 1.73444 20.3583C1.73444 20.3583 2.17615 20.3015 2.51926 20.0176ZM5.62481 15.8769C5.62481 15.8769 5.06293 15.8771 4.63703 16.2422L1.53846 18.8323V3.56922H18.4615V15.8769H5.62481Z" fill="#002CFB"/>
<path d="M6.196 10.84C6.196 11.2453 6.04133 11.5627 5.732 11.792C5.428 12.0213 4.98267 12.136 4.396 12.136C3.94267 12.136 3.56933 12.072 3.276 11.944C2.988 11.8107 2.844 11.6053 2.844 11.328C2.844 11.2 2.87067 11.0907 2.924 11C2.97733 10.9093 3.04133 10.8373 3.116 10.784C3.27067 10.8693 3.44667 10.9467 3.644 11.016C3.84667 11.08 4.07867 11.112 4.34 11.112C4.68133 11.112 4.852 11.024 4.852 10.848C4.852 10.7733 4.82 10.7147 4.756 10.672C4.692 10.6293 4.58533 10.5947 4.436 10.568L4.196 10.52C3.73733 10.4293 3.39333 10.2853 3.164 10.088C2.93467 9.89067 2.82 9.61333 2.82 9.256C2.82 8.856 2.98267 8.544 3.308 8.32C3.63333 8.096 4.05733 7.984 4.58 7.984C4.84133 7.984 5.07867 8.01067 5.292 8.064C5.51067 8.112 5.684 8.192 5.812 8.304C5.94 8.41067 6.004 8.54933 6.004 8.72C6.004 8.83733 5.98 8.94133 5.932 9.032C5.88933 9.12267 5.83333 9.19733 5.764 9.256C5.70533 9.21867 5.612 9.18133 5.484 9.144C5.36133 9.10667 5.228 9.07467 5.084 9.048C4.94 9.02133 4.812 9.008 4.7 9.008C4.524 9.008 4.388 9.02933 4.292 9.072C4.196 9.10933 4.148 9.17067 4.148 9.256C4.148 9.31467 4.17467 9.36267 4.228 9.4C4.28133 9.43733 4.38267 9.472 4.532 9.504L4.78 9.56C5.292 9.67733 5.65467 9.84 5.868 10.048C6.08667 10.2507 6.196 10.5147 6.196 10.84ZM10.5015 9.328V10.232H9.1415V9.512C9.1415 9.352 9.0935 9.23733 8.9975 9.168C8.90683 9.09333 8.79483 9.056 8.6615 9.056C8.56017 9.056 8.47217 9.072 8.3975 9.104C8.32283 9.13067 8.2615 9.15733 8.2135 9.184V10.232H6.8535V9.016C6.8535 8.872 6.88283 8.75467 6.9415 8.664C7.0055 8.57333 7.09083 8.49067 7.1975 8.416C7.37883 8.288 7.60283 8.18667 7.8695 8.112C8.1415 8.032 8.42417 7.992 8.7175 7.992C8.96817 7.992 9.20817 8.032 9.4375 8.112C9.66683 8.18667 9.87483 8.30933 10.0615 8.48C10.1042 8.51733 10.1468 8.55467 10.1895 8.592C10.2375 8.62933 10.2722 8.66933 10.2935 8.712C10.3522 8.80267 10.4002 8.90133 10.4375 9.008C10.4802 9.11467 10.5015 9.22133 10.5015 9.328ZM12.7895 9.472V10.232H11.4295V9.512C11.4295 9.352 11.3868 9.23733 11.3015 9.168C11.2162 9.09333 11.1042 9.056 10.9655 9.056C10.8642 9.056 10.7682 9.07733 10.6775 9.12C10.5868 9.15733 10.5122 9.2 10.4535 9.248L9.7095 8.488C9.89617 8.35467 10.1015 8.24 10.3255 8.144C10.5548 8.04267 10.8375 7.992 11.1735 7.992C11.4455 7.992 11.7042 8.04 11.9495 8.136C12.2002 8.232 12.4028 8.38933 12.5575 8.608C12.7122 8.82133 12.7895 9.10933 12.7895 9.472ZM6.8535 9.888H8.2135V11.992C8.15483 12.008 8.0695 12.024 7.9575 12.04C7.85083 12.056 7.7335 12.064 7.6055 12.064C7.34417 12.064 7.15217 12.0187 7.0295 11.928C6.91217 11.8373 6.8535 11.6693 6.8535 11.424V9.888ZM9.1415 9.888H10.5015V11.992C10.4428 12.008 10.3575 12.024 10.2455 12.04C10.1388 12.056 10.0215 12.064 9.8935 12.064C9.63217 12.064 9.44017 12.0187 9.3175 11.928C9.20017 11.8373 9.1415 11.6693 9.1415 11.424V9.888ZM11.4295 9.888H12.7895V11.992C12.7308 12.008 12.6455 12.024 12.5335 12.04C12.4268 12.056 12.3095 12.064 12.1815 12.064C11.9202 12.064 11.7282 12.0187 11.6055 11.928C11.4882 11.8373 11.4295 11.6693 11.4295 11.424V9.888ZM16.9069 10.84C16.9069 11.2453 16.7523 11.5627 16.4429 11.792C16.1389 12.0213 15.6936 12.136 15.1069 12.136C14.6536 12.136 14.2803 12.072 13.9869 11.944C13.6989 11.8107 13.5549 11.6053 13.5549 11.328C13.5549 11.2 13.5816 11.0907 13.6349 11C13.6883 10.9093 13.7523 10.8373 13.8269 10.784C13.9816 10.8693 14.1576 10.9467 14.3549 11.016C14.5576 11.08 14.7896 11.112 15.0509 11.112C15.3923 11.112 15.5629 11.024 15.5629 10.848C15.5629 10.7733 15.5309 10.7147 15.4669 10.672C15.4029 10.6293 15.2963 10.5947 15.1469 10.568L14.9069 10.52C14.4483 10.4293 14.1043 10.2853 13.8749 10.088C13.6456 9.89067 13.5309 9.61333 13.5309 9.256C13.5309 8.856 13.6936 8.544 14.0189 8.32C14.3443 8.096 14.7683 7.984 15.2909 7.984C15.5523 7.984 15.7896 8.01067 16.0029 8.064C16.2216 8.112 16.3949 8.192 16.5229 8.304C16.6509 8.41067 16.7149 8.54933 16.7149 8.72C16.7149 8.83733 16.6909 8.94133 16.6429 9.032C16.6003 9.12267 16.5443 9.19733 16.4749 9.256C16.4163 9.21867 16.3229 9.18133 16.1949 9.144C16.0723 9.10667 15.9389 9.07467 15.7949 9.048C15.6509 9.02133 15.5229 9.008 15.4109 9.008C15.2349 9.008 15.0989 9.02933 15.0029 9.072C14.9069 9.10933 14.8589 9.17067 14.8589 9.256C14.8589 9.31467 14.8856 9.36267 14.9389 9.4C14.9923 9.43733 15.0936 9.472 15.2429 9.504L15.4909 9.56C16.0029 9.67733 16.3656 9.84 16.5789 10.048C16.7976 10.2507 16.9069 10.5147 16.9069 10.84Z" fill="#002CFB"/>
</svg>
