<svg width="16" height="16" viewBox="0 0 16 16" fill="none" xmlns="http://www.w3.org/2000/svg">
<path fill-rule="evenodd" clip-rule="evenodd" d="M9.33325 1.99998C9.33325 1.63179 9.63173 1.33331 9.99992 1.33331H12.6666C13.197 1.33331 13.7057 1.54403 14.0808 1.9191C14.4559 2.29417 14.6666 2.80288 14.6666 3.33331V12.6666C14.6666 13.1971 14.4559 13.7058 14.0808 14.0809C13.7057 14.4559 13.197 14.6666 12.6666 14.6666H9.99992C9.63173 14.6666 9.33325 14.3682 9.33325 14C9.33325 13.6318 9.63173 13.3333 9.99992 13.3333H12.6666C12.8434 13.3333 13.013 13.2631 13.138 13.1381C13.263 13.013 13.3333 12.8435 13.3333 12.6666V3.33331C13.3333 3.1565 13.263 2.98693 13.138 2.86191C13.013 2.73688 12.8434 2.66665 12.6666 2.66665H9.99992C9.63173 2.66665 9.33325 2.36817 9.33325 1.99998ZM6.19518 4.19524C6.45553 3.93489 6.87764 3.93489 7.13799 4.19524L10.4713 7.52858C10.7317 7.78892 10.7317 8.21103 10.4713 8.47138L7.13799 11.8047C6.87764 12.0651 6.45553 12.0651 6.19518 11.8047C5.93483 11.5444 5.93483 11.1223 6.19518 10.8619L8.39044 8.66665H1.99992C1.63173 8.66665 1.33325 8.36817 1.33325 7.99998C1.33325 7.63179 1.63173 7.33331 1.99992 7.33331H8.39044L6.19518 5.13805C5.93483 4.8777 5.93483 4.45559 6.19518 4.19524Z" fill="#091336"/>
</svg>
