<svg width="16" height="16" viewBox="0 0 16 16" fill="none" xmlns="http://www.w3.org/2000/svg">
<path fill-rule="evenodd" clip-rule="evenodd" d="M3.05972 7.84186C3.01943 7.89791 2.98238 7.95078 2.94862 7.99995C2.98238 8.04912 3.01943 8.10199 3.05972 8.15804C3.30899 8.50485 3.67704 8.9664 4.15062 9.42563C5.11008 10.356 6.42029 11.2 7.99995 11.2C9.57961 11.2 10.8898 10.356 11.8493 9.42563C12.3229 8.9664 12.6909 8.50485 12.9402 8.15804C12.9805 8.10199 13.0175 8.04912 13.0513 7.99996C13.0175 7.95079 12.9805 7.89791 12.9402 7.84186C12.6909 7.49505 12.3229 7.0335 11.8493 6.57427C10.8898 5.64388 9.57961 4.79995 7.99995 4.79995C6.42029 4.79995 5.11008 5.64388 4.15062 6.57427C3.67704 7.0335 3.30899 7.49505 3.05972 7.84186ZM14.6969 7.60721C14.6971 7.60748 14.6972 7.60774 14 7.99995C14.6972 8.39216 14.6971 8.39242 14.6969 8.39269L14.6966 8.39332L14.6957 8.39484L14.6933 8.39898L14.6861 8.41157C14.6802 8.42184 14.672 8.43583 14.6617 8.4533C14.6409 8.48824 14.6113 8.53714 14.573 8.598C14.4964 8.71962 14.3848 8.88961 14.2394 9.09186C13.9496 9.49505 13.5208 10.0335 12.9631 10.5743C11.8601 11.6439 10.1703 12.8 7.99995 12.8C5.82961 12.8 4.13982 11.6439 3.03678 10.5743C2.47912 10.0335 2.05029 9.49505 1.7605 9.09186C1.61513 8.88961 1.50348 8.71962 1.42692 8.598C1.38861 8.53714 1.35899 8.48824 1.33825 8.4533C1.32788 8.43583 1.31971 8.42184 1.31378 8.41157L1.30656 8.39898L1.3042 8.39484L1.30334 8.39332L1.30299 8.39269C1.30284 8.39242 1.30269 8.39216 1.99995 7.99995C1.30269 7.60774 1.30284 7.60748 1.30299 7.60721L1.30334 7.60659L1.3042 7.60506L1.30656 7.60092L1.31378 7.58834C1.31971 7.57807 1.32788 7.56407 1.33825 7.5466C1.35899 7.51166 1.38861 7.46277 1.42692 7.40191C1.50348 7.28028 1.61513 7.1103 1.7605 6.90804C2.05029 6.50485 2.47912 5.9664 3.03678 5.42563C4.13982 4.35602 5.82961 3.19995 7.99995 3.19995C10.1703 3.19995 11.8601 4.35602 12.9631 5.42563C13.5208 5.9664 13.9496 6.50485 14.2394 6.90804C14.3848 7.1103 14.4964 7.28028 14.573 7.40191C14.6113 7.46277 14.6409 7.51166 14.6617 7.5466C14.672 7.56407 14.6802 7.57807 14.6861 7.58834L14.6933 7.60092L14.6957 7.60506L14.6966 7.60659L14.6969 7.60721ZM14 7.99995L14.6972 8.39216C14.8342 8.14863 14.8342 7.85127 14.6972 7.60774L14 7.99995ZM1.99995 7.99995L1.30269 7.60774C1.1657 7.85127 1.1657 8.14863 1.30269 8.39216L1.99995 7.99995ZM2.69652 7.60652C2.69643 7.60636 2.69646 7.60641 2.69662 7.60669L2.69652 7.60652ZM2.69664 8.39318C2.69646 8.39348 2.69643 8.39355 2.69652 8.39338L2.69664 8.39318ZM7.99995 9.99995C9.10452 9.99995 9.99995 9.10452 9.99995 7.99995C9.99995 6.89538 9.10452 5.99995 7.99995 5.99995C6.89538 5.99995 5.99995 6.89538 5.99995 7.99995C5.99995 9.10452 6.89538 9.99995 7.99995 9.99995Z" fill="#002CFB"/>
</svg>
