<svg width="16" height="16" viewBox="0 0 16 16" fill="none" xmlns="http://www.w3.org/2000/svg">
<path d="M12 14H13.5C13.7761 14 14 13.7761 14 13.5C14 13.2239 13.7761 13 13.5 13H12.5V11C12.5 10.7239 12.2761 10.5 12 10.5C11.7239 10.5 11.5 10.7239 11.5 11V13.5C11.5 13.7761 11.7239 14 12 14Z" fill="#121922"/>
<path d="M9 12.5602V13.5C9 13.7761 9.22386 14 9.5 14C9.77614 14 10 13.7761 10 13.5V11C10 10.7239 9.77614 10.5 9.5 10.5C9.33852 10.5 9.18699 10.578 9.09313 10.7094L8.25 11.8898L7.40687 10.7094C7.24636 10.4847 6.93409 10.4326 6.70938 10.5931C6.57798 10.687 6.5 10.8385 6.5 11V13.5C6.5 13.7761 6.72386 14 7 14C7.27614 14 7.5 13.7761 7.5 13.5V12.5602L7.84313 13.0406C7.8752 13.0855 7.91448 13.1248 7.95938 13.1569C8.18409 13.3174 8.49636 13.2653 8.65687 13.0406L9 12.5602Z" fill="#121922"/>
<path d="M12.5 5.70711V8.5C12.5 8.77614 12.7239 9 13 9C13.2761 9 13.5 8.77614 13.5 8.5V5.5C13.5 5.36739 13.4473 5.24021 13.3536 5.14645L9.85355 1.64645C9.75979 1.55268 9.63261 1.5 9.5 1.5L3.5 1.5C3.08579 1.5 2.79289 1.79289 2.79289 1.79289C2.5 2.08579 2.5 2.5 2.5 2.5V8.5C2.5 8.77614 2.72386 9 3 9C3.27614 9 3.5 8.77614 3.5 8.5V2.5H9.29289L12.5 5.70711Z" fill="#121922"/>
<path d="M9.5 6H13C13.2761 6 13.5 5.77614 13.5 5.5C13.5 5.22386 13.2761 5 13 5H10V2C10 1.72386 9.77614 1.5 9.5 1.5C9.22386 1.5 9 1.72386 9 2V5.5C9 5.77614 9.22386 6 9.5 6Z" fill="#121922"/>
<path d="M4.85352 11L3 13.5" stroke="#121922" stroke-linecap="round"/>
<path d="M5 13.5L3 11" stroke="#121922" stroke-linecap="round"/>
</svg>
