<svg width="16" height="16" viewBox="0 0 16 16" fill="none" xmlns="http://www.w3.org/2000/svg">
<path d="M7.29831 2.19106L2.29831 7.1153C2.10746 7.30326 2 7.55992 2 7.82778V13.5C2 14.0523 2.44772 14.5 3 14.5H6.13636C6.33719 14.5 6.5 14.3372 6.5 14.1364V12C6.5 11.1716 7.17157 10.5 8 10.5C8.82843 10.5 9.5 11.1716 9.5 12V14.1364C9.5 14.3372 9.66281 14.5 9.86364 14.5H13C13.5523 14.5 14 14.0523 14 13.5V7.82778C14 7.55992 13.8925 7.30325 13.7017 7.1153L8.70169 2.19106C8.31244 1.8077 7.68756 1.8077 7.29831 2.19106Z" stroke="#ADBFDF" stroke-width="1.6" stroke-linejoin="round"/>
</svg>
