<svg width="16" height="16" viewBox="0 0 16 16" fill="none" xmlns="http://www.w3.org/2000/svg">
<path fill-rule="evenodd" clip-rule="evenodd" d="M12.9989 8.00065C12.9989 8.22732 12.9789 8.44065 12.9523 8.65398L14.3589 9.75398C14.4856 9.85398 14.5189 10.034 14.4389 10.1807L13.1056 12.4873C13.0456 12.594 12.9323 12.654 12.8189 12.654C12.7789 12.654 12.7389 12.6473 12.6989 12.634L11.0389 11.9673C10.6923 12.2273 10.3189 12.454 9.91225 12.6207L9.65892 14.3873C9.63892 14.5473 9.49892 14.6673 9.33225 14.6673H6.66558C6.49892 14.6673 6.35892 14.5473 6.33892 14.3873L6.08558 12.6207C5.67892 12.454 5.30558 12.234 4.95892 11.9673L3.29892 12.634C3.26558 12.6473 3.22558 12.654 3.18558 12.654C3.06558 12.654 2.95225 12.594 2.89225 12.4873L1.55892 10.1807C1.47892 10.034 1.51225 9.85398 1.63892 9.75398L3.04558 8.65398C3.01892 8.44065 2.99892 8.22065 2.99892 8.00065C2.99892 7.78065 3.01892 7.56065 3.04558 7.34732L1.63892 6.24732C1.51225 6.14732 1.47225 5.96732 1.55892 5.82065L2.89225 3.51398C2.95225 3.40732 3.06558 3.34732 3.17892 3.34732C3.21892 3.34732 3.25892 3.35398 3.29892 3.36732L4.95892 4.03398C5.30558 3.77398 5.67892 3.54732 6.08558 3.38065L6.33892 1.61398C6.35892 1.45398 6.49892 1.33398 6.66558 1.33398H9.33225C9.49892 1.33398 9.63892 1.45398 9.65892 1.61398L9.91225 3.38065C10.3189 3.54732 10.6923 3.76732 11.0389 4.03398L12.6989 3.36732C12.7323 3.35398 12.7723 3.34732 12.8123 3.34732C12.9323 3.34732 13.0456 3.40732 13.1056 3.51398L14.4389 5.82065C14.5189 5.96732 14.4856 6.14732 14.3589 6.24732L12.9523 7.34732C12.9789 7.56065 12.9989 7.77398 12.9989 8.00065ZM7.99967 6.00065C6.89467 6.00065 5.99967 6.89565 5.99967 8.00065C5.99967 9.10565 6.89467 10.0007 7.99967 10.0007C9.10467 10.0007 9.99967 9.10565 9.99967 8.00065C9.99967 6.89565 9.10467 6.00065 7.99967 6.00065Z" fill="#002CFB"/>
</svg>
