<svg width="16" height="16" viewBox="0 0 16 16" fill="none" xmlns="http://www.w3.org/2000/svg">
<path fill-rule="evenodd" clip-rule="evenodd" d="M8.0002 1.44995C8.44202 1.44995 8.8002 1.80812 8.8002 2.24995V8.70366L11.215 6.53032C11.5434 6.23475 12.0493 6.26137 12.3448 6.58978C12.6404 6.91819 12.6138 7.42402 12.2854 7.71959L8.53537 11.0946C8.23112 11.3684 7.76927 11.3684 7.46502 11.0946L3.71502 7.71959C3.38662 7.42402 3.35999 6.91819 3.65556 6.58978C3.95113 6.26137 4.45696 6.23475 4.78537 6.53032L7.2002 8.70366V2.24995C7.2002 1.80812 7.55837 1.44995 8.0002 1.44995ZM2.0002 10.575C2.44202 10.575 2.8002 10.9331 2.8002 11.375V12.5C2.8002 12.8866 3.1136 13.2 3.5002 13.2H12.5002C12.8868 13.2 13.2002 12.8866 13.2002 12.5V11.375C13.2002 10.9331 13.5584 10.575 14.0002 10.575C14.442 10.575 14.8002 10.9331 14.8002 11.375V12.5C14.8002 13.7702 13.7705 14.8 12.5002 14.8H3.5002C2.22994 14.8 1.2002 13.7702 1.2002 12.5V11.375C1.2002 10.9331 1.55837 10.575 2.0002 10.575Z" fill="#002CFB"/>
</svg>
