<svg width="16" height="16" viewBox="0 0 16 16" fill="none" xmlns="http://www.w3.org/2000/svg">
<path d="M8.62089 4.82067L9.70563 3.73593C10.4121 3.02944 11.5576 3.02944 12.2641 3.73593C12.9706 4.44243 12.9706 5.58788 12.2641 6.29437L10.132 8.42641C9.42554 9.1329 8.28009 9.1329 7.57359 8.42641C7.45702 8.30983 7.35967 8.1813 7.28157 8.04476C7.07793 8.13278 6.88717 8.25999 6.72077 8.42639L6.33701 8.81015C6.44682 8.9759 6.57475 9.13319 6.72078 9.27922C7.89827 10.4567 9.80736 10.4567 10.9848 9.27922L13.1169 7.14719C14.2944 5.9697 14.2944 4.06061 13.1169 2.88312C11.9394 1.70563 10.0303 1.70563 8.85281 2.88312L7.22328 4.51265C7.69956 4.53508 8.17276 4.63775 8.62089 4.82067Z" fill="#121922"/>
<path d="M2.88312 8.85281C1.70563 10.0303 1.70563 11.9394 2.88312 13.1169C4.06061 14.2944 5.9697 14.2944 7.14719 13.1169L8.89589 11.3682C8.40125 11.3732 7.90591 11.2918 7.43443 11.124L6.29437 12.2641C5.58788 12.9706 4.44243 12.9706 3.73593 12.2641C3.02944 11.5576 3.02944 10.4121 3.73593 9.70563L5.86797 7.57359C6.57446 6.8671 7.71991 6.8671 8.42641 7.57359C8.54298 7.69017 8.64032 7.81869 8.71842 7.95522C8.92206 7.8672 9.11281 7.73999 9.27921 7.57359L9.66297 7.18983C9.55317 7.02409 9.42525 6.86681 9.27922 6.72078C8.10173 5.54329 6.19264 5.54329 5.01515 6.72078L2.88312 8.85281Z" fill="#121922"/>
</svg>
