<svg width="16" height="16" viewBox="0 0 16 16" fill="none" xmlns="http://www.w3.org/2000/svg">
<path fill-rule="evenodd" clip-rule="evenodd" d="M5.25 1C3.59315 1 2.25 2.34315 2.25 4V12C2.25 13.6569 3.59315 15 5.25 15H10.75C12.4069 15 13.75 13.6569 13.75 12V5.9714C13.75 5.22907 13.4748 4.51309 12.9775 3.9619L11.1991 1.9905C10.7391 1.48064 10.1219 1.14772 9.45349 1.03894C9.29524 1.01319 9.13413 1 8.97156 1H5.25ZM8.25 2.5H5.25C4.42157 2.5 3.75 3.17157 3.75 4V12C3.75 12.8284 4.42157 13.5 5.25 13.5H10.75C11.5784 13.5 12.25 12.8284 12.25 12V6.75H11C9.48122 6.75 8.25 5.51878 8.25 4V2.5ZM12.0651 5.25H11C10.3096 5.25 9.75 4.69036 9.75 4V2.7178C9.87346 2.79274 9.98664 2.88585 10.0853 2.99525L11.8638 4.96665C11.9422 5.05362 12.0096 5.1488 12.0651 5.25ZM4.75 9C4.75 8.58579 5.08579 8.25 5.5 8.25H10.5C10.9142 8.25 11.25 8.58579 11.25 9C11.25 9.41421 10.9142 9.75 10.5 9.75H5.5C5.08579 9.75 4.75 9.41421 4.75 9ZM4.75 11.5C4.75 11.0858 5.08579 10.75 5.5 10.75H10.5C10.9142 10.75 11.25 11.0858 11.25 11.5C11.25 11.9142 10.9142 12.25 10.5 12.25H5.5C5.08579 12.25 4.75 11.9142 4.75 11.5Z" fill="#002CFB"/>
</svg>
