<svg width="17" height="16" viewBox="0 0 17 16" fill="none" xmlns="http://www.w3.org/2000/svg">
<path fill-rule="evenodd" clip-rule="evenodd" d="M6.5 2V1C6.5 0.447715 6.94772 0 7.5 0H9.5C10.0523 0 10.5 0.447715 10.5 1V2H12H12.1H14C14.2761 2 14.5 2.22386 14.5 2.5V3.29335C14.5 3.56949 14.2761 3.79335 14 3.79335H13.5V5.39335V11C13.5 12.6569 12.1569 14 10.5 14H6.5C4.84315 14 3.5 12.6569 3.5 11V5.39335V3.79335H3C2.72386 3.79335 2.5 3.56949 2.5 3.29335V2.5C2.5 2.22386 2.72386 2 3 2H4.5H4.9H6.5ZM5.1 3.60938V3.79335V11C5.1 11.7732 5.7268 12.4 6.5 12.4H10.5C11.2732 12.4 11.9 11.7732 11.9 11V3.79335V3.60938H5.1ZM8.9 2V1.6H8.1V2H8.9ZM6.5 6C6.5 5.72386 6.72386 5.5 7 5.5H7.5C7.77614 5.5 8 5.72386 8 6V10.5C8 10.7761 7.77614 11 7.5 11H7C6.72386 11 6.5 10.7761 6.5 10.5V6ZM9.5 5.5C9.22386 5.5 9 5.72386 9 6V10.5C9 10.7761 9.22386 11 9.5 11H10C10.2761 11 10.5 10.7761 10.5 10.5V6C10.5 5.72386 10.2761 5.5 10 5.5H9.5Z" fill="white"/>
</svg>
