<svg width="16" height="16" viewBox="0 0 16 16" fill="none" xmlns="http://www.w3.org/2000/svg">
<path fill-rule="evenodd" clip-rule="evenodd" d="M1.2002 12.4998C1.2002 13.7701 2.22994 14.7998 3.5002 14.7998H12.5002C13.7705 14.7998 14.8002 13.7701 14.8002 12.4998V11.4544C14.8002 11.0125 14.442 10.6544 14.0002 10.6544C13.5584 10.6544 13.2002 11.0125 13.2002 11.4544V12.4998C13.2002 12.8864 12.8868 13.1998 12.5002 13.1998H3.5002C3.1136 13.1998 2.8002 12.8864 2.8002 12.4998V11.4544C2.8002 11.0125 2.44202 10.6544 2.0002 10.6544C1.55837 10.6544 1.2002 11.0125 1.2002 11.4544V12.4998ZM8.0002 11.2998C8.44202 11.2998 8.8002 10.9416 8.8002 10.4998V4.2598L11.2242 6.37527C11.5571 6.66579 12.0624 6.63144 12.3529 6.29856C12.6435 5.96568 12.6091 5.46031 12.2762 5.16979L8.52622 1.89707C8.22485 1.63405 7.77554 1.63405 7.47417 1.89707L3.72417 5.16979C3.39128 5.46031 3.35694 5.96568 3.64746 6.29856C3.93797 6.63144 4.44334 6.66579 4.77622 6.37527L7.2002 4.2598V10.4998C7.2002 10.9416 7.55837 11.2998 8.0002 11.2998Z" fill="white"/>
</svg>
