<svg width="16" height="16" viewBox="0 0 16 16" fill="none" xmlns="http://www.w3.org/2000/svg">
<path fill-rule="evenodd" clip-rule="evenodd" d="M8 1C8 1 9.42379 1 10.7249 1.55032C10.7249 1.55032 11.9812 2.08169 12.9497 3.05025C12.9497 3.05025 13.9183 4.01882 14.4497 5.27512C14.4497 5.27512 15 6.57621 15 8C15 8 15 9.42378 14.4497 10.7249C14.4497 10.7249 13.9183 11.9812 12.9497 12.9497C12.9497 12.9497 11.9812 13.9183 10.7249 14.4497C10.7249 14.4497 9.42378 15 8 15C8 15 6.57621 15 5.27512 14.4497C5.27512 14.4497 4.01882 13.9183 3.05025 12.9497C3.05025 12.9497 2.08168 11.9812 1.55032 10.7249C1.55032 10.7249 1 9.42379 1 8C1 8 1 6.57621 1.55032 5.27512C1.55032 5.27512 2.08169 4.01882 3.05025 3.05025C3.05025 3.05025 4.01882 2.08169 5.27512 1.55032C5.27512 1.55032 6.57621 1 8 1ZM8 2.07692C8 2.07692 6.7946 2.07692 5.69464 2.54217C5.69464 2.54217 4.63179 2.99171 3.81175 3.81175C3.81175 3.81175 2.99171 4.63179 2.54217 5.69464C2.54217 5.69464 2.07692 6.7946 2.07692 8C2.07692 8 2.07692 9.2054 2.54217 10.3054C2.54217 10.3054 2.99171 11.3682 3.81175 12.1882C3.81175 12.1882 4.63179 13.0083 5.69464 13.4578C5.69464 13.4578 6.7946 13.9231 8 13.9231C8 13.9231 9.2054 13.9231 10.3054 13.4578C10.3054 13.4578 11.3682 13.0083 12.1882 12.1882C12.1882 12.1882 13.0083 11.3682 13.4578 10.3054C13.4578 10.3054 13.9231 9.2054 13.9231 8C13.9231 8 13.9231 6.7946 13.4578 5.69464C13.4578 5.69464 13.0083 4.63179 12.1882 3.81175C12.1882 3.81175 11.3682 2.99171 10.3054 2.54217C10.3054 2.54217 9.2054 2.07692 8 2.07692Z" fill="#F89500"/>
<path d="M8 8.53846H11.7692C12.0666 8.53846 12.3077 8.29738 12.3077 8C12.3077 7.70262 12.0666 7.46154 11.7692 7.46154H8.53846V4.23077C8.53846 3.93339 8.29738 3.69231 8 3.69231C7.70262 3.69231 7.46154 3.93339 7.46154 4.23077V8C7.46154 8.29738 7.70262 8.53846 8 8.53846Z" fill="#F89500"/>
</svg>
