<svg width="24" height="24" viewBox="0 0 24 24" fill="none" xmlns="http://www.w3.org/2000/svg">
<path fill-rule="evenodd" clip-rule="evenodd" d="M8.55091 20.3137C8.55091 20.3137 8.22483 20.1771 7.21043 20.1632C7.21043 20.1632 6.34312 20.1514 5.91651 20.0734C5.91651 20.0734 5.07812 19.92 4.57905 19.421C4.57905 19.421 4.07696 18.9189 3.92133 18.0661C3.92133 18.0661 3.84221 17.6326 3.82849 16.7524C3.82849 16.7524 3.81292 15.7534 3.68564 15.4474C3.68564 15.4474 3.5557 15.135 2.84774 14.3943C2.84774 14.3943 2.23893 13.7574 1.99103 13.3991C1.99103 13.3991 1.5 12.6896 1.5 12C1.5 12 1.5 11.3134 1.98313 10.6142C1.98313 10.6142 2.22733 10.2607 2.82932 9.63254C2.82932 9.63254 3.54698 8.88368 3.68634 8.5509C3.68634 8.5509 3.82291 8.22483 3.83677 7.21043C3.83677 7.21043 3.84863 6.34313 3.92665 5.91651C3.92665 5.91651 4.07997 5.07812 4.57905 4.57905C4.57905 4.57905 5.08113 4.07696 5.93386 3.92133C5.93386 3.92133 6.36737 3.84221 7.24756 3.82849C7.24756 3.82849 8.24659 3.81292 8.5526 3.68564C8.5526 3.68564 8.865 3.5557 9.60569 2.84774C9.60569 2.84774 10.2426 2.23894 10.6009 1.99103C10.6009 1.99103 11.3104 1.5 12 1.5C12 1.5 12.6866 1.5 13.3858 1.98313C13.3858 1.98313 13.7393 2.22733 14.3675 2.82932C14.3675 2.82932 15.1163 3.54698 15.4491 3.68634C15.4491 3.68634 15.7752 3.82291 16.7896 3.83677C16.7896 3.83677 17.6569 3.84863 18.0835 3.92665C18.0835 3.92665 18.9219 4.07997 19.421 4.57904C19.421 4.57904 19.923 5.08113 20.0787 5.93386C20.0787 5.93386 20.1578 6.36739 20.1715 7.24756C20.1715 7.24756 20.1871 8.24658 20.3144 8.5526C20.3144 8.5526 20.4443 8.865 21.1523 9.60569C21.1523 9.60569 21.7611 10.2426 22.009 10.6009C22.009 10.6009 22.5 11.3104 22.5 12C22.5 12 22.5 12.6866 22.0169 13.3858C22.0169 13.3858 21.7727 13.7393 21.1707 14.3675C21.1707 14.3675 20.453 15.1163 20.3137 15.4491C20.3137 15.4491 20.1771 15.7752 20.1632 16.7896C20.1632 16.7896 20.1514 17.6569 20.0734 18.0835C20.0734 18.0835 19.92 18.9219 19.421 19.421C19.421 19.421 18.9189 19.923 18.0661 20.0787C18.0661 20.0787 17.6326 20.1578 16.7524 20.1715C16.7524 20.1715 15.7534 20.1871 15.4474 20.3144C15.4474 20.3144 15.135 20.4443 14.3943 21.1523C14.3943 21.1523 13.7574 21.7611 13.3991 22.009C13.3991 22.009 12.6896 22.5 12 22.5C12 22.5 11.3134 22.5 10.6142 22.0169C10.6142 22.0169 10.2607 21.7727 9.63254 21.1707C9.63254 21.1707 8.88368 20.453 8.55091 20.3137ZM9.13035 18.9301C9.13035 18.9301 9.72025 19.1772 10.6704 20.0877C10.6704 20.0877 11.6224 21 12 21C12 21 12.3827 21 13.3579 20.0679C13.3579 20.0679 14.3007 19.1667 14.8713 18.9294C14.8713 18.9294 15.4427 18.6917 16.7291 18.6717C16.7291 18.6717 18.0698 18.6508 18.3603 18.3603C18.3603 18.3603 18.6455 18.0751 18.6634 16.7691C18.6634 16.7691 18.6812 15.4639 18.9301 14.8697C18.9301 14.8697 19.1771 14.2797 20.0877 13.3296C20.0877 13.3296 21 12.3776 21 12C21 12 21 11.6173 20.0679 10.6421C20.0679 10.6421 19.1667 9.69927 18.9294 9.12865C18.9294 9.12865 18.6917 8.5573 18.6717 7.27094C18.6717 7.27094 18.6508 5.93021 18.3603 5.6397C18.3603 5.6397 18.0751 5.35449 16.7691 5.33663C16.7691 5.33663 15.4639 5.31879 14.8697 5.06991C14.8697 5.06991 14.2797 4.82285 13.3296 3.9123C13.3296 3.9123 12.3776 3 12 3C12 3 11.6173 3 10.6421 3.93208C10.6421 3.93208 9.69927 4.83328 9.12865 5.07061C9.12865 5.07061 8.5573 5.30825 7.27094 5.32831C7.27094 5.32831 5.9302 5.34921 5.6397 5.63971C5.6397 5.63971 5.35449 5.92492 5.33663 7.23093C5.33663 7.23093 5.31879 8.53607 5.06991 9.13035C5.06991 9.13035 4.82285 9.72026 3.9123 10.6704C3.9123 10.6704 3 11.6224 3 12C3 12 3 12.3827 3.93208 13.3579C3.93208 13.3579 4.83328 14.3007 5.07061 14.8713C5.07061 14.8713 5.30825 15.4427 5.32831 16.7291C5.32831 16.7291 5.34921 18.0698 5.63971 18.3603C5.63971 18.3603 5.92493 18.6455 7.23093 18.6634C7.23093 18.6634 8.53608 18.6812 9.13035 18.9301Z" fill="#28A879"/>
<path d="M8.39316 11.8328C8.25362 11.6994 8.06802 11.625 7.875 11.625C7.87484 11.625 7.85799 11.6252 7.85799 11.6252C7.65913 11.6297 7.4702 11.713 7.33278 11.8568C7.19942 11.9964 7.125 12.182 7.125 12.375L7.12519 12.392C7.1297 12.5909 7.21303 12.7798 7.35684 12.9172L10.1037 15.5422C10.3934 15.8191 10.8496 15.8193 11.1396 15.5427L16.6425 10.2928C16.7864 10.1555 16.8701 9.96651 16.8748 9.76765C16.8751 9.75564 16.8751 9.74362 16.8748 9.73161C16.8702 9.54522 16.7964 9.36721 16.6677 9.2323C16.5261 9.08394 16.33 9 16.125 9L16.1038 9.0003C15.9184 9.00553 15.7415 9.0793 15.6073 9.20734L10.6223 13.963L8.39316 11.8328Z" fill="#28A879"/>
</svg>
