<svg width="16" height="16" viewBox="0 0 16 16" fill="none" xmlns="http://www.w3.org/2000/svg">
<path d="M9.39648 1.85004C10.7181 0.656061 12.7583 0.69582 14.0322 1.96918L14.1514 2.09516C15.3073 3.37427 15.308 5.32665 14.1523 6.6059L14.0322 6.73188L8.93359 11.8286C8.87427 11.8879 8.81255 11.9443 8.75 11.9995H17.5C17.776 11.9995 17.9998 12.2235 18 12.4995V13.4995C18 13.7756 17.7761 13.9995 17.5 13.9995H2.5C2.22386 13.9995 2 13.7756 2 13.4995V12.4995C2.00018 12.2235 2.22397 11.9995 2.5 11.9995H3.26953C3.09926 11.7053 3.00011 11.3647 3 11.0004V9.89594C3 8.83498 3.42162 7.817 4.17188 7.06684L9.27148 1.96918L9.39648 1.85004ZM5.58594 8.48188C5.21104 8.85692 5 9.36563 5 9.89594V11.0004H6.10547C6.63565 11.0004 7.14451 10.7892 7.51953 10.4145L11.7432 6.19184L9.80957 4.25922L5.58594 8.48188ZM12.6182 3.38324C12.1072 2.87276 11.2937 2.8519 10.7568 3.31879L12.6836 5.2436L12.7119 5.21332C13.1208 4.71212 13.1207 3.98897 12.7119 3.48774L12.6182 3.38324Z" fill="#002CFB"/>
</svg>
