<svg width="14" height="14" viewBox="0 0 14 14" fill="none" xmlns="http://www.w3.org/2000/svg">
<path fill-rule="evenodd" clip-rule="evenodd" d="M7 0C7 0 8.42379 0 9.72488 0.550316C9.72488 0.550316 10.9812 1.08169 11.9497 2.05025C11.9497 2.05025 12.9183 3.01882 13.4497 4.27512C13.4497 4.27512 14 5.57621 14 7C14 7 14 8.42378 13.4497 9.72488C13.4497 9.72488 12.9183 10.9812 11.9497 11.9497C11.9497 11.9497 10.9812 12.9183 9.72488 13.4497C9.72488 13.4497 8.42378 14 7 14C7 14 5.57621 14 4.27512 13.4497C4.27512 13.4497 3.01882 12.9183 2.05025 11.9497C2.05025 11.9497 1.08168 10.9812 0.550316 9.72488C0.550316 9.72488 0 8.42379 0 7C0 7 0 5.57621 0.550316 4.27512C0.550316 4.27512 1.08169 3.01882 2.05025 2.05025C2.05025 2.05025 3.01882 1.08169 4.27512 0.550315C4.27512 0.550315 5.57621 0 7 0ZM7 1.07692C7 1.07692 5.7946 1.07692 4.69464 1.54217C4.69464 1.54217 3.63179 1.99171 2.81175 2.81175C2.81175 2.81175 1.99171 3.63179 1.54217 4.69464C1.54217 4.69464 1.07692 5.7946 1.07692 7C1.07692 7 1.07692 8.2054 1.54217 9.30536C1.54217 9.30536 1.99171 10.3682 2.81175 11.1882C2.81175 11.1882 3.63179 12.0083 4.69464 12.4578C4.69464 12.4578 5.7946 12.9231 7 12.9231C7 12.9231 8.2054 12.9231 9.30536 12.4578C9.30536 12.4578 10.3682 12.0083 11.1882 11.1882C11.1882 11.1882 12.0083 10.3682 12.4578 9.30536C12.4578 9.30536 12.9231 8.2054 12.9231 7C12.9231 7 12.9231 5.7946 12.4578 4.69464C12.4578 4.69464 12.0083 3.63179 11.1882 2.81175C11.1882 2.81175 10.3682 1.99171 9.30536 1.54217C9.30536 1.54217 8.2054 1.07692 7 1.07692Z" fill="#E10D0D"/>
<path d="M2.0491 2.8106L11.1894 11.9509C11.2904 12.0519 11.4274 12.1086 11.5702 12.1086C11.713 12.1086 11.8499 12.0519 11.9509 11.9509C12.0519 11.8499 12.1086 11.713 12.1086 11.5702C12.1086 11.4274 12.0519 11.2904 11.9509 11.1894L2.8106 2.0491C2.70955 1.94805 2.57259 1.89132 2.42978 1.89132C2.28697 1.89132 2.15001 1.94805 2.04903 2.04903C1.94805 2.15001 1.89132 2.28697 1.89132 2.42978C1.89132 2.57259 1.94805 2.70955 2.0491 2.8106Z" fill="#E10D0D"/>
</svg>
