<svg width="24" height="24" viewBox="0 0 24 24" fill="none" xmlns="http://www.w3.org/2000/svg">
<path d="M8.25039 6.75H5.91713C5.55048 6.75 5.25049 7.05 5.25049 7.41667C5.25049 13.6767 10.3236 18.75 16.5834 18.75C16.9501 18.75 17.2501 18.45 17.2501 18.0833V15.7567C17.2501 15.39 16.9501 15.09 16.5834 15.09C15.7568 15.09 14.9502 14.9567 14.2035 14.71C14.1369 14.6833 14.0635 14.6767 13.9969 14.6767C13.8235 14.6767 13.6569 14.7433 13.5235 14.87L12.0569 16.3367C10.1703 15.37 8.62371 13.83 7.66374 11.9433L9.13036 10.4767C9.31702 10.29 9.37035 10.03 9.29702 9.79667C9.05036 9.05 8.91703 8.25 8.91703 7.41667C8.91703 7.05 8.61704 6.75 8.25039 6.75Z" fill="#ADBFDF"/>
<path fill-rule="evenodd" clip-rule="evenodd" d="M16.6125 11.4167C16.6125 9.19145 14.8086 7.38755 12.5835 7.38755V6.11255C15.5128 6.11255 17.8875 8.48733 17.8875 11.4167H16.6125Z" fill="#ADBFDF"/>
<path fill-rule="evenodd" clip-rule="evenodd" d="M13.9459 11.4168C13.9459 10.6643 13.3359 10.0543 12.5835 10.0543V8.7793C14.0401 8.7793 15.2209 9.96017 15.2209 11.4168H13.9459Z" fill="#ADBFDF"/>
</svg>
