<svg width="16" height="16" viewBox="0 0 16 16" fill="none" xmlns="http://www.w3.org/2000/svg">
<path fill-rule="evenodd" clip-rule="evenodd" d="M9.65455 2.21674C8.00768 1.77546 6.25102 2.01374 4.77101 2.87916C3.291 3.74458 2.20888 5.16625 1.7627 6.83142L0.378555 6.46054C0.122381 6.3919 -0.0903254 6.66504 0.0389855 6.89659L1.52273 9.55344C1.60458 9.7 1.79075 9.75089 1.93577 9.66633L4.59054 8.11839C4.82089 7.98408 4.77464 7.63846 4.51707 7.56945L3.1426 7.20116C3.48963 5.90603 4.33128 4.80029 5.48239 4.12718C6.63351 3.45408 7.9998 3.26875 9.2807 3.61197C10.4967 3.93779 11.5412 4.71461 12.2089 5.78365C12.2678 5.87807 12.391 5.91143 12.4871 5.85523L13.3819 5.33203C13.4765 5.27671 13.5092 5.15534 13.452 5.06183C12.5952 3.66007 11.238 2.64101 9.65455 2.21674ZM6.3302 14.2642C7.97707 14.7055 9.73373 14.4672 11.2137 13.6018C12.6937 12.7364 13.7759 11.3147 14.222 9.64954L15.6062 10.0204C15.8624 10.0891 16.0751 9.81591 15.9458 9.58436L14.462 6.92751C14.3802 6.78095 14.194 6.73007 14.049 6.81462L11.3942 8.36256C11.1639 8.49688 11.2101 8.84249 11.4677 8.9115L12.8422 9.27979C12.4951 10.5749 11.6535 11.6807 10.5024 12.3538C9.35124 13.0269 7.98494 13.2122 6.70405 12.869C5.48806 12.5432 4.44359 11.7663 3.7759 10.6973C3.71692 10.6029 3.59376 10.5695 3.49766 10.6257L2.6029 11.1489C2.50829 11.2042 2.47557 11.3256 2.53273 11.4191C3.38958 12.8209 4.74679 13.8399 6.3302 14.2642Z" fill="#ADBFDF"/>
</svg>
