<svg width="16" height="16" viewBox="0 0 16 16" fill="none" xmlns="http://www.w3.org/2000/svg">
<path fill-rule="evenodd" clip-rule="evenodd" d="M13.2071 14.2071C13.2071 14.2071 12.9142 14.5 12.5 14.5H3.5C3.5 14.5 3.08579 14.5 2.79289 14.2071C2.79289 14.2071 2.5 13.9142 2.5 13.5V2.5C2.5 2.5 2.5 2.08579 2.79289 1.79289C2.79289 1.79289 3.08579 1.5 3.5 1.5H9.5C9.63261 1.5 9.75979 1.55268 9.85355 1.64645L13.3536 5.14645C13.4473 5.24021 13.5 5.36739 13.5 5.5V13.5C13.5 13.5 13.5 13.9142 13.2071 14.2071ZM12.5 13.5V5.70711L9.29289 2.5H3.5V13.5H12.5Z" fill="#121922"/>
<path d="M9.5 6H13C13.2761 6 13.5 5.77614 13.5 5.5C13.5 5.22386 13.2761 5 13 5H10V2C10 1.72386 9.77614 1.5 9.5 1.5C9.22386 1.5 9 1.72386 9 2V5.5C9 5.77614 9.22386 6 9.5 6Z" fill="#121922"/>
</svg>
