<svg width="18" height="16" viewBox="0 0 18 16" fill="none" xmlns="http://www.w3.org/2000/svg">
<path d="M9.27148 1.96875C10.5864 0.654531 12.7174 0.654457 14.0322 1.96875C15.3476 3.28381 15.3477 5.41639 14.0322 6.73145L8.93359 11.8281C8.87394 11.8878 8.81194 11.9446 8.74902 12H17.5C17.7761 12 18 12.2239 18 12.5V13.5C17.9998 13.776 17.776 14 17.5 14H2.5C2.22396 14 2.00016 13.776 2 13.5V12.5C2 12.2239 2.22386 12 2.5 12H3.26953C3.09904 11.7056 3.00005 11.3646 3 11V9.89551C3 8.83447 3.42151 7.81658 4.17188 7.06641L9.27148 1.96875ZM5.58594 8.48145C5.21093 8.85651 5 9.36512 5 9.89551V11H6.10547C6.63573 11 7.14449 10.7889 7.51953 10.4141L11.7422 6.19238L9.80859 4.25977L5.58594 8.48145ZM12.6182 3.38281C12.1072 2.87238 11.2937 2.85162 10.7568 3.31836L12.6836 5.24414C13.1497 4.70693 13.1289 3.89345 12.6182 3.38281Z" fill="#121922"/>
</svg>
