<svg width="16" height="16" viewBox="0 0 16 16" fill="none" xmlns="http://www.w3.org/2000/svg">
<path fill-rule="evenodd" clip-rule="evenodd" d="M11.9611 2.32963C10.8777 1.24618 9.12397 1.23492 8.02656 2.30424L6.8752 3.42631L6.29512 3.99174L6.30195 3.99858L2.01973 8.28276C1.49464 8.80785 1.19943 9.51966 1.19941 10.2622V12.9996C1.19941 13.9937 2.00511 14.7994 2.99922 14.7994H5.73652C6.47911 14.7993 7.19092 14.5041 7.71602 13.979L11.9992 9.69584L12.007 9.70366L12.5725 9.12358L12.6311 9.06498L12.6301 9.06401L13.6945 7.97221C14.7638 6.8748 14.7526 5.1211 13.6691 4.03764L11.9611 2.32963ZM9.14375 3.45073C9.61407 2.99245 10.365 2.99713 10.8293 3.46147L12.5373 5.16948C13.0016 5.63381 13.0063 6.3847 12.548 6.85502L11.9914 7.42631L8.57148 4.00639L9.14375 3.45073ZM2.99922 13.1997C2.88876 13.1997 2.79902 13.11 2.79902 12.9996V10.2622C2.79904 9.94401 2.92556 9.63865 3.15059 9.41362L6.93281 5.63041L10.3674 9.06498L6.58516 12.8482C6.36012 13.0732 6.05477 13.1997 5.73652 13.1997H2.99922ZM10.4992 14.7996C10.2231 14.7996 9.99922 14.5757 9.99922 14.2996V13.6996C9.99922 13.4234 10.2231 13.1996 10.4992 13.1996H14.4992C14.7754 13.1996 14.9992 13.4234 14.9992 13.6996V14.2996C14.9992 14.5757 14.7754 14.7996 14.4992 14.7996H10.4992Z" fill="white"/>
</svg>
