<svg width="21" height="20" viewBox="0 0 21 20" fill="none" xmlns="http://www.w3.org/2000/svg">
<path fill-rule="evenodd" clip-rule="evenodd" d="M19.9732 9.7716C19.9732 9.7716 19.809 9.96283 19.5836 10.0755L19.5827 10.0759L17.6526 11.0371C17.348 11.1888 16.9779 11.0688 16.8202 10.7672L14.3202 5.98596L14.315 5.97587C14.1606 5.66713 14.2858 5.29171 14.5945 5.13734L16.5433 4.16296C16.5433 4.16296 16.9994 3.93048 17.4868 4.08684C17.4868 4.08684 17.9743 4.24319 18.2093 4.69607L20.1296 8.37281C20.1296 8.37281 20.2477 8.59602 20.2699 8.84757C20.2699 8.84757 20.2921 9.09913 20.2149 9.33956C20.2149 9.33956 20.1377 9.57999 19.9732 9.7716ZM19.0247 8.9574L17.1041 5.28009L15.7228 5.97075L17.644 9.64499L19.0247 8.9574Z" fill="#002CFB"/>
<path fill-rule="evenodd" clip-rule="evenodd" d="M6.6781 5.8996L4.1781 10.6887C4.02015 10.9912 3.64868 11.1111 3.34364 10.958L1.41395 9.98925C1.41395 9.98925 1.1927 9.88084 1.0274 9.69017C1.0274 9.69017 0.862097 9.49949 0.784298 9.25943C0.784298 9.25943 0.7065 9.01937 0.728542 8.76797C0.728542 8.76797 0.750585 8.51658 0.868973 8.29372L2.78881 4.6179C2.78881 4.6179 3.02285 4.16804 3.50533 4.00873C3.50533 4.00873 3.98781 3.84943 4.4446 4.07191L6.40356 5.05135C6.7123 5.20572 6.83744 5.58114 6.68307 5.88988L6.6781 5.8996ZM3.89725 5.1957L5.27568 5.88495L3.35468 9.56486L1.9766 8.87303L3.89679 5.19659L3.89725 5.1957Z" fill="#002CFB"/>
<path d="M4.00872 9.90682L8.28207 13.2427L8.29144 13.2502L12.7912 14.3751C12.7986 14.3759 12.8059 14.3739 12.8059 14.3739C12.8131 14.3719 12.819 14.3675 12.819 14.3675L15.6644 11.5221L16.8981 10.0725C17.0055 9.94624 17.1587 9.86785 17.3239 9.85456C17.3406 9.85322 17.3573 9.85255 17.374 9.85255C17.5225 9.85255 17.6661 9.90538 17.7791 10.0016C17.9054 10.109 17.9837 10.2622 17.997 10.4274C17.9983 10.4437 17.999 10.46 17.999 10.4763L17.999 10.4775C17.999 10.626 17.9462 10.7696 17.85 10.8826L16.6 12.3514C16.5892 12.3641 16.5778 12.3764 16.566 12.3882L13.691 15.2632C13.6861 15.2682 13.681 15.273 13.6759 15.2778C13.4444 15.4943 13.1388 15.5788 13.1388 15.5788C12.8332 15.6632 12.5234 15.5963 12.5234 15.5963C12.5168 15.5949 12.5102 15.5933 12.5037 15.5917L7.97246 14.4589L7.95623 14.4546C7.70524 14.3846 7.5129 14.228 7.5129 14.228L3.23955 10.8922C3.08774 10.7736 2.99905 10.5919 2.99905 10.3994C2.99905 10.2779 3.03445 10.1591 3.10092 10.0574C3.11048 10.0428 3.12064 10.0286 3.13138 10.0148C3.24982 9.86311 3.43157 9.77442 3.62405 9.77442C3.74553 9.77442 3.86437 9.80982 3.96605 9.8763C3.98066 9.88585 3.99487 9.89601 4.00872 9.90682Z" fill="#002CFB"/>
<path d="M11.6954 6.32137H14.874C15.2192 6.32137 15.499 6.04154 15.499 5.69637C15.499 5.35119 15.2192 5.07137 14.874 5.07137H11.6943C11.4491 5.0705 11.2203 5.1645 11.2203 5.1645C10.9914 5.2585 10.816 5.43302 10.816 5.43302L7.75297 8.48823C7.55808 8.68822 7.46567 8.94216 7.46567 8.94216C7.37325 9.1961 7.3933 9.46559 7.3933 9.46559C7.41334 9.73509 7.54231 9.97256 7.54231 9.97256C7.67127 10.21 7.8864 10.3736 7.8864 10.3736L8.30859 10.6941C9.14632 11.3194 10.1865 11.3194 10.1865 11.3194C11.2267 11.3194 12.0604 10.6972 12.0604 10.6972L12.6922 10.2233L15.7563 12.4517C15.8633 12.5295 15.9919 12.5714 16.124 12.5714C16.1351 12.5714 16.1462 12.5711 16.1572 12.5705C16.3453 12.5605 16.5187 12.4662 16.6295 12.314C16.7072 12.2071 16.749 12.0785 16.749 11.9464C16.749 11.9353 16.7487 11.9242 16.7482 11.9132C16.7382 11.7251 16.6439 11.5517 16.4916 11.4409L13.0541 8.94091C12.8322 8.77952 12.531 8.78174 12.3115 8.94637L11.3127 9.69549C10.8117 10.0694 10.1865 10.0694 10.1865 10.0694C9.56137 10.0694 9.06448 9.69859 9.06448 9.69859L8.64292 9.37852C8.64158 9.3775 8.64078 9.37602 8.64078 9.37602C8.63998 9.37455 8.63985 9.37288 8.63985 9.37288C8.63973 9.3712 8.6403 9.36962 8.6403 9.36962C8.63999 9.36936 8.63677 9.3722 8.63677 9.3722L11.6954 6.32137Z" fill="#002CFB"/>
<path d="M13.0533 6.26551C13.1344 6.30232 13.2225 6.32136 13.3116 6.32136C13.3222 6.32136 13.3329 6.32109 13.3436 6.32054C13.5769 6.30858 13.7841 6.16742 13.8807 5.95462C13.9175 5.8735 13.9366 5.78544 13.9366 5.69636L13.9365 5.68609C13.9353 5.61447 13.9218 5.54358 13.8966 5.47653C13.8383 5.32136 13.7208 5.19571 13.5698 5.12721L10.8667 3.90065C10.4476 3.71125 10.0065 3.83777 10.0065 3.83777L5.99565 5.01051C5.83643 5.05706 5.70232 5.16488 5.62272 5.31027C5.57234 5.40229 5.54593 5.50552 5.54593 5.61043L5.54601 5.62038C5.5469 5.6764 5.55532 5.73205 5.57105 5.78583C5.64896 6.05229 5.89331 6.23543 6.17093 6.23543L6.1745 6.23542C6.23267 6.23508 6.2905 6.22663 6.34633 6.21031L10.351 5.03933L13.0533 6.26551Z" fill="#002CFB"/>
<path d="M5.28354 13.9038C5.16988 13.8053 5.02449 13.751 4.87405 13.751C4.85926 13.751 4.84448 13.7515 4.82973 13.7526C4.66438 13.7643 4.51048 13.8413 4.40188 13.9665C4.30331 14.0802 4.24905 14.2256 4.24905 14.376C4.24905 14.3908 4.24957 14.4056 4.25062 14.4203C4.26237 14.5857 4.33933 14.7396 4.46456 14.8482L6.23018 16.3794C6.4524 16.5781 6.75088 16.6477 6.75088 16.6477L9.09604 17.2398C9.14606 17.2524 9.19746 17.2588 9.24905 17.2588C9.2556 17.2588 9.26214 17.2587 9.26869 17.2585C9.5475 17.2498 9.78674 17.0573 9.85503 16.7868C9.86766 16.7368 9.87405 16.6854 9.87405 16.6338C9.87405 16.6242 9.87383 16.6147 9.87339 16.6051C9.86865 16.5022 9.83854 16.402 9.78573 16.3135C9.70078 16.1712 9.56277 16.0684 9.40205 16.0278L7.05049 15.4341L7.047 15.4332L5.28354 13.9038Z" fill="#002CFB"/>
</svg>
