<svg width="16" height="16" viewBox="0 0 16 16" fill="none" xmlns="http://www.w3.org/2000/svg">
<path d="M6 8.5C6.50396 8.5 7.0297 8.56562 7.54297 8.68555C9.34881 9.10756 11 10.2041 11 11.5V12C11 13.1046 10.1046 14 9 14H3C1.89543 14 1 13.1046 1 12V11.5C1 10.2041 2.65119 9.10756 4.45703 8.68555C4.9703 8.56562 5.49604 8.5 6 8.5ZM10.6279 9C12.3499 9.19286 15 10 15 11.75V12C15 13.1046 14.1046 14 13 14H11.5C11.5 14 12.0928 12.75 12.0928 11.75C12.0928 10.75 11.4399 9.6 10.6279 9ZM6 10C5.12126 10 4.12406 10.2665 3.38086 10.6836C3.01336 10.8899 2.76664 11.1009 2.62695 11.2734C2.55999 11.3562 2.5274 11.4176 2.5127 11.4541C2.50557 11.4718 2.50224 11.484 2.50098 11.4902C2.49984 11.496 2.5 11.4989 2.5 11.5V12C2.5 12.2761 2.72386 12.5 3 12.5H9C9.27614 12.5 9.5 12.2761 9.5 12V11.5C9.5 11.4989 9.50016 11.496 9.49902 11.4902C9.49776 11.484 9.49443 11.4718 9.4873 11.4541C9.4726 11.4176 9.44001 11.3562 9.37305 11.2734C9.23336 11.1009 8.98664 10.8899 8.61914 10.6836C7.87594 10.2665 6.87874 10 6 10ZM6 2.5C7.351 2.5 8.5 3.62143 8.5 5C8.5 5.88776 8.02332 6.66863 7.32324 7.1123C6.9362 7.35759 6.48099 7.5 6 7.5C5.51901 7.5 5.0638 7.35759 4.67676 7.1123C3.97668 6.66863 3.5 5.88776 3.5 5C3.5 3.62143 4.649 2.5 6 2.5ZM10.0996 2.5C11.4506 2.5 12.5498 3.62143 12.5498 5C12.5498 6.37857 11.4506 7.5 10.0996 7.5C9.72175 7.49994 9.3717 7.40709 9.0498 7.25C9.4908 6.61429 9.75 5.83571 9.75 5C9.75 4.16429 9.4908 3.38571 9.0498 2.75C9.3717 2.59291 9.72175 2.50006 10.0996 2.5ZM6 4C5.46668 4 5 4.46056 5 5C5 5.53944 5.46668 6 6 6C6.53332 6 7 5.53944 7 5C7 4.46056 6.53332 4 6 4Z" fill="#ADBFDF"/>
</svg>
