<svg width="16" height="16" viewBox="0 0 16 16" fill="none" xmlns="http://www.w3.org/2000/svg">
<path d="M6.35337 8.35374C6.44713 8.25997 6.5 8.13261 6.5 8C6.5 7.86739 6.44732 7.74021 6.35355 7.64645L6.34924 7.64218C6.25587 7.5512 6.13037 7.5 6 7.5C5.985 7.5 5.97001 7.50068 5.95507 7.50202C5.83846 7.51254 5.72924 7.56365 5.64645 7.64645L2.64645 10.6464C2.55268 10.7402 2.5 10.8674 2.5 11C2.5 11.1326 2.55268 11.2598 2.64645 11.3536L5.64645 14.3536C5.74021 14.4473 5.86739 14.5 6 14.5C6.13261 14.5 6.25979 14.4473 6.35355 14.3536C6.44732 14.2598 6.5 14.1326 6.5 14C6.5 13.8674 6.44732 13.7402 6.35355 13.6464L3.70711 11L6.35337 8.35374Z" fill="#002CFB"/>
<path d="M11.5 10.5H3C2.72386 10.5 2.5 10.7239 2.5 11C2.5 11.2761 2.72386 11.5 3 11.5H12C12.2761 11.5 12.5 11.2761 12.5 11V2C12.5 1.72386 12.2761 1.5 12 1.5C11.7239 1.5 11.5 1.72386 11.5 2V10.5Z" fill="#002CFB"/>
</svg>
