<svg width="16" height="16" viewBox="0 0 16 16" fill="none" xmlns="http://www.w3.org/2000/svg">
<path fill-rule="evenodd" clip-rule="evenodd" d="M11.069 7.20084L8.6251 4.75699C8.50795 4.63983 8.50795 4.44988 8.6251 4.33272L9.33221 3.62562C9.44937 3.50846 9.63932 3.50846 9.75648 3.62562L13.9196 7.78871C14.0367 7.90587 14.0367 8.09582 13.9196 8.21297L9.75647 12.3761C9.63932 12.4932 9.44937 12.4932 9.33221 12.3761L8.6251 11.669C8.50795 11.5518 8.50795 11.3619 8.6251 11.2447L11.069 8.80084L2.30033 8.80084C2.13464 8.80084 2.00033 8.66653 2.00033 8.50084L2.00033 7.50084C2.00033 7.33516 2.13464 7.20084 2.30033 7.20084L11.069 7.20084Z" fill="white"/>
</svg>
