<svg width="16" height="16" viewBox="0 0 16 16" fill="none" xmlns="http://www.w3.org/2000/svg">
<path d="M8.02734 2.30491C9.12476 1.23559 10.8785 1.24684 11.9619 2.3303L13.6699 4.03831C14.7533 5.12177 14.7646 6.87551 13.6953 7.97288L12.6309 9.06467L12.6318 9.06565L12.5732 9.12424L12.0078 9.70432L12 9.69651L7.7168 13.9797C7.19174 14.5046 6.47974 14.8 5.7373 14.8H3C2.00613 14.7999 1.20044 13.9941 1.2002 13.0002V10.2629C1.20021 9.52048 1.49562 8.80848 2.02051 8.28342L6.30273 3.99924L6.2959 3.99241L6.87598 3.42698L8.02734 2.30491ZM14.5 13.1994C14.776 13.1994 14.9998 13.4235 15 13.6994V14.3C14.9999 14.5761 14.7761 14.8 14.5 14.8H10.5C10.224 14.7999 10.0001 14.576 10 14.3V13.6994C10.0002 13.4235 10.2241 13.1995 10.5 13.1994H14.5ZM3.15137 9.41428C2.92654 9.63928 2.79982 9.94483 2.7998 10.2629V13.0002C2.80005 13.1104 2.88978 13.2003 3 13.2004H5.7373C6.0554 13.2004 6.36094 13.0737 6.58594 12.8489L10.3682 9.06565L6.93359 5.63108L3.15137 9.41428ZM10.8301 3.46214C10.3657 2.9978 9.61485 2.99311 9.14453 3.45139L8.57227 4.00706L11.9922 7.42698L12.5488 6.85569C13.0071 6.38541 13.0023 5.63449 12.5381 5.17014L10.8301 3.46214Z" fill="#002CFB"/>
</svg>
