<svg width="24" height="24" viewBox="0 0 24 24" fill="none" xmlns="http://www.w3.org/2000/svg">
<path fill-rule="evenodd" clip-rule="evenodd" d="M14.5039 3.30669C12.1983 2.6889 9.74168 3.01232 7.67452 4.20579C5.60736 5.39927 4.09898 7.36504 3.48119 9.67065L1.50476 9.14107C1.16217 9.04927 0.878441 9.4157 1.05308 9.7244L3.16699 13.461C3.27635 13.6543 3.52224 13.7215 3.71471 13.6107L7.47245 11.4474C7.78149 11.2695 7.72085 10.8067 7.3764 10.7144L5.41304 10.1883C5.89354 8.39503 7.06673 6.8661 8.67452 5.93784C10.2823 5.00959 12.193 4.75804 13.9863 5.23854C15.6503 5.68443 17.0868 6.72682 18.0269 8.15947C18.1481 8.34417 18.3918 8.41048 18.5831 8.30002L19.6223 7.70002C19.8137 7.58957 19.8799 7.34435 19.7611 7.15812C18.5541 5.26675 16.6804 3.88989 14.5039 3.30669ZM9.50882 20.6948C11.8144 21.3126 14.271 20.9892 16.3382 19.7957C18.4054 18.6022 19.9137 16.6364 20.5315 14.3308L22.508 14.8604C22.8505 14.9522 23.1343 14.5858 22.9596 14.2771L20.8457 10.5405C20.7364 10.3472 20.4905 10.2799 20.298 10.3908L16.5403 12.5541C16.2312 12.732 16.2919 13.1948 16.6363 13.2871L18.5997 13.8132C18.1192 15.6064 16.946 17.1354 15.3382 18.0636C13.7304 18.9919 11.8197 19.2434 10.0265 18.7629C8.36237 18.317 6.9259 17.2747 5.98582 15.842C5.86462 15.6573 5.62093 15.591 5.42961 15.7015L4.39038 16.3015C4.19906 16.4119 4.13278 16.6571 4.25162 16.8434C5.45863 18.7347 7.3323 20.1116 9.50882 20.6948Z" fill="#FFF"/>
</svg>
