<svg width="12" height="12" viewBox="0 0 12 12" fill="none" xmlns="http://www.w3.org/2000/svg">
<path d="M6.62089 2.82067L7.70563 1.73593C8.41212 1.02944 9.55757 1.02944 10.2641 1.73593C10.9706 2.44243 10.9706 3.58788 10.2641 4.29437L8.13203 6.42641C7.42554 7.1329 6.28009 7.1329 5.57359 6.42641C5.45702 6.30983 5.35967 6.1813 5.28157 6.04476C5.07793 6.13278 4.88717 6.25999 4.72077 6.42639L4.33701 6.81015C4.44682 6.9759 4.57475 7.13319 4.72078 7.27922C5.89827 8.45671 7.80736 8.45671 8.98485 7.27922L11.1169 5.14719C12.2944 3.9697 12.2944 2.06061 11.1169 0.883118C9.93939 -0.294372 8.0303 -0.294373 6.85281 0.883117L5.22328 2.51265C5.69956 2.53508 6.17276 2.63775 6.62089 2.82067Z" fill="#002CFB"/>
<path d="M0.883118 6.85281C-0.294372 8.0303 -0.294373 9.93939 0.883117 11.1169C2.06061 12.2944 3.9697 12.2944 5.14719 11.1169L6.89589 9.36818C6.40125 9.3732 5.90591 9.29181 5.43443 9.12401L4.29437 10.2641C3.58788 10.9706 2.44243 10.9706 1.73593 10.2641C1.02944 9.55757 1.02944 8.41212 1.73593 7.70563L3.86797 5.57359C4.57446 4.8671 5.71991 4.8671 6.42641 5.57359C6.54298 5.69017 6.64032 5.81869 6.71842 5.95522C6.92206 5.8672 7.11281 5.73999 7.27921 5.57359L7.66297 5.18983C7.55317 5.02409 7.42525 4.86681 7.27922 4.72078C6.10173 3.54329 4.19264 3.54329 3.01515 4.72078L0.883118 6.85281Z" fill="#002CFB"/>
</svg>
