<svg width="24" height="24" viewBox="0 0 24 24" fill="none" xmlns="http://www.w3.org/2000/svg">
<path fill-rule="evenodd" clip-rule="evenodd" d="M6.20185 3.5C6.20185 3.22386 6.42571 3 6.70185 3H20.5C20.7761 3 21 3.22386 21 3.5V17.2981C21 17.5743 20.7761 17.7982 20.5 17.7982H18.8914C18.6154 17.7982 18.3916 17.5746 18.3914 17.2986L18.3826 7.46719L4.99622 20.8536C4.80095 21.0488 4.48437 21.0488 4.28911 20.8536L3.14645 19.7109C2.95118 19.5156 2.95118 19.199 3.14645 19.0038L16.5328 5.61742L6.70141 5.60862C6.42544 5.60837 6.20185 5.38459 6.20185 5.10862V3.5Z" fill="#121922"/>
</svg>
