<svg width="12" height="10" viewBox="0 0 12 10" fill="none" xmlns="http://www.w3.org/2000/svg">
<path fill-rule="evenodd" clip-rule="evenodd" d="M9.06872 4.19999L6.62486 1.75613C6.5077 1.63897 6.5077 1.44902 6.62486 1.33187L7.33197 0.624761C7.44912 0.507604 7.63907 0.507604 7.75623 0.624761L11.9193 4.78785C12.0365 4.90501 12.0365 5.09496 11.9193 5.21212L7.75623 9.37521C7.63907 9.49237 7.44912 9.49237 7.33197 9.37521L6.62486 8.66811C6.5077 8.55095 6.5077 8.361 6.62486 8.24384L9.06872 5.79999L0.300086 5.79999C0.134401 5.79999 8.59655e-05 5.66567 8.64291e-05 5.49999L8.57969e-05 4.49999C8.62289e-05 4.3343 0.1344 4.19999 0.300086 4.19999L9.06872 4.19999Z" fill="#002CFB"/>
</svg>
