<svg width="16" height="16" viewBox="0 0 16 16" fill="none" xmlns="http://www.w3.org/2000/svg">
<path fill-rule="evenodd" clip-rule="evenodd" d="M6.20626 15.0596C6.20626 15.0596 6.9459 15.4498 7.6411 15.6808C7.6411 15.6808 8.00084 15.8102 8.36059 15.6808C8.36059 15.6808 9.0558 15.4498 9.79544 15.0596C9.79544 15.0596 10.9845 14.4324 11.9286 13.5635C11.9286 13.5635 14.7351 10.9808 14.7351 6.97837V2.86066C14.7351 2.86066 14.7351 2.39575 14.4064 2.06702C14.4064 2.06702 14.0776 1.73828 13.6127 1.73828H2.38898C2.38898 1.73828 1.92407 1.73828 1.59534 2.06702C1.59534 2.06702 1.2666 2.39575 1.2666 2.86066V6.97837C1.2666 6.97837 1.2666 10.9808 4.07308 13.5635C4.07308 13.5635 5.01722 14.4324 6.20626 15.0596ZM9.27175 14.0669C9.27175 14.0669 8.61085 14.4156 8.00085 14.6176C8.00085 14.6176 7.39086 14.4156 6.72995 14.0669C6.72995 14.0669 5.66992 13.5077 4.83311 12.7376C4.83311 12.7376 2.38898 10.4883 2.38898 6.97837V2.86066H13.6127V6.97837C13.6127 6.97837 13.6127 10.4883 11.1686 12.7376C11.1686 12.7376 10.3318 13.5077 9.27175 14.0669Z" fill="#71869D"/>
<path d="M5.30204 7.78622C5.19762 7.68643 5.05875 7.63075 4.91432 7.63075C4.9142 7.63075 4.90159 7.63089 4.90159 7.63089C4.75279 7.63427 4.61143 7.69662 4.5086 7.80422C4.40882 7.90864 4.35313 8.04751 4.35313 8.19194L4.35328 8.20466C4.35665 8.35346 4.419 8.49482 4.5266 8.59765L6.58195 10.5618C6.79873 10.769 7.14008 10.7691 7.35704 10.5621L11.4746 6.63396C11.5823 6.53122 11.6449 6.38978 11.6484 6.24099C11.6486 6.232 11.6486 6.22301 11.6484 6.21402C11.645 6.07455 11.5897 5.94135 11.4934 5.84041C11.3875 5.7294 11.2408 5.66659 11.0874 5.66659L11.0715 5.66682C10.9328 5.67073 10.8004 5.72593 10.7 5.82173L6.97 9.38018L5.30204 7.78622Z" fill="#71869D"/>
</svg>
