<svg width="13" height="14" viewBox="0 0 13 14" fill="none" xmlns="http://www.w3.org/2000/svg">
<path fill-rule="evenodd" clip-rule="evenodd" d="M11.4862 6.66667C11.4862 6.89333 11.4662 7.10667 11.4396 7.32L12.8462 8.42C12.9729 8.52 13.0062 8.7 12.9262 8.84667L11.5929 11.1533C11.5329 11.26 11.4196 11.32 11.3062 11.32C11.2662 11.32 11.2262 11.3133 11.1862 11.3L9.52622 10.6333C9.17955 10.8933 8.80622 11.12 8.39956 11.2867L8.14622 13.0533C8.12622 13.2133 7.98622 13.3333 7.81955 13.3333H5.15289C4.98622 13.3333 4.84622 13.2133 4.82622 13.0533L4.57289 11.2867C4.16622 11.12 3.79289 10.9 3.44622 10.6333L1.78622 11.3C1.75289 11.3133 1.71289 11.32 1.67289 11.32C1.55289 11.32 1.43955 11.26 1.37955 11.1533L0.0462211 8.84667C-0.0337789 8.7 -0.000445525 8.52 0.126221 8.42L1.53289 7.32C1.50622 7.10667 1.48622 6.88667 1.48622 6.66667C1.48622 6.44667 1.50622 6.22667 1.53289 6.01333L0.126221 4.91333C-0.000445525 4.81333 -0.0404456 4.63333 0.0462211 4.48667L1.37955 2.18C1.43955 2.07333 1.55289 2.01333 1.66622 2.01333C1.70622 2.01333 1.74622 2.02 1.78622 2.03333L3.44622 2.7C3.79289 2.44 4.16622 2.21333 4.57289 2.04667L4.82622 0.28C4.84622 0.12 4.98622 0 5.15289 0H7.81955C7.98622 0 8.12622 0.12 8.14622 0.28L8.39956 2.04667C8.80622 2.21333 9.17955 2.43333 9.52622 2.7L11.1862 2.03333C11.2196 2.02 11.2596 2.01333 11.2996 2.01333C11.4196 2.01333 11.5329 2.07333 11.5929 2.18L12.9262 4.48667C13.0062 4.63333 12.9729 4.81333 12.8462 4.91333L11.4396 6.01333C11.4662 6.22667 11.4862 6.44 11.4862 6.66667ZM6.48698 4.66667C5.38198 4.66667 4.48698 5.56167 4.48698 6.66667C4.48698 7.77167 5.38198 8.66667 6.48698 8.66667C7.59198 8.66667 8.48698 7.77167 8.48698 6.66667C8.48698 5.56167 7.59198 4.66667 6.48698 4.66667Z" fill="#002CFB"/>
</svg>
