<svg width="60" height="60" viewBox="0 0 60 60" fill="none" xmlns="http://www.w3.org/2000/svg">
<path fill-rule="evenodd" clip-rule="evenodd" d="M30 0C30 0 36.1019 0 41.6781 2.3585C41.6781 2.3585 47.0622 4.63579 51.2132 8.7868C51.2132 8.7868 55.3642 12.9378 57.6415 18.3219C57.6415 18.3219 60 23.8981 60 30C60 30 60 36.1019 57.6415 41.6781C57.6415 41.6781 55.3642 47.0622 51.2132 51.2132C51.2132 51.2132 47.0622 55.3642 41.6781 57.6415C41.6781 57.6415 36.1019 60 30 60C30 60 23.8981 60 18.3219 57.6415C18.3219 57.6415 12.9378 55.3642 8.7868 51.2132C8.7868 51.2132 4.63579 47.0622 2.3585 41.6781C2.3585 41.6781 0 36.1019 0 30C0 30 0 23.8981 2.3585 18.3219C2.3585 18.3219 4.6358 12.9378 8.7868 8.78679C8.7868 8.78679 12.9378 4.63579 18.3219 2.35849C18.3219 2.35849 23.898 0 30 0ZM30 4.61538C30 4.61538 24.834 4.61538 20.1199 6.60928C20.1199 6.60928 15.5648 8.53591 12.0504 12.0504C12.0504 12.0504 8.53591 15.5648 6.60929 20.1199C6.60929 20.1199 4.61539 24.834 4.61538 30C4.61538 30 4.61538 35.166 6.60929 39.8801C6.60929 39.8801 8.53591 44.4352 12.0504 47.9496C12.0504 47.9496 15.5648 51.4641 20.1199 53.3907C20.1199 53.3907 24.834 55.3846 30 55.3846C30 55.3846 35.166 55.3846 39.8801 53.3907C39.8801 53.3907 44.4352 51.4641 47.9496 47.9496C47.9496 47.9496 51.4641 44.4352 53.3907 39.8801C53.3907 39.8801 55.3846 35.166 55.3846 30C55.3846 30 55.3846 24.834 53.3907 20.1199C53.3907 20.1199 51.4641 15.5648 47.9496 12.0504C47.9496 12.0504 44.4352 8.5359 39.8801 6.60929C39.8801 6.60929 35.166 4.61538 30 4.61538Z" fill="white"/>
<path d="M8.78184 12.0454L47.9546 51.2182C48.3874 51.651 48.9744 51.8941 49.5864 51.8941C50.1985 51.8941 50.7854 51.651 51.2182 51.2182C51.651 50.7854 51.8941 50.1985 51.8941 49.5864C51.8941 48.9744 51.651 48.3874 51.2182 47.9546L12.0454 8.78184C11.6124 8.34879 11.0254 8.10566 10.4133 8.10566C9.80131 8.10566 9.21434 8.34879 8.78156 8.78156C8.34879 9.21434 8.10566 9.80131 8.10566 10.4133C8.10566 11.0254 8.34879 11.6124 8.78184 12.0454Z" fill="white"/>
</svg>
