<svg width="20" height="21" viewBox="0 0 20 21" fill="none" xmlns="http://www.w3.org/2000/svg">
<path d="M15.624 11.75H19.374C19.7192 11.75 19.999 11.4702 19.999 11.125C19.999 10.7798 19.7192 10.5 19.374 10.5H15.624C15.2788 10.5 14.999 10.7798 14.999 11.125C14.999 11.4702 15.2788 11.75 15.624 11.75Z" fill="#002CFB"/>
<path d="M16.874 9.25V13C16.874 13.3452 17.1538 13.625 17.499 13.625C17.8442 13.625 18.124 13.3452 18.124 13V9.25C18.124 8.90482 17.8442 8.625 17.499 8.625C17.1538 8.625 16.874 8.90482 16.874 9.25Z" fill="#002CFB"/>
<path fill-rule="evenodd" clip-rule="evenodd" d="M8.43651 3C8.43651 3 9.51692 3 10.5046 3.41774C10.5046 3.41774 11.458 3.82103 12.193 4.556C12.193 4.556 12.928 5.29096 13.3313 6.24444C13.3313 6.24444 13.749 7.23209 13.749 8.3125C13.749 8.3125 13.749 9.39291 13.3313 10.3806C13.3313 10.3806 12.928 11.334 12.193 12.069C12.193 12.069 11.458 12.804 10.5046 13.2073C10.5046 13.2073 9.51692 13.625 8.43651 13.625C8.43651 13.625 7.3561 13.625 6.36845 13.2073C6.36845 13.2073 5.41497 12.804 4.68 12.069C4.68 12.069 3.94504 11.334 3.54175 10.3806C3.54175 10.3806 3.12401 9.39291 3.12401 8.3125C3.12401 8.3125 3.12401 7.23209 3.54175 6.24444C3.54175 6.24444 3.94504 5.29096 4.68 4.556C4.68 4.556 5.41497 3.82103 6.36845 3.41774C6.36845 3.41774 7.3561 3 8.43651 3ZM8.43651 4.25C8.43651 4.25 6.75377 4.25 5.56389 5.43988C5.56389 5.43988 4.37401 6.62976 4.37401 8.3125C4.37401 8.3125 4.37401 9.99524 5.56389 11.1851C5.56389 11.1851 6.75377 12.375 8.43651 12.375C8.43651 12.375 10.1193 12.375 11.3091 11.1851C11.3091 11.1851 12.499 9.99524 12.499 8.3125C12.499 8.3125 12.499 6.62976 11.3091 5.43988C11.3091 5.43988 10.1193 4.25 8.43651 4.25Z" fill="#002CFB"/>
<path d="M11.8705 14.3854C13.5029 15.1467 14.6607 16.5266 14.6607 16.5266C14.7796 16.6682 14.9549 16.75 15.1396 16.75L15.1497 16.7499C15.2932 16.7476 15.4315 16.696 15.5414 16.6038C15.6829 16.485 15.7646 16.3097 15.7646 16.125L15.7646 16.1149C15.7623 15.9714 15.7107 15.8332 15.6184 15.7233L15.6179 15.7226C14.2821 14.1308 12.3987 13.2525 12.3987 13.2525C10.515 12.3741 8.43652 12.3741 8.43652 12.3741C6.35803 12.3741 4.4743 13.2525 4.4743 13.2525C2.59095 14.1308 1.25515 15.7226 1.25515 15.7226L1.2546 15.7233C1.16016 15.8358 1.1084 15.978 1.1084 16.125L1.1084 16.1268C1.10845 16.1444 1.10925 16.162 1.11078 16.1795C1.12523 16.3446 1.20469 16.4972 1.33168 16.6038C1.44424 16.6982 1.58647 16.75 1.7334 16.75C1.75159 16.75 1.76977 16.7492 1.7879 16.7476C1.95303 16.7331 2.10565 16.6537 2.21219 16.5267C3.37002 15.1467 5.0026 14.3854 5.0026 14.3854C6.63517 13.6241 8.43652 13.6241 8.43652 13.6241C10.2379 13.6241 11.8705 14.3854 11.8705 14.3854Z" fill="#002CFB"/>
</svg>
