<svg width="16" height="16" viewBox="0 0 16 16" fill="none" xmlns="http://www.w3.org/2000/svg">
<path d="M12.4992 9H15.4992C15.7753 9 15.9992 8.77614 15.9992 8.5C15.9992 8.22386 15.7753 8 15.4992 8H12.4992C12.2231 8 11.9992 8.22386 11.9992 8.5C11.9992 8.77614 12.2231 9 12.4992 9Z" fill="white"/>
<path d="M13.4992 7V10C13.4992 10.2761 13.7231 10.5 13.9992 10.5C14.2753 10.5 14.4992 10.2761 14.4992 10V7C14.4992 6.72386 14.2753 6.5 13.9992 6.5C13.7231 6.5 13.4992 6.72386 13.4992 7Z" fill="white"/>
<path fill-rule="evenodd" clip-rule="evenodd" d="M6.74921 2C6.74921 2 7.61353 2 8.40365 2.33419C8.40365 2.33419 9.16644 2.65682 9.75441 3.2448C9.75441 3.2448 10.3424 3.83277 10.665 4.59555C10.665 4.59555 10.9992 5.38567 10.9992 6.25C10.9992 6.25 10.9992 7.11433 10.665 7.90445C10.665 7.90445 10.3424 8.66723 9.75441 9.2552C9.75441 9.2552 9.16644 9.84318 8.40365 10.1658C8.40365 10.1658 7.61353 10.5 6.74921 10.5C6.74921 10.5 5.88488 10.5 5.09476 10.1658C5.09476 10.1658 4.33198 9.84318 3.744 9.2552C3.744 9.2552 3.15603 8.66723 2.8334 7.90445C2.8334 7.90445 2.49921 7.11433 2.49921 6.25C2.49921 6.25 2.49921 5.38567 2.8334 4.59555C2.8334 4.59555 3.15603 3.83277 3.744 3.2448C3.744 3.2448 4.33198 2.65682 5.09476 2.33419C5.09476 2.33419 5.88488 2 6.74921 2ZM6.74921 3C6.74921 3 5.40301 3 4.45111 3.9519C4.45111 3.9519 3.49921 4.90381 3.49921 6.25C3.49921 6.25 3.49921 7.59619 4.45111 8.5481C4.45111 8.5481 5.40301 9.5 6.74921 9.5C6.74921 9.5 8.0954 9.5 9.0473 8.5481C9.0473 8.5481 9.99921 7.59619 9.99921 6.25C9.99921 6.25 9.99921 4.90381 9.0473 3.9519C9.0473 3.9519 8.0954 3 6.74921 3Z" fill="white"/>
<path d="M9.49636 11.1083C10.8024 11.7174 11.7286 12.8212 11.7286 12.8212C11.8237 12.9346 11.9639 13 12.1117 13L12.1198 12.9999C12.2346 12.9981 12.3452 12.9568 12.4331 12.883C12.5463 12.788 12.6117 12.6478 12.6117 12.5L12.6117 12.4919C12.6098 12.3771 12.5685 12.2665 12.4948 12.1786L12.4943 12.1781C11.4257 10.9046 9.919 10.202 9.919 10.202C8.41201 9.49927 6.74922 9.49927 6.74922 9.49927C5.08643 9.49927 3.57944 10.202 3.57944 10.202C2.07276 10.9046 1.00412 12.1781 1.00412 12.1781L1.00368 12.1786C0.928131 12.2686 0.886719 12.3824 0.886719 12.5L0.886721 12.5015C0.886762 12.5155 0.887397 12.5296 0.888623 12.5436C0.900186 12.6757 0.963754 12.7978 1.06534 12.883C1.15539 12.9586 1.26917 13 1.38672 13C1.40127 13 1.41582 12.9993 1.43032 12.9981C1.56242 12.9865 1.68452 12.9229 1.76976 12.8214C2.69602 11.7174 4.00208 11.1083 4.00208 11.1083C5.30813 10.4993 6.74922 10.4993 6.74922 10.4993C8.19031 10.4993 9.49636 11.1083 9.49636 11.1083Z" fill="white"/>
</svg>
