<svg width="20" height="20" viewBox="0 0 20 20" fill="none" xmlns="http://www.w3.org/2000/svg">
<path d="M15.624 11.25H19.374C19.7192 11.25 19.999 10.9702 19.999 10.625C19.999 10.2798 19.7192 10 19.374 10H15.624C15.2788 10 14.999 10.2798 14.999 10.625C14.999 10.9702 15.2788 11.25 15.624 11.25Z" fill="#002CFB"/>
<path d="M16.874 8.75V12.5C16.874 12.8452 17.1538 13.125 17.499 13.125C17.8442 13.125 18.124 12.8452 18.124 12.5V8.75C18.124 8.40482 17.8442 8.125 17.499 8.125C17.1538 8.125 16.874 8.40482 16.874 8.75Z" fill="#002CFB"/>
<path fill-rule="evenodd" clip-rule="evenodd" d="M8.43651 2.5C8.43651 2.5 9.51692 2.5 10.5046 2.91774C10.5046 2.91774 11.458 3.32103 12.193 4.056C12.193 4.056 12.928 4.79096 13.3313 5.74444C13.3313 5.74444 13.749 6.73209 13.749 7.8125C13.749 7.8125 13.749 8.89291 13.3313 9.88056C13.3313 9.88056 12.928 10.834 12.193 11.569C12.193 11.569 11.458 12.304 10.5046 12.7073C10.5046 12.7073 9.51692 13.125 8.43651 13.125C8.43651 13.125 7.3561 13.125 6.36845 12.7073C6.36845 12.7073 5.41497 12.304 4.68 11.569C4.68 11.569 3.94504 10.834 3.54175 9.88056C3.54175 9.88056 3.12401 8.89291 3.12401 7.8125C3.12401 7.8125 3.12401 6.73209 3.54175 5.74444C3.54175 5.74444 3.94504 4.79096 4.68 4.056C4.68 4.056 5.41497 3.32103 6.36845 2.91774C6.36845 2.91774 7.3561 2.5 8.43651 2.5ZM8.43651 3.75C8.43651 3.75 6.75377 3.75 5.56389 4.93988C5.56389 4.93988 4.37401 6.12976 4.37401 7.8125C4.37401 7.8125 4.37401 9.49524 5.56389 10.6851C5.56389 10.6851 6.75377 11.875 8.43651 11.875C8.43651 11.875 10.1193 11.875 11.3091 10.6851C11.3091 10.6851 12.499 9.49524 12.499 7.8125C12.499 7.8125 12.499 6.12976 11.3091 4.93988C11.3091 4.93988 10.1193 3.75 8.43651 3.75Z" fill="#002CFB"/>
<path d="M11.8705 13.8854C13.5029 14.6467 14.6607 16.0266 14.6607 16.0266C14.7796 16.1682 14.9549 16.25 15.1396 16.25L15.1497 16.2499C15.2932 16.2476 15.4315 16.196 15.5414 16.1038C15.6829 15.985 15.7646 15.8097 15.7646 15.625L15.7646 15.6149C15.7623 15.4714 15.7107 15.3332 15.6184 15.2233L15.6179 15.2226C14.2821 13.6308 12.3987 12.7525 12.3987 12.7525C10.515 11.8741 8.43652 11.8741 8.43652 11.8741C6.35803 11.8741 4.4743 12.7525 4.4743 12.7525C2.59095 13.6308 1.25515 15.2226 1.25515 15.2226L1.2546 15.2233C1.16016 15.3358 1.1084 15.478 1.1084 15.625L1.1084 15.6268C1.10845 15.6444 1.10925 15.662 1.11078 15.6795C1.12523 15.8446 1.20469 15.9972 1.33168 16.1038C1.44424 16.1982 1.58647 16.25 1.7334 16.25C1.75159 16.25 1.76977 16.2492 1.7879 16.2476C1.95303 16.2331 2.10565 16.1537 2.21219 16.0267C3.37002 14.6467 5.0026 13.8854 5.0026 13.8854C6.63517 13.1241 8.43652 13.1241 8.43652 13.1241C10.2379 13.1241 11.8705 13.8854 11.8705 13.8854Z" fill="#002CFB"/>
</svg>
