<svg width="24" height="24" viewBox="0 0 24 24" fill="none" xmlns="http://www.w3.org/2000/svg">
<path d="M11.0769 6.46153V12.9231C11.0769 13.4329 11.4902 13.8461 12 13.8461C12.5098 13.8461 12.9231 13.4329 12.9231 12.9231V6.46153C12.9231 5.95173 12.5098 5.53846 12 5.53846C11.4902 5.53846 11.0769 5.95173 11.0769 6.46153Z" fill="#1C1C1C"/>
<path fill-rule="evenodd" clip-rule="evenodd" d="M16.9117 0.137558C16.5752 -0.000657636 16.2115 2.30985e-07 16.2115 2.30985e-07L16.2102 3.14703e-06L7.7917 8.81405e-06C7.42628 -0.00127243 7.08826 0.137558 7.08826 0.137558C6.75024 0.276388 6.4896 0.535751 6.4896 0.535751L0.534138 6.49121C0.276388 6.75024 0.137558 7.08826 0.137558 7.08826C-0.00127232 7.42628 3.14703e-06 7.78846 3.14703e-06 7.78846L8.81405e-06 16.2083C-0.00127243 16.5737 0.137558 16.9117 0.137558 16.9117C0.276387 17.2498 0.535751 17.5104 0.535751 17.5104L6.49121 23.4659C6.75024 23.7236 7.08826 23.8624 7.08826 23.8624C7.42629 24.0013 7.78846 24 7.78846 24L16.2083 24C16.5737 24.0013 16.9117 23.8624 16.9117 23.8624C17.2498 23.7236 17.5104 23.4643 17.5104 23.4643L23.4659 17.5088C23.7236 17.2498 23.8624 16.9117 23.8624 16.9117C24.0013 16.5737 24 16.2115 24 16.2115L24 7.7917C24.0013 7.42629 23.8624 7.08826 23.8624 7.08826C23.7236 6.75024 23.4643 6.4896 23.4643 6.4896L17.5088 0.534135C17.2498 0.276387 16.9117 0.137558 16.9117 0.137558ZM16.2115 0.92308V1.8457L16.2135 1.84607L16.2148 1.84615L16.2115 0.92308ZM7.79005 1.84615L16.21 1.84616L22.1538 7.79005L22.1538 16.21L16.2099 22.1538L7.79004 22.1538L1.84615 16.2099L1.84616 7.79004L7.79005 1.84615Z" fill="#1C1C1C"/>
<path d="M13.3846 17.0769C13.3846 17.8416 12.7646 18.4615 12 18.4615C11.2353 18.4615 10.6154 17.8416 10.6154 17.0769C10.6154 16.3122 11.2353 15.6923 12 15.6923C12.7646 15.6923 13.3846 16.3122 13.3846 17.0769Z" fill="#1C1C1C"/>
</svg>
