<svg width="16" height="16" viewBox="0 0 16 16" fill="none" xmlns="http://www.w3.org/2000/svg">
<path fill-rule="evenodd" clip-rule="evenodd" d="M8 0C8 0 9.62718 0 11.1142 0.628932C11.1142 0.628932 12.5499 1.23621 13.6569 2.34315C13.6569 2.34315 14.7638 3.45008 15.3711 4.88585C15.3711 4.88585 16 6.37282 16 8C16 8 16 9.62718 15.3711 11.1141C15.3711 11.1141 14.7638 12.5499 13.6569 13.6569C13.6569 13.6569 12.5499 14.7638 11.1142 15.3711C11.1142 15.3711 9.62718 16 8 16C8 16 6.37282 16 4.88585 15.3711C4.88585 15.3711 3.45008 14.7638 2.34315 13.6569C2.34315 13.6569 1.23621 12.5499 0.628933 11.1142C0.628933 11.1142 0 9.62719 0 8C0 8 0 6.37281 0.628933 4.88585C0.628933 4.88585 1.23621 3.45008 2.34315 2.34315C2.34315 2.34315 3.45008 1.23621 4.88585 0.628932C4.88585 0.628932 6.37281 0 8 0ZM8 1.23077C8 1.23077 6.6224 1.23077 5.3653 1.76248C5.3653 1.76248 4.15062 2.27624 3.21343 3.21343C3.21343 3.21343 2.27624 4.15062 1.76248 5.3653C1.76248 5.3653 1.23077 6.62239 1.23077 8C1.23077 8 1.23077 9.3776 1.76248 10.6347C1.76248 10.6347 2.27624 11.8494 3.21343 12.7866C3.21343 12.7866 4.15062 13.7238 5.3653 14.2375C5.3653 14.2375 6.6224 14.7692 8 14.7692C8 14.7692 9.3776 14.7692 10.6347 14.2375C10.6347 14.2375 11.8494 13.7238 12.7866 12.7866C12.7866 12.7866 13.7238 11.8494 14.2375 10.6347C14.2375 10.6347 14.7692 9.3776 14.7692 8C14.7692 8 14.7692 6.6224 14.2375 5.3653C14.2375 5.3653 13.7238 4.15062 12.7866 3.21343C12.7866 3.21343 11.8494 2.27624 10.6347 1.76248C10.6347 1.76248 9.3776 1.23077 8 1.23077Z" fill="#F89500"/>
<path d="M4.92308 11.0769H11.0769C11.4168 11.0769 11.6923 10.8014 11.6923 10.4615C11.6923 10.1217 11.4168 9.84615 11.0769 9.84615H4.92308C4.58321 9.84615 4.30769 10.1217 4.30769 10.4615C4.30769 10.8014 4.58321 11.0769 4.92308 11.0769Z" fill="#F89500"/>
<path d="M6.15385 6.46154C6.15385 6.9713 5.74054 7.38462 5.23077 7.38462C4.721 7.38462 4.30769 6.9713 4.30769 6.46154C4.30769 5.95177 4.721 5.53846 5.23077 5.53846C5.74054 5.53846 6.15385 5.95177 6.15385 6.46154Z" fill="#F89500"/>
<path d="M11.6923 6.46154C11.6923 6.9713 11.279 7.38462 10.7692 7.38462C10.2595 7.38462 9.84615 6.9713 9.84615 6.46154C9.84615 5.95177 10.2595 5.53846 10.7692 5.53846C11.279 5.53846 11.6923 5.95177 11.6923 6.46154Z" fill="#F89500"/>
</svg>
