<svg width="16" height="16" viewBox="0 0 16 16" fill="none" xmlns="http://www.w3.org/2000/svg">
<path fill-rule="evenodd" clip-rule="evenodd" d="M8 0C8 0 9.62718 0 11.1142 0.628932C11.1142 0.628932 12.5499 1.23621 13.6569 2.34315C13.6569 2.34315 14.7638 3.45008 15.3711 4.88585C15.3711 4.88585 16 6.37282 16 8C16 8 16 9.62718 15.3711 11.1141C15.3711 11.1141 14.7638 12.5499 13.6569 13.6569C13.6569 13.6569 12.5499 14.7638 11.1142 15.3711C11.1142 15.3711 9.62718 16 8 16C8 16 6.37282 16 4.88585 15.3711C4.88585 15.3711 3.45008 14.7638 2.34315 13.6569C2.34315 13.6569 1.23621 12.5499 0.628933 11.1142C0.628933 11.1142 0 9.62719 0 8C0 8 0 6.37281 0.628933 4.88585C0.628933 4.88585 1.23621 3.45008 2.34315 2.34315C2.34315 2.34315 3.45008 1.23621 4.88585 0.628932C4.88585 0.628932 6.37281 0 8 0ZM8 1.23077C8 1.23077 6.6224 1.23077 5.3653 1.76248C5.3653 1.76248 4.15062 2.27624 3.21343 3.21343C3.21343 3.21343 2.27624 4.15062 1.76248 5.3653C1.76248 5.3653 1.23077 6.62239 1.23077 8C1.23077 8 1.23077 9.3776 1.76248 10.6347C1.76248 10.6347 2.27624 11.8494 3.21343 12.7866C3.21343 12.7866 4.15062 13.7238 5.3653 14.2375C5.3653 14.2375 6.6224 14.7692 8 14.7692C8 14.7692 9.3776 14.7692 10.6347 14.2375C10.6347 14.2375 11.8494 13.7238 12.7866 12.7866C12.7866 12.7866 13.7238 11.8494 14.2375 10.6347C14.2375 10.6347 14.7692 9.3776 14.7692 8C14.7692 8 14.7692 6.6224 14.2375 5.3653C14.2375 5.3653 13.7238 4.15062 12.7866 3.21343C12.7866 3.21343 11.8494 2.27624 10.6347 1.76248C10.6347 1.76248 9.3776 1.23077 8 1.23077Z" fill="#28A879"/>
<path d="M6.15385 6.46154C6.15385 6.9713 5.74054 7.38462 5.23077 7.38462C4.721 7.38462 4.30769 6.9713 4.30769 6.46154C4.30769 5.95177 4.721 5.53846 5.23077 5.53846C5.74054 5.53846 6.15385 5.95177 6.15385 6.46154Z" fill="#28A879"/>
<path d="M11.6923 6.46154C11.6923 6.9713 11.279 7.38462 10.7692 7.38462C10.2595 7.38462 9.84615 6.9713 9.84615 6.46154C9.84615 5.95177 10.2595 5.53846 10.7692 5.53846C11.279 5.53846 11.6923 5.95177 11.6923 6.46154Z" fill="#28A879"/>
<path d="M5.33233 9.53742C5.22221 9.34771 5.01934 9.23077 4.79999 9.23077C4.79 9.23077 4.78001 9.23101 4.77003 9.2315C4.67179 9.23629 4.57613 9.26455 4.49107 9.31393C4.30136 9.42404 4.18461 9.62681 4.18461 9.84615C4.18461 9.85615 4.18485 9.86614 4.18534 9.87612C4.19013 9.97436 4.21839 10.07 4.26777 10.1551C4.84689 11.1528 5.84663 11.7285 5.84663 11.7285C6.84637 12.3041 7.99999 12.3041 7.99999 12.3041C9.15362 12.3041 10.1534 11.7285 10.1534 11.7285C11.1531 11.1528 11.7322 10.1551 11.7322 10.1551C11.7867 10.0612 11.8154 9.95466 11.8154 9.84615C11.8154 9.83526 11.8151 9.82437 11.8145 9.81349C11.8035 9.60606 11.6886 9.4182 11.5089 9.31393C11.4151 9.25946 11.3085 9.23077 11.2 9.23077L11.1903 9.23085C11.1403 9.23163 11.0905 9.23852 11.0421 9.25137C10.8844 9.29325 10.7497 9.39607 10.6678 9.53723L10.6674 9.53784C10.2535 10.2506 9.53921 10.6619 9.53921 10.6619C8.8246 11.0734 7.99999 11.0734 7.99999 11.0734C7.17539 11.0734 6.46078 10.6619 6.46078 10.6619C5.74627 10.2505 5.33233 9.53742 5.33233 9.53742Z" fill="#28A879"/>
</svg>
