<svg width="111" height="85" viewBox="0 0 111 85" fill="none" xmlns="http://www.w3.org/2000/svg">
<rect width="111" height="85" fill="white"/>
<line x1="17.5" y1="10" x2="17.5" y2="75" stroke="#EFF4FB"/>
<line x1="31.5" y1="10" x2="31.5" y2="75" stroke="#EFF4FB"/>
<line x1="45.5" y1="10" x2="45.5" y2="75" stroke="#EFF4FB"/>
<line x1="59.5" y1="10" x2="59.5" y2="75" stroke="#EFF4FB"/>
<line x1="73.5" y1="10" x2="73.5" y2="75" stroke="#ADBFDF" stroke-opacity="0.4" stroke-dasharray="4 4"/>
<line x1="87.5" y1="10" x2="87.5" y2="75" stroke="#EFF4FB"/>
<line x1="101.5" y1="10" x2="101.5" y2="75" stroke="#EFF4FB"/>
<path d="M10 63.5C10.5 56.5 15 42 17.5 42C20.5 42 28 67 31.5 67C34.5 67 40.5 23 45.5 23C52 23 56 66.4999 59.5 66.4999C63 66.4999 69 34.9999 73 34.9999" stroke="#C0CADD"/>
</svg>
