<svg width="20" height="16" viewBox="0 0 20 16" fill="none" xmlns="http://www.w3.org/2000/svg">
<path fill-rule="evenodd" clip-rule="evenodd" d="M4.21246 0.70458C4.20579 0.697244 4.19895 0.690068 4.19194 0.683058C4.082 0.573118 3.93503 0.508103 3.77973 0.500707L3.77786 0.500621C3.76858 0.500207 3.75929 0.5 3.75 0.5C3.59452 0.5 3.44462 0.557951 3.32958 0.662537C3.32224 0.669206 3.31507 0.676048 3.30806 0.683058C3.19812 0.792998 3.1331 0.939969 3.12571 1.09527L3.12562 1.09714C3.12521 1.10642 3.125 1.11571 3.125 1.125C3.125 1.28048 3.18295 1.43038 3.28754 1.54542L4.80213 3.21148C4.0481 3.69535 2.82041 4.60215 1.8241 5.90318C1.8241 5.90318 1.04462 6.92106 0.678625 7.74668C0.607041 7.90816 0.607129 8.09239 0.678868 8.2538C0.678868 8.2538 0.853388 8.64647 1.20939 9.21188C1.20939 9.21188 1.91081 10.3259 2.83931 11.2544C2.83931 11.2544 5.83487 14.25 9.99491 14.2499C9.99491 14.2499 12.0634 14.2668 14.0658 13.4015L15.7875 15.2954C15.906 15.4257 16.0739 15.5 16.25 15.5L16.2526 15.5C16.4072 15.4993 16.556 15.4414 16.6704 15.3375C16.8007 15.219 16.875 15.0511 16.875 14.875L16.875 14.8724C16.8743 14.7178 16.8164 14.569 16.7125 14.4546L8.37754 5.28617C8.37653 5.28496 8.37552 5.28376 8.37449 5.28256C8.37007 5.27735 8.36555 5.27222 8.36095 5.26715C8.35525 5.26088 8.34943 5.25473 8.3435 5.24872L4.21246 0.70458ZM5.64972 4.14382C3.99789 5.12048 2.81653 6.66317 2.81653 6.66317C2.25195 7.40042 1.94459 7.99673 1.94459 7.99673C2.07162 8.23527 2.26718 8.54587 2.26718 8.54587C2.89388 9.54121 3.72319 10.3705 3.72319 10.3705C6.35263 13 10.0051 13 10.0051 13C11.257 13.0102 12.4283 12.6748 13.1614 12.4067L12.0133 11.1438C11.5621 11.4214 10.8454 11.7532 9.99994 11.75C9.99994 11.75 8.838 11.7499 7.8797 11.0928C7.8797 11.0928 6.92139 10.4357 6.5025 9.35192C6.5025 9.35192 6.08362 8.26812 6.35092 7.13734C6.35092 7.13734 6.52761 6.38993 7.05573 5.69043L5.64972 4.14382ZM7.5674 7.4249C7.64012 7.11727 7.77863 6.8484 7.91709 6.63793L11.1611 10.2063C10.5728 10.5022 10.0001 10.5 10.0001 10.5C9.22545 10.4999 8.58658 10.0619 8.58658 10.0619C7.94771 9.62383 7.66845 8.90129 7.66845 8.90129C7.38919 8.17875 7.5674 7.4249 7.5674 7.4249Z" fill="#002CFB"/>
<path d="M8.27961 1.89141C8.11613 1.91877 7.97021 2.00996 7.87396 2.14492C7.7984 2.25085 7.7578 2.37772 7.7578 2.50783L7.75782 2.513C7.75809 2.54585 7.76095 2.57862 7.76637 2.61102C7.79374 2.7745 7.88493 2.92042 8.01988 3.01667C8.12581 3.09222 8.25268 3.13283 8.3828 3.13283L8.38797 3.13281C8.42082 3.13254 8.45359 3.12968 8.48598 3.12425C9.23714 2.99851 9.99875 3.00002 9.99875 3.00002C13.6474 3.00002 16.2768 5.62946 16.2768 5.62946C17.1061 6.45878 17.7328 7.45412 17.7328 7.45412C17.9273 7.76305 18.054 8.00069 18.054 8.00069C17.895 8.3006 17.639 8.69215 17.639 8.69215C16.8837 9.84727 15.8812 10.7442 15.8812 10.7442L15.8806 10.7447C15.7481 10.8633 15.6719 11.0331 15.6719 11.211C15.6719 11.2184 15.672 11.2259 15.6723 11.2334L15.6724 11.2371L15.6726 11.2408C15.6794 11.3841 15.7354 11.5207 15.831 11.6276C15.9496 11.7602 16.119 11.836 16.2969 11.836C16.3068 11.836 16.3168 11.8357 16.3267 11.8352C16.47 11.8284 16.6066 11.7724 16.7135 11.6768C17.8392 10.6699 18.6852 9.37625 18.6852 9.37625C19.1132 8.72177 19.3211 8.25386 19.3211 8.25386C19.3929 8.09225 19.3929 7.90779 19.3211 7.74618C19.1466 7.3535 18.7906 6.78811 18.7906 6.78811C18.0892 5.67407 17.1607 4.74558 17.1607 4.74558C14.1651 1.75002 10.0012 1.75002 10.0012 1.75002C9.13463 1.74831 8.27961 1.89141 8.27961 1.89141Z" fill="#002CFB"/>
<path d="M12.4871 7.76106C12.4871 7.76106 12.4098 6.93143 11.849 6.31512C11.849 6.31512 11.2882 5.69882 10.4696 5.5437C10.3067 5.51284 10.1628 5.41855 10.0694 5.28157C9.99961 5.17908 9.96184 5.05813 9.96095 4.93412L9.96094 4.92963C9.96094 4.89059 9.9646 4.85163 9.97186 4.81328C10.0238 4.53921 10.2511 4.33273 10.5288 4.30724C10.5478 4.3055 10.5669 4.30463 10.5859 4.30463C10.625 4.30463 10.6639 4.30828 10.7023 4.31555C10.7023 4.31555 11.9316 4.54847 12.7736 5.47389C12.7736 5.47389 13.6155 6.39954 13.7317 7.64507C13.7334 7.66373 13.7343 7.68247 13.7344 7.70122L13.7344 7.70306C13.7344 8.02577 13.4887 8.29542 13.1674 8.32537C13.1487 8.32711 13.13 8.32801 13.1112 8.32806L13.1094 8.32806C12.7867 8.32806 12.517 8.08238 12.4871 7.76106Z" fill="#002CFB"/>
</svg>
