<svg width="24" height="24" viewBox="0 0 24 24" fill="none" xmlns="http://www.w3.org/2000/svg">
<path fill-rule="evenodd" clip-rule="evenodd" d="M19.8107 21.3107C19.8107 21.3107 19.3713 21.75 18.75 21.75H5.25C5.25 21.75 4.62868 21.75 4.18934 21.3107C4.18934 21.3107 3.75 20.8713 3.75 20.25V3.75C3.75 3.75 3.75 3.12868 4.18934 2.68934C4.18934 2.68934 4.62868 2.25 5.25 2.25H14.25C14.4489 2.25 14.6397 2.32902 14.7803 2.46967L20.0303 7.71967C20.171 7.86032 20.25 8.05109 20.25 8.25V20.25C20.25 20.25 20.25 20.8713 19.8107 21.3107ZM18.75 20.25V8.56066L13.9393 3.75H5.25V20.25H18.75Z" fill="#E10D0D"/>
<path d="M14.25 9H19.5C19.9142 9 20.25 8.66421 20.25 8.25C20.25 7.83579 19.9142 7.5 19.5 7.5H15V3C15 2.58579 14.6642 2.25 14.25 2.25C13.8358 2.25 13.5 2.58579 13.5 3V8.25C13.5 8.66421 13.8358 9 14.25 9Z" fill="#E10D0D"/>
<path d="M9 13.5H15C15.4142 13.5 15.75 13.1642 15.75 12.75C15.75 12.3358 15.4142 12 15 12H9C8.58579 12 8.25 12.3358 8.25 12.75C8.25 13.1642 8.58579 13.5 9 13.5Z" fill="#E10D0D"/>
<path d="M9 16.5H15C15.4142 16.5 15.75 16.1642 15.75 15.75C15.75 15.3358 15.4142 15 15 15H9C8.58579 15 8.25 15.3358 8.25 15.75C8.25 16.1642 8.58579 16.5 9 16.5Z" fill="#E10D0D"/>
</svg>
