<svg width="24" height="24" viewBox="0 0 24 24" fill="none" xmlns="http://www.w3.org/2000/svg">
<path fill-rule="evenodd" clip-rule="evenodd" d="M9.8681 20.1274C9.8681 20.1274 10.7468 20.6291 11.5726 20.926C11.5726 20.926 12 21.0924 12.4274 20.926C12.4274 20.926 13.2532 20.6291 14.1319 20.1274C14.1319 20.1274 15.5444 19.321 16.666 18.2038C16.666 18.2038 20 14.8832 20 9.73725V4.44305C20 4.44305 20 3.84532 19.6095 3.42266C19.6095 3.42266 19.219 3 18.6667 3H5.33333C5.33333 3 4.78105 3 4.39052 3.42266C4.39052 3.42266 4 3.84532 4 4.44305V9.73725C4 9.73725 4 14.8832 7.33397 18.2038C7.33397 18.2038 8.45557 19.321 9.8681 20.1274ZM13.5098 18.8511C13.5098 18.8511 12.7247 19.2994 12 19.5591C12 19.5591 11.2754 19.2994 10.4902 18.8511C10.4902 18.8511 9.23096 18.1321 8.23686 17.142C8.23686 17.142 5.33333 14.2501 5.33333 9.73725V4.44305H18.6667V9.73725C18.6667 9.73725 18.6667 14.2501 15.7631 17.142C15.7631 17.142 14.769 18.1321 13.5098 18.8511Z" fill="#1C1C1C"/>
<path d="M11.3333 8.05069V11.6583C11.3333 12.0568 11.6318 12.3798 12 12.3798C12.3682 12.3798 12.6667 12.0568 12.6667 11.6583V8.05069C12.6667 7.6522 12.3682 7.32916 12 7.32916C11.6318 7.32916 11.3333 7.6522 11.3333 8.05069Z" fill="#1C1C1C"/>
<path d="M13 14.9052C13 15.5029 12.5522 15.9875 12 15.9875C11.4478 15.9875 11 15.5029 11 14.9052C11 14.3075 11.4478 13.8229 12 13.8229C12.5522 13.8229 13 14.3075 13 14.9052Z" fill="#1C1C1C"/>
</svg>
