<svg width="24" height="24" viewBox="0 0 24 24" fill="none" xmlns="http://www.w3.org/2000/svg">
<path d="M1.71995 7.28061C1.5793 7.13996 1.5 6.94891 1.5 6.75C1.5 6.55109 1.57902 6.36032 1.71967 6.21967C1.86032 6.07902 2.05109 6 2.25 6C2.44891 6 2.63968 6.07902 2.78033 6.21967L9 12.4393L12.2197 9.21967C12.5126 8.92678 12.9874 8.92678 13.2803 9.21967L22.2803 18.2197C22.421 18.3603 22.5 18.5511 22.5 18.75C22.5 18.9489 22.421 19.1397 22.2803 19.2803C22.1397 19.421 21.9489 19.5 21.75 19.5C21.5511 19.5 21.3603 19.421 21.2197 19.2803L12.75 10.8107L9.53033 14.0303C9.38968 14.171 9.19891 14.25 9 14.25C8.80109 14.25 8.61032 14.171 8.46967 14.0303L1.71995 7.28061Z" fill="#E10D0D"/>
<path d="M21.75 19.5H15.75C15.3358 19.5 15 19.1642 15 18.75C15 18.3358 15.3358 18 15.75 18H21V12.75C21 12.3358 21.3358 12 21.75 12C22.1642 12 22.5 12.3358 22.5 12.75V18.75C22.5 19.1642 22.1642 19.5 21.75 19.5Z" fill="#E10D0D"/>
</svg>
